<svg width="49" height="49" viewBox="0 0 49 49" fill="none" xmlns="http://www.w3.org/2000/svg">
<g opacity="0.6">
<circle cx="24.5" cy="24.5" r="24" fill="#202124" stroke="white"/>
<path d="M24.4977 21.6655C22.9369 21.6655 21.6632 22.9392 21.6632 24.5C21.6632 26.0608 22.9369 27.3345 24.4977 27.3345C26.0585 27.3345 27.3322 26.0608 27.3322 24.5C27.3322 22.9392 26.0585 21.6655 24.4977 21.6655ZM32.9991 24.5C32.9991 23.3262 33.0097 22.163 32.9438 20.9914C32.8778 19.6305 32.5674 18.4226 31.5722 17.4275C30.575 16.4302 29.3693 16.1218 28.0084 16.0559C26.8346 15.99 25.6715 16.0006 24.4998 16.0006C23.3261 16.0006 22.1629 15.99 20.9913 16.0559C19.6304 16.1218 18.4226 16.4323 17.4274 17.4275C16.4302 18.4248 16.1218 19.6305 16.0559 20.9914C15.99 22.1652 16.0006 23.3283 16.0006 24.5C16.0006 25.6717 15.99 26.837 16.0559 28.0086C16.1218 29.3695 16.4323 30.5774 17.4274 31.5725C18.4247 32.5698 19.6304 32.8782 20.9913 32.9441C22.1651 33.01 23.3282 32.9994 24.4998 32.9994C25.6736 32.9994 26.8368 33.01 28.0084 32.9441C29.3693 32.8782 30.5771 32.5677 31.5722 31.5725C32.5695 30.5752 32.8778 29.3695 32.9438 28.0086C33.0118 26.837 32.9991 25.6738 32.9991 24.5ZM24.4977 28.8613C22.0843 28.8613 20.1365 26.9135 20.1365 24.5C20.1365 22.0865 22.0843 20.1387 24.4977 20.1387C26.9112 20.1387 28.859 22.0865 28.859 24.5C28.859 26.9135 26.9112 28.8613 24.4977 28.8613ZM29.0376 20.9786C28.4741 20.9786 28.019 20.5236 28.019 19.9601C28.019 19.3966 28.4741 18.9415 29.0376 18.9415C29.6011 18.9415 30.0561 19.3966 30.0561 19.9601C30.0563 20.0939 30.0301 20.2264 29.9789 20.35C29.9278 20.4737 29.8528 20.586 29.7582 20.6807C29.6636 20.7753 29.5512 20.8503 29.4276 20.9014C29.3039 20.9526 29.1714 20.9788 29.0376 20.9786Z" fill="white"/>
</g>
</svg>
