<svg width="49" height="49" viewBox="0 0 49 49" fill="none" xmlns="http://www.w3.org/2000/svg">
<g opacity="0.6">
<circle cx="24.5" cy="24.5" r="24" fill="#202124" stroke="white"/>
<path d="M26.5066 29.5353C27.5191 29.2919 28.4854 28.8717 29.3652 28.2921C29.6753 28.0723 29.8919 27.7345 29.969 27.3502C30.0462 26.9658 29.9779 26.565 29.7785 26.2326C29.5792 25.9001 29.2645 25.6621 28.901 25.5689C28.5375 25.4757 28.1537 25.5346 27.8308 25.7332C26.8374 26.3842 25.6899 26.7293 24.5189 26.7293C23.3478 26.7293 22.2003 26.3842 21.2069 25.7332C20.8844 25.5197 20.4945 25.4492 20.1225 25.5369C19.7506 25.6247 19.4269 25.8636 19.2224 26.2013V26.2045C19.1214 26.3722 19.0529 26.5592 19.0208 26.7548C18.9888 26.9503 18.9938 27.1506 19.0356 27.3442C19.0774 27.5377 19.1552 27.7206 19.2645 27.8826C19.3738 28.0445 19.5125 28.1822 19.6725 28.2877L19.6749 28.2908C20.5524 28.8705 21.5171 29.29 22.5281 29.5315L19.7773 32.4186C19.508 32.6961 19.3545 33.0744 19.3505 33.4706C19.3464 33.8667 19.4922 34.2484 19.7559 34.5318L19.7803 34.5575C20.0536 34.8531 20.4228 35 20.7919 35C21.1611 35 21.5296 34.8531 21.8023 34.5575L24.5192 31.7217L27.2199 34.5612C27.7939 35.1369 28.7055 35.1238 29.258 34.5218C29.5173 34.2401 29.6623 33.8636 29.6623 33.4718C29.6623 33.08 29.5173 32.7035 29.258 32.4217L26.5066 29.5353ZM24.5186 25.3231C25.8223 25.3223 27.0724 24.7785 27.9945 23.811C28.9165 22.8435 29.4352 21.5314 29.4366 20.1628C29.4366 17.3176 27.2289 15 24.5186 15C21.8083 15 19.6005 17.3176 19.6005 20.1628C19.6019 21.5317 20.1205 22.8441 21.0425 23.8121C21.9645 24.7801 23.2146 25.3246 24.5186 25.3263V25.3231ZM24.5186 18.0277C25.0579 18.028 25.575 18.2531 25.9564 18.6534C26.3378 19.0538 26.5522 19.5967 26.5525 20.1628C26.5523 20.7294 26.3381 21.2729 25.9568 21.674C25.5756 22.075 25.0583 22.301 24.5186 22.3023C23.9786 22.3008 23.4611 22.0749 23.0794 21.674C22.6977 21.273 22.4828 20.7297 22.4817 20.1628C22.4836 19.5963 22.6988 19.0536 23.0803 18.653C23.4619 18.2525 23.9789 18.0265 24.5186 18.0246V18.0277Z" fill="white"/>
</g>
</svg>
