<svg width="49" height="49" viewBox="0 0 49 49" fill="none" xmlns="http://www.w3.org/2000/svg">
<g opacity="0.6">
<circle cx="24.5" cy="24.5" r="24" fill="#202124" stroke="white"/>
<path d="M34.8128 28.7032C34.7564 28.6086 34.4073 27.8487 32.7271 26.2871C30.9682 24.6518 31.2045 24.9173 33.323 22.0897C34.6133 20.3677 35.1291 19.316 34.9677 18.8664C34.8141 18.4378 33.8651 18.5509 33.8651 18.5509L30.7096 18.5693C30.7096 18.5693 30.476 18.5378 30.3014 18.6416C30.1321 18.7441 30.0231 18.9808 30.0231 18.9808C30.0231 18.9808 29.5231 20.3137 28.8562 21.4469C27.4505 23.8381 26.8874 23.9642 26.6576 23.8157C26.1234 23.47 26.2573 22.4249 26.2573 21.6835C26.2573 19.3659 26.6077 18.3998 25.5735 18.1499C25.2295 18.0671 24.9775 18.0119 24.0994 18.0027C22.9732 17.9909 22.0189 18.0067 21.4795 18.2709C21.1198 18.447 20.8428 18.8401 21.0122 18.8624C21.2209 18.89 21.6934 18.99 21.9441 19.3317C22.2683 19.7721 22.2565 20.7633 22.2565 20.7633C22.2565 20.7633 22.4429 23.491 21.8221 23.8301C21.3955 24.0628 20.8114 23.5883 19.5578 21.4179C18.9159 20.3071 18.4303 19.078 18.4303 19.078C18.4303 19.078 18.3371 18.8493 18.1704 18.7271C17.9683 18.5785 17.6847 18.5312 17.6847 18.5312L14.6842 18.5496C14.6842 18.5496 14.2339 18.5627 14.0686 18.7586C13.9215 18.9334 14.0567 19.2937 14.0567 19.2937C14.0567 19.2937 16.4063 24.7977 19.0656 27.5727C21.5057 30.1163 24.2753 29.9494 24.2753 29.9494H25.5301C25.5301 29.9494 25.9095 29.9074 26.1024 29.6984C26.2809 29.5064 26.2744 29.1462 26.2744 29.1462C26.2744 29.1462 26.2494 27.4596 27.0317 27.2112C27.8022 26.9667 28.7919 28.8413 29.8407 29.5629C30.6335 30.1085 31.236 29.9889 31.236 29.9889L34.041 29.9494C34.041 29.9494 35.5085 29.8587 34.8128 28.7032Z" fill="white"/>
</g>
</svg>
