<svg width="172" height="75" viewBox="0 0 172 75" fill="none" xmlns="http://www.w3.org/2000/svg">
<g opacity="0.6">
<g filter="url(#filter0_d)">
<path d="M17.8241 57.5291H154.034C156.686 57.5291 158.97 55.0594 158.97 51.9057V15.1291C158.97 11.9753 156.686 9.50568 154.034 9.50568H17.8241C15.1719 9.50568 12.8877 11.9753 12.8877 15.1291V51.9057C12.8877 55.0594 15.1719 57.5291 17.8241 57.5291Z" stroke="white" stroke-width="0.817259"/>
</g>
<path d="M63.9746 23.1522C63.9746 24.0393 63.7025 24.7498 63.1666 25.2797C62.5504 25.9079 61.7479 26.224 60.7644 26.224C59.8245 26.224 59.022 25.9026 58.3636 25.2691C57.7039 24.6263 57.3748 23.8375 57.3748 22.8932C57.3748 21.949 57.7039 21.1601 58.3636 20.5227C59.022 19.8839 59.8245 19.5625 60.7644 19.5625C61.2324 19.5625 61.6785 19.6568 62.1043 19.8321C62.5286 20.0087 62.8741 20.2478 63.1244 20.5426L62.5559 21.103C62.1192 20.5997 61.5248 20.3514 60.7644 20.3514C60.0789 20.3514 59.4845 20.5851 58.9798 21.0566C58.4806 21.5293 58.2303 22.1416 58.2303 22.8932C58.2303 23.6449 58.4806 24.2625 58.9798 24.7352C59.4845 25.2014 60.0789 25.4404 60.7644 25.4404C61.4922 25.4404 62.1043 25.2014 62.5871 24.7299C62.9054 24.4178 63.0863 23.9875 63.134 23.4377H60.7644V22.6701H63.9256C63.9637 22.8361 63.9746 22.9968 63.9746 23.1522Z" fill="white" stroke="white" stroke-width="0.130761" stroke-miterlimit="10"/>
<path d="M68.9897 20.4912H66.0203V22.5098H68.6972V23.2774H66.0203V25.2961H68.9897V26.0783H65.1797V19.709H68.9897V20.4912Z" fill="white" stroke="white" stroke-width="0.130761" stroke-miterlimit="10"/>
<path d="M72.5289 26.0783H71.6883V20.4912H69.8669V19.709H74.3516V20.4912H72.5289V26.0783Z" fill="white" stroke="white" stroke-width="0.130761" stroke-miterlimit="10"/>
<path d="M77.5972 26.0783V19.709H78.4364V26.0783H77.5972Z" fill="white" stroke="white" stroke-width="0.130761" stroke-miterlimit="10"/>
<path d="M82.1566 26.0783H81.3228V20.4912H79.4946V19.709H83.9847V20.4912H82.1566V26.0783Z" fill="white" stroke="white" stroke-width="0.130761" stroke-miterlimit="10"/>
<path d="M92.4753 25.2585C91.8319 25.9026 91.0348 26.224 90.084 26.224C89.1277 26.224 88.3307 25.9026 87.6873 25.2585C87.0452 24.6157 86.7256 23.8269 86.7256 22.8932C86.7256 21.9596 87.0452 21.1708 87.6873 20.528C88.3307 19.8839 89.1277 19.5625 90.084 19.5625C91.0293 19.5625 91.8264 19.8839 92.4698 20.5333C93.1173 21.1814 93.4369 21.9649 93.4369 22.8932C93.4369 23.8269 93.1173 24.6157 92.4753 25.2585ZM88.3089 24.7246C88.7931 25.2014 89.3821 25.4404 90.084 25.4404C90.7804 25.4404 91.3748 25.2014 91.8536 24.7246C92.3365 24.2478 92.5814 23.6356 92.5814 22.8932C92.5814 22.1509 92.3365 21.5386 91.8536 21.0619C91.3748 20.5851 90.7804 20.346 90.084 20.346C89.3821 20.346 88.7931 20.5851 88.3089 21.0619C87.826 21.5386 87.5812 22.1509 87.5812 22.8932C87.5812 23.6356 87.826 24.2478 88.3089 24.7246Z" fill="white" stroke="white" stroke-width="0.130761" stroke-miterlimit="10"/>
<path d="M94.6162 26.0783V19.709H95.6364L98.8084 24.6626H98.8452L98.8084 23.4381V19.709H99.6477V26.0783H98.7717L95.45 20.8803H95.4133L95.45 22.1101V26.0783H94.6162Z" fill="white" stroke="white" stroke-width="0.130761" stroke-miterlimit="10"/>
<path d="M86.5189 35.3791C83.963 35.3791 81.8751 37.2782 81.8751 39.8984C81.8751 42.4974 83.963 44.4165 86.5189 44.4165C89.0802 44.4165 91.1682 42.4974 91.1682 39.8984C91.1682 37.2782 89.0802 35.3791 86.5189 35.3791ZM86.5189 42.6369C85.1165 42.6369 83.91 41.5067 83.91 39.8984C83.91 38.2689 85.1165 37.1587 86.5189 37.1587C87.9213 37.1587 89.1333 38.2689 89.1333 39.8984C89.1333 41.5067 87.9213 42.6369 86.5189 42.6369ZM76.3866 35.3791C73.8253 35.3791 71.7428 37.2782 71.7428 39.8984C71.7428 42.4974 73.8253 44.4165 76.3866 44.4165C78.9465 44.4165 81.0304 42.4974 81.0304 39.8984C81.0304 37.2782 78.9465 35.3791 76.3866 35.3791ZM76.3866 42.6369C74.9828 42.6369 73.7722 41.5067 73.7722 39.8984C73.7722 38.2689 74.9828 37.1587 76.3866 37.1587C77.789 37.1587 78.9955 38.2689 78.9955 39.8984C78.9955 41.5067 77.789 42.6369 76.3866 42.6369ZM64.3296 36.7643V38.6846H69.0264C68.889 39.7577 68.5218 40.5465 67.9586 41.0963C67.2731 41.7604 66.2053 42.4974 64.3296 42.4974C61.4391 42.4974 59.1757 40.2198 59.1757 37.3977C59.1757 34.5756 61.4391 32.298 64.3296 32.298C65.8925 32.298 67.0296 32.8943 67.8689 33.6673L69.2549 32.314C68.0811 31.2197 66.5195 30.379 64.3296 30.379C60.3659 30.379 57.0347 33.5278 57.0347 37.3977C57.0347 41.2677 60.3659 44.4165 64.3296 44.4165C66.4719 44.4165 68.0811 43.7312 69.3461 42.4456C70.6424 41.18 71.0463 39.4004 71.0463 37.9635C71.0463 37.5173 71.0083 37.1069 70.9403 36.7643H64.3296ZM113.632 38.253C113.25 37.2424 112.071 35.3791 109.669 35.3791C107.288 35.3791 105.306 37.2105 105.306 39.8984C105.306 42.4297 107.268 44.4165 109.897 44.4165C112.023 44.4165 113.25 43.1508 113.755 42.4138L112.177 41.3872C111.65 42.1389 110.934 42.6369 109.897 42.6369C108.867 42.6369 108.129 42.176 107.655 41.2677L113.846 38.7669L113.632 38.253ZM107.321 39.7577C107.268 38.0153 108.707 37.1228 109.738 37.1228C110.546 37.1228 111.231 37.5173 111.46 38.0817L107.321 39.7577ZM102.289 44.1415H104.324V30.8611H102.289V44.1415ZM98.9568 36.3858H98.8888C98.4318 35.8572 97.5599 35.3791 96.4554 35.3791C94.1375 35.3791 92.0183 37.3659 92.0183 39.9131C92.0183 42.4456 94.1375 44.4165 96.4554 44.4165C97.5599 44.4165 98.4318 43.9344 98.8888 43.3899H98.9568V44.038C98.9568 45.7657 98.0115 46.6941 96.4866 46.6941C95.2434 46.6941 94.4722 45.8175 94.1539 45.0805L92.3842 45.8016C92.8943 46.9995 94.245 48.4736 96.4866 48.4736C98.8725 48.4736 100.886 47.1031 100.886 43.7684V35.654H98.9568V36.3858ZM96.6295 42.6369C95.2271 42.6369 94.0532 41.4908 94.0532 39.9131C94.0532 38.3207 95.2271 37.1587 96.6295 37.1587C98.0115 37.1587 99.101 38.3207 99.101 39.9131C99.101 41.4908 98.0115 42.6369 96.6295 42.6369ZM123.159 30.8611H118.292V44.1415H120.322V39.1096H123.159C125.413 39.1096 127.624 37.5173 127.624 34.9847C127.624 32.4534 125.408 30.8611 123.159 30.8611ZM123.212 37.2623H120.322V32.7084H123.212C124.728 32.7084 125.593 33.9368 125.593 34.9847C125.593 36.0126 124.728 37.2623 123.212 37.2623ZM135.758 35.3539C134.291 35.3539 132.767 35.986 132.14 37.3871L133.94 38.1242C134.328 37.3871 135.041 37.1481 135.794 37.1481C136.847 37.1481 137.915 37.7656 137.931 38.8559V38.9954C137.564 38.7882 136.778 38.4814 135.811 38.4814C133.871 38.4814 131.895 39.5239 131.895 41.4695C131.895 43.2491 133.483 44.3952 135.269 44.3952C136.635 44.3952 137.389 43.7936 137.862 43.0937H137.931V44.1203H139.891V39.0259C139.891 36.6713 138.09 35.3539 135.758 35.3539ZM135.513 42.6316C134.849 42.6316 133.924 42.3102 133.924 41.5067C133.924 40.4788 135.078 40.0844 136.076 40.0844C136.97 40.0844 137.389 40.2769 137.931 40.5306C137.772 41.7604 136.688 42.6316 135.513 42.6316ZM147.033 35.6447L144.7 41.4018H144.63L142.219 35.6447H140.03L143.654 43.69L141.586 48.1669H143.707L149.291 35.6447H147.033ZM128.739 44.1415H130.774V30.8611H128.739V44.1415Z" fill="white"/>
<path d="M23.731 20.2784C23.4113 20.6051 23.2263 21.1137 23.2263 21.7724V45.2682C23.2263 45.9269 23.4113 46.4356 23.731 46.7623L23.8099 46.834L36.4779 33.6731V33.3623L23.8099 20.2014L23.731 20.2784Z" fill="white"/>
<path d="M41.7852 38.0615L38.1123 33.6723V33.3616L41.7906 28.9724L41.8912 29.0295L47.2152 31.987C48.7345 32.8264 48.7345 34.2075 47.2152 35.0522L41.8912 38.0044L41.7852 38.0615Z" fill="white"/>
<path d="M41.8913 38.0054L37.2951 34.3352L23.731 46.7625C24.2356 47.2805 25.0585 47.3429 25.9944 46.8249L41.8913 38.0054Z" fill="white"/>
<path d="M41.8913 29.03L25.9944 20.2104C25.0585 19.6978 24.2356 19.7602 23.731 20.2782L37.2951 32.7002L41.8913 29.03Z" fill="white"/>
</g>
<defs>
<filter id="filter0_d" x="0.116849" y="0.827411" width="171.624" height="73.5533" filterUnits="userSpaceOnUse" color-interpolation-filters="sRGB">
<feFlood flood-opacity="0" result="BackgroundImageFix"/>
<feColorMatrix in="SourceAlpha" type="matrix" values="0 0 0 0 0 0 0 0 0 0 0 0 0 0 0 0 0 0 127 0"/>
<feOffset dy="4.08629"/>
<feGaussianBlur stdDeviation="6.12944"/>
<feColorMatrix type="matrix" values="0 0 0 0 0 0 0 0 0 0.00166667 0 0 0 0 0.141667 0 0 0 0.07 0"/>
<feBlend mode="normal" in2="BackgroundImageFix" result="effect1_dropShadow"/>
<feBlend mode="normal" in="SourceGraphic" in2="effect1_dropShadow" result="shape"/>
</filter>
</defs>
</svg>
