<svg width="176" height="75" viewBox="0 0 176 75" fill="none" xmlns="http://www.w3.org/2000/svg">
<g opacity="0.6">
<g filter="url(#filter0_d)">
<path d="M162.967 53.1202C162.967 55.6605 161.167 57.6269 159.045 57.6269H17.3359C15.2148 57.6269 13.4086 55.6597 13.4086 53.1202V13.9218C13.4086 11.3828 15.2156 9.40863 17.3359 9.40863H159.044C161.166 9.40863 162.966 11.3819 162.966 13.9218L162.967 53.1202Z" stroke="white" stroke-width="0.817259"/>
</g>
<path d="M47.4645 33.2881C47.4329 29.8639 50.3402 28.198 50.4731 28.1204C48.8266 25.7799 46.2746 25.4601 45.3778 25.4346C43.2344 25.2146 41.1553 26.6851 40.0634 26.6851C38.9498 26.6851 37.2684 25.4558 35.4562 25.4919C33.1243 25.527 30.9428 26.8434 29.7463 28.8875C27.2771 33.0554 29.1187 39.1804 31.4844 42.5494C32.6678 44.1993 34.0506 46.0416 35.8605 45.9768C37.6312 45.9056 38.2927 44.8761 40.4295 44.8761C42.5468 44.8761 43.1679 45.9768 45.0138 45.9353C46.9142 45.9056 48.1107 44.2779 49.2527 42.6131C50.6202 40.722 51.1694 38.8595 51.1912 38.7639C51.1465 38.749 47.5005 37.3923 47.4645 33.2881Z" fill="white"/>
<path d="M43.9775 23.2183C44.9299 22.0571 45.5815 20.4772 45.4007 18.874C44.0222 18.9335 42.2983 19.8037 41.3056 20.9394C40.4274 21.9402 39.6428 23.5806 39.8455 25.1233C41.3939 25.2359 42.9837 24.3615 43.9775 23.2183Z" fill="white"/>
<path d="M73.0902 45.7405H70.6155L69.26 41.5874H64.5482L63.2569 45.7405H60.8477L65.5158 31.6016H68.3991L73.0902 45.7405ZM68.8513 39.845L67.6255 36.153C67.4958 35.7759 67.2528 34.8877 66.8943 33.4895H66.8507C66.7079 34.0909 66.478 34.979 66.162 36.153L64.9579 39.845H68.8513Z" fill="white"/>
<path d="M85.0951 40.5174C85.0951 42.2513 84.6146 43.6219 83.6535 44.628C82.7926 45.5236 81.7236 45.9709 80.4476 45.9709C79.0703 45.9709 78.0808 45.4886 77.4783 44.5239H77.4347V49.8945H75.1115V38.9015C75.1115 37.8114 75.0821 36.6927 75.0254 35.5452H77.0685L77.1982 37.1612H77.2418C78.0166 35.9437 79.1923 35.3359 80.7702 35.3359C82.0037 35.3359 83.0334 35.8108 83.8572 36.7617C84.6832 37.7137 85.0951 38.9652 85.0951 40.5174ZM82.7283 40.6003C82.7283 39.608 82.4995 38.7899 82.0397 38.1461C81.5373 37.4746 80.8628 37.1389 80.0172 37.1389C79.444 37.1389 78.9232 37.3259 78.4579 37.6945C77.9915 38.0664 77.6864 38.5519 77.5436 39.1533C77.4717 39.4338 77.4358 39.6632 77.4358 39.8439V41.5438C77.4358 42.2853 77.669 42.9111 78.1353 43.4221C78.6017 43.9332 79.2076 44.1882 79.9529 44.1882C80.8279 44.1882 81.509 43.8588 81.9961 43.2022C82.4842 42.5446 82.7283 41.6776 82.7283 40.6003Z" fill="white"/>
<path d="M97.1219 40.5174C97.1219 42.2513 96.6413 43.6219 95.6791 44.628C94.8194 45.5236 93.7504 45.9709 92.4744 45.9709C91.097 45.9709 90.1076 45.4886 89.5061 44.5239H89.4625V49.8945H87.1393V38.9015C87.1393 37.8114 87.1099 36.6927 87.0532 35.5452H89.0964L89.226 37.1612H89.2696C90.0433 35.9437 91.2191 35.3359 92.798 35.3359C94.0304 35.3359 95.0602 35.8108 95.8862 36.7617C96.7089 37.7137 97.1219 38.9652 97.1219 40.5174ZM94.7551 40.6003C94.7551 39.608 94.5251 38.7899 94.0653 38.1461C93.563 37.4746 92.8906 37.1389 92.044 37.1389C91.4697 37.1389 90.9499 37.3259 90.4835 37.6945C90.0172 38.0664 89.7131 38.5519 89.5704 39.1533C89.4995 39.4338 89.4625 39.6632 89.4625 39.8439V41.5438C89.4625 42.2853 89.6957 42.9111 90.1599 43.4221C90.6263 43.9321 91.2321 44.1882 91.9797 44.1882C92.8547 44.1882 93.5357 43.8588 94.0228 43.2022C94.511 42.5446 94.7551 41.6776 94.7551 40.6003Z" fill="white"/>
<path d="M110.569 41.7746C110.569 42.9773 110.14 43.9558 109.281 44.7112C108.336 45.5367 107.021 45.9489 105.331 45.9489C103.77 45.9489 102.519 45.6557 101.572 45.0682L102.111 43.1802C103.131 43.7816 104.25 44.0833 105.469 44.0833C106.344 44.0833 107.025 43.8899 107.514 43.5053C108.001 43.1207 108.244 42.6044 108.244 41.9606C108.244 41.3868 108.044 40.9034 107.642 40.5114C107.242 40.1193 106.574 39.7549 105.641 39.4181C103.102 38.4949 101.834 37.1424 101.834 35.3639C101.834 34.2016 102.278 33.2486 103.169 32.507C104.056 31.7643 105.239 31.3936 106.719 31.3936C108.038 31.3936 109.135 31.6177 110.01 32.065L109.429 33.9115C108.612 33.4781 107.688 33.2613 106.653 33.2613C105.836 33.2613 105.198 33.4579 104.74 33.8488C104.353 34.1984 104.159 34.6244 104.159 35.1291C104.159 35.6879 104.38 36.1501 104.825 36.5134C105.212 36.8492 105.915 37.2125 106.935 37.6046C108.182 38.0943 109.099 38.667 109.688 39.3236C110.276 39.978 110.569 40.7972 110.569 41.7746Z" fill="white"/>
<path d="M118.25 37.2441H115.689V42.194C115.689 43.453 116.14 44.0819 117.044 44.0819C117.46 44.0819 117.804 44.0469 118.076 43.9768L118.141 45.6968C117.683 45.8636 117.08 45.9476 116.334 45.9476C115.417 45.9476 114.7 45.6745 114.182 45.1295C113.666 44.5834 113.407 43.6676 113.407 42.381V37.242H111.882V35.5421H113.407V33.6754L115.689 33.0039V35.5421H118.25V37.2441Z" fill="white"/>
<path d="M129.804 40.5578C129.804 42.1249 129.344 43.4115 128.426 44.4176C127.464 45.4535 126.187 45.9699 124.595 45.9699C123.061 45.9699 121.839 45.4737 120.928 44.4814C120.017 43.4891 119.562 42.2365 119.562 40.7267C119.562 39.1469 120.03 37.8529 120.971 36.8467C121.909 35.8395 123.175 35.3359 124.767 35.3359C126.301 35.3359 127.536 35.8321 128.468 36.8255C129.359 37.7891 129.804 39.0332 129.804 40.5578ZM127.393 40.6311C127.393 39.6909 127.187 38.8845 126.77 38.212C126.283 37.3981 125.587 36.9923 124.684 36.9923C123.75 36.9923 123.041 37.3992 122.554 38.212C122.137 38.8855 121.931 39.7047 121.931 40.6736C121.931 41.6139 122.137 42.4203 122.554 43.0917C123.056 43.9055 123.758 44.3114 124.664 44.3114C125.551 44.3114 126.247 43.8971 126.749 43.0705C127.178 42.3852 127.393 41.5703 127.393 40.6311Z" fill="white"/>
<path d="M137.355 37.5373C137.125 37.4959 136.88 37.4746 136.623 37.4746C135.805 37.4746 135.173 37.7753 134.729 38.3777C134.342 38.9089 134.148 39.5804 134.148 40.391V45.7404H131.826L131.848 38.7559C131.848 37.5809 131.818 36.511 131.76 35.5463H133.784L133.869 37.4969H133.933C134.179 36.8265 134.565 36.2868 135.095 35.882C135.613 35.5176 136.172 35.3359 136.774 35.3359C136.989 35.3359 137.183 35.3508 137.355 35.3774V37.5373Z" fill="white"/>
<path d="M147.745 40.1601C147.745 40.5659 147.718 40.908 147.66 41.1874H140.691C140.718 42.1946 141.055 42.9649 141.702 43.4961C142.289 43.971 143.049 44.209 143.981 44.209C145.013 44.209 145.955 44.0486 146.802 43.7267L147.165 45.2991C146.176 45.7198 145.008 45.9291 143.66 45.9291C142.039 45.9291 140.766 45.4637 139.84 44.5341C138.916 43.6045 138.452 42.3561 138.452 40.7901C138.452 39.2527 138.883 37.9725 139.745 36.9515C140.647 35.8614 141.866 35.3164 143.401 35.3164C144.908 35.3164 146.049 35.8614 146.823 36.9515C147.437 37.8174 147.745 38.8883 147.745 40.1601ZM145.53 39.5725C145.545 38.9011 145.394 38.321 145.079 37.8312C144.677 37.2012 144.059 36.8867 143.227 36.8867C142.468 36.8867 141.85 37.1937 141.378 37.8099C140.991 38.2997 140.761 38.8873 140.691 39.5715H145.53V39.5725Z" fill="white"/>
<path d="M68.0832 22.9025C68.0832 24.153 67.6986 25.0943 66.9304 25.7264C66.2188 26.3097 65.2076 26.6019 63.8978 26.6019C63.2483 26.6019 62.6926 26.5743 62.2273 26.519V19.6865C62.8342 19.5909 63.4881 19.542 64.1942 19.542C65.4418 19.542 66.3822 19.8065 67.0164 20.3356C67.7269 20.9338 68.0832 21.789 68.0832 22.9025ZM66.8791 22.9333C66.8791 22.1227 66.659 21.5011 66.2188 21.0677C65.7786 20.6352 65.1357 20.4185 64.289 20.4185C63.9294 20.4185 63.6232 20.4419 63.3693 20.4907V25.685C63.5098 25.7063 63.767 25.7158 64.1408 25.7158C65.0147 25.7158 65.6892 25.4789 66.1643 25.005C66.6394 24.5312 66.8791 23.8406 66.8791 22.9333Z" fill="white"/>
<path d="M74.4676 23.9954C74.4676 24.7657 74.242 25.3967 73.7909 25.8918C73.318 26.4007 72.6914 26.6547 71.909 26.6547C71.1549 26.6547 70.5545 26.4114 70.1067 25.9226C69.6599 25.435 69.4365 24.8198 69.4365 24.0783C69.4365 23.3027 69.6664 22.6663 70.1285 22.1722C70.5905 21.6782 71.2116 21.4307 71.994 21.4307C72.7481 21.4307 73.3539 21.674 73.8127 22.1616C74.2485 22.6355 74.4676 23.2474 74.4676 23.9954ZM73.2831 24.0315C73.2831 23.5693 73.1807 23.1731 72.9769 22.8426C72.7372 22.4432 72.3961 22.2434 71.9526 22.2434C71.4938 22.2434 71.1451 22.4432 70.9054 22.8426C70.7006 23.1731 70.5992 23.5757 70.5992 24.0517C70.5992 24.5139 70.7016 24.9101 70.9054 25.2406C71.1528 25.64 71.4971 25.8398 71.9417 25.8398C72.3776 25.8398 72.7197 25.6368 72.966 25.2299C73.1774 24.8931 73.2831 24.4937 73.2831 24.0315Z" fill="white"/>
<path d="M83.0282 21.5322L81.4209 26.5406H80.3748L79.709 24.3657C79.5401 23.8228 79.4028 23.2831 79.296 22.7477H79.2753C79.1762 23.298 79.0389 23.8367 78.8624 24.3657L78.1552 26.5406H77.0971L75.5857 21.5322H76.7593L77.3401 23.9131C77.4806 24.4762 77.5961 25.0128 77.6888 25.5206H77.7095C77.7945 25.102 77.935 24.5687 78.1334 23.9238L78.8624 21.5333H79.7929L80.4914 23.8728C80.6603 24.4433 80.7976 24.9926 80.9033 25.5217H80.9349C81.0123 25.0064 81.1289 24.4571 81.2836 23.8728L81.9069 21.5333H83.0282V21.5322Z" fill="white"/>
<path d="M88.9483 26.5412H87.8064V23.6727C87.8064 22.7887 87.462 22.3467 86.7712 22.3467C86.4323 22.3467 86.1588 22.4679 85.9463 22.7112C85.736 22.9545 85.6292 23.2413 85.6292 23.5696V26.5402H84.4872V22.964C84.4872 22.5242 84.473 22.0471 84.4458 21.5308H85.4494L85.5028 22.3138H85.5344C85.6673 22.0705 85.8656 21.8697 86.1261 21.7093C86.4355 21.5223 86.7821 21.4277 87.1613 21.4277C87.6407 21.4277 88.0395 21.5786 88.3566 21.8814C88.7511 22.2522 88.9483 22.8057 88.9483 23.5409V26.5412Z" fill="white"/>
<path d="M92.0974 26.5408H90.9565V19.2344H92.0974V26.5408Z" fill="white"/>
<path d="M98.8208 23.9954C98.8208 24.7657 98.5953 25.3967 98.1442 25.8918C97.6712 26.4007 97.0436 26.6547 96.2623 26.6547C95.5071 26.6547 94.9067 26.4114 94.4599 25.9226C94.0132 25.435 93.7898 24.8198 93.7898 24.0783C93.7898 23.3027 94.0197 22.6663 94.4817 22.1722C94.9438 21.6782 95.5649 21.4307 96.3462 21.4307C97.1013 21.4307 97.7061 21.674 98.1659 22.1616C98.6018 22.6355 98.8208 23.2474 98.8208 23.9954ZM97.6353 24.0315C97.6353 23.5693 97.5328 23.1731 97.3291 22.8426C97.0904 22.4432 96.7483 22.2434 96.3059 22.2434C95.846 22.2434 95.4973 22.4432 95.2587 22.8426C95.0538 23.1731 94.9525 23.5757 94.9525 24.0517C94.9525 24.5139 95.0549 24.9101 95.2587 25.2406C95.506 25.64 95.8504 25.8398 96.295 25.8398C96.7308 25.8398 97.0719 25.6368 97.3182 25.2299C97.5307 24.8931 97.6353 24.4937 97.6353 24.0315Z" fill="white"/>
<path d="M104.348 26.541H103.322L103.237 25.9641H103.206C102.855 26.4241 102.355 26.6547 101.705 26.6547C101.22 26.6547 100.828 26.5027 100.533 26.201C100.265 25.9269 100.131 25.5859 100.131 25.1811C100.131 24.5691 100.392 24.1027 100.918 23.7797C101.444 23.4567 102.182 23.2984 103.134 23.3059V23.2124C103.134 22.5526 102.779 22.2232 102.067 22.2232C101.56 22.2232 101.114 22.3475 100.728 22.594L100.496 21.8631C100.973 21.5752 101.562 21.4307 102.258 21.4307C103.6 21.4307 104.274 22.1212 104.274 23.5024V25.3468C104.274 25.8472 104.299 26.2456 104.348 26.541ZM103.162 24.8198V24.0474C101.902 24.0262 101.273 24.363 101.273 25.0568C101.273 25.3181 101.345 25.5136 101.492 25.6443C101.639 25.775 101.826 25.8398 102.05 25.8398C102.3 25.8398 102.534 25.7622 102.748 25.6082C102.963 25.453 103.095 25.2565 103.144 25.0153C103.156 24.9611 103.162 24.8953 103.162 24.8198Z" fill="white"/>
<path d="M110.837 26.5408H109.823L109.77 25.7365H109.738C109.415 26.3484 108.863 26.6544 108.089 26.6544C107.47 26.6544 106.954 26.4175 106.546 25.9437C106.137 25.4698 105.933 24.8547 105.933 24.0993C105.933 23.2886 106.155 22.632 106.599 22.1306C107.03 21.6631 107.557 21.4294 108.185 21.4294C108.874 21.4294 109.357 21.6557 109.632 22.1093H109.654V19.2344H110.797V25.1915C110.797 25.6791 110.81 26.1285 110.837 26.5408ZM109.654 24.4286V23.5936C109.654 23.4491 109.643 23.3322 109.622 23.2429C109.558 22.9752 109.419 22.75 109.209 22.5683C108.996 22.3866 108.74 22.2953 108.445 22.2953C108.019 22.2953 107.686 22.4599 107.44 22.7903C107.197 23.1208 107.074 23.5426 107.074 24.0578C107.074 24.5529 107.191 24.9545 107.425 25.2637C107.672 25.5931 108.006 25.7577 108.423 25.7577C108.798 25.7577 109.098 25.6207 109.326 25.3455C109.546 25.0916 109.654 24.7856 109.654 24.4286Z" fill="white"/>
<path d="M120.604 23.9954C120.604 24.7657 120.378 25.3967 119.927 25.8918C119.454 26.4007 118.828 26.6547 118.045 26.6547C117.292 26.6547 116.692 26.4114 116.243 25.9226C115.796 25.435 115.573 24.8198 115.573 24.0783C115.573 23.3027 115.802 22.6663 116.264 22.1722C116.726 21.6782 117.348 21.4307 118.131 21.4307C118.884 21.4307 119.491 21.674 119.949 22.1616C120.385 22.6355 120.604 23.2474 120.604 23.9954ZM119.42 24.0315C119.42 23.5693 119.318 23.1731 119.114 22.8426C118.873 22.4432 118.533 22.2434 118.089 22.2434C117.631 22.2434 117.282 22.4432 117.041 22.8426C116.837 23.1731 116.735 23.5757 116.735 24.0517C116.735 24.5139 116.838 24.9101 117.041 25.2406C117.289 25.64 117.633 25.8398 118.078 25.8398C118.514 25.8398 118.857 25.6368 119.103 25.2299C119.313 24.8931 119.42 24.4937 119.42 24.0315Z" fill="white"/>
<path d="M126.744 26.5412H125.603V23.6727C125.603 22.7887 125.259 22.3467 124.567 22.3467C124.228 22.3467 123.954 22.4679 123.743 22.7112C123.532 22.9545 123.426 23.2413 123.426 23.5696V26.5402H122.283V22.964C122.283 22.5242 122.27 22.0471 122.242 21.5308H123.245L123.298 22.3138H123.33C123.464 22.0705 123.662 21.8697 123.922 21.7093C124.232 21.5223 124.578 21.4277 124.958 21.4277C125.436 21.4277 125.835 21.5786 126.152 21.8814C126.548 22.2522 126.744 22.8057 126.744 23.5409V26.5412Z" fill="white"/>
<path d="M134.429 22.3665H133.172V24.7994C133.172 25.4178 133.395 25.727 133.838 25.727C134.043 25.727 134.213 25.71 134.347 25.6749L134.376 26.5195C134.151 26.6024 133.854 26.6438 133.489 26.6438C133.038 26.6438 132.687 26.51 132.433 26.2422C132.178 25.9745 132.052 25.524 132.052 24.8919V22.3665H131.301V21.5325H132.052V20.6145L133.171 20.2852V21.5314H134.428V22.3665H134.429Z" fill="white"/>
<path d="M140.475 26.5408H139.332V23.6934C139.332 22.7957 138.987 22.3463 138.298 22.3463C137.768 22.3463 137.406 22.6065 137.208 23.1271C137.174 23.2366 137.155 23.3704 137.155 23.5277V26.5397H136.014V19.2344H137.155V22.2528H137.176C137.536 21.7035 138.051 21.4294 138.719 21.4294C139.192 21.4294 139.583 21.5802 139.894 21.883C140.281 22.2602 140.475 22.8212 140.475 23.5627V26.5408Z" fill="white"/>
<path d="M146.711 23.7997C146.711 23.9994 146.696 24.1673 146.669 24.3044H143.244C143.259 24.7994 143.422 25.1766 143.74 25.438C144.029 25.6717 144.403 25.7886 144.861 25.7886C145.368 25.7886 145.83 25.71 146.246 25.5517L146.425 26.3251C145.937 26.5312 145.364 26.6343 144.701 26.6343C143.905 26.6343 143.279 26.4059 142.825 25.949C142.37 25.4922 142.144 24.8791 142.144 24.1099C142.144 23.3545 142.355 22.7256 142.778 22.2241C143.221 21.6886 143.819 21.4209 144.574 21.4209C145.313 21.4209 145.874 21.6886 146.253 22.2241C146.56 22.6491 146.711 23.175 146.711 23.7997ZM145.621 23.5118C145.63 23.1814 145.555 22.8966 145.4 22.6565C145.202 22.3473 144.9 22.1922 144.491 22.1922C144.119 22.1922 143.815 22.3431 143.583 22.6459C143.393 22.8871 143.281 23.175 143.244 23.5118H145.621Z" fill="white"/>
</g>
<defs>
<filter id="filter0_d" x="0.741117" y="0.827411" width="174.893" height="73.5533" filterUnits="userSpaceOnUse" color-interpolation-filters="sRGB">
<feFlood flood-opacity="0" result="BackgroundImageFix"/>
<feColorMatrix in="SourceAlpha" type="matrix" values="0 0 0 0 0 0 0 0 0 0 0 0 0 0 0 0 0 0 127 0"/>
<feOffset dy="4.08629"/>
<feGaussianBlur stdDeviation="6.12944"/>
<feColorMatrix type="matrix" values="0 0 0 0 0 0 0 0 0 0.00166667 0 0 0 0 0.141667 0 0 0 0.07 0"/>
<feBlend mode="normal" in2="BackgroundImageFix" result="effect1_dropShadow"/>
<feBlend mode="normal" in="SourceGraphic" in2="effect1_dropShadow" result="shape"/>
</filter>
</defs>
</svg>
