<svg width="1154" height="400" viewBox="0 0 1154 400" fill="none" xmlns="http://www.w3.org/2000/svg">
<rect width="1154" height="400" rx="30" fill="url(#paint0_linear)"/>
<mask id="mask0" mask-type="alpha" maskUnits="userSpaceOnUse" x="0" y="0" width="1154" height="400">
<rect width="1154" height="400" rx="30" fill="#48D597"/>
</mask>
<g mask="url(#mask0)">
<g opacity="0.1">
<path d="M771.957 429.902L694.534 353.927L677.048 267.083L771.372 309.182L771.957 429.902ZM770.455 270.969L669.194 239.293L651.708 152.448L769.002 151.552L770.455 270.969ZM639.214 236.261L521.92 237.157L480.596 194.611L616.095 160.708L639.214 236.261ZM763.157 -6.51157L769.679 -2.17068L769.82 110.733L646.025 124.224L628.54 37.3792L763.157 -6.51157ZM425.785 135.567L584.254 58.6678L607.374 134.221L466.241 179.416L425.785 135.567ZM439.343 208.517L485.003 244.548L350.371 277.148L286.077 277.598L439.343 208.517ZM295.228 300.611L286.098 294.534L375.577 284.525L295.228 300.611ZM383.827 280.614L497.179 254.533L546.753 293.169L383.827 280.614ZM537.58 253.22L647.936 262.747L671.492 340.471L578.036 297.069L537.58 253.22ZM591.954 310.093L679.777 364.787L702.896 440.34L591.954 310.093ZM744.276 528.048L717.702 468.997L699.35 383.455L768.968 471.156L768.989 488.091L742.972 527.179L744.276 528.048Z" fill="white"/>
<path d="M377.384 165.867L315.31 205.399L267.613 277.06L423.044 201.899L377.384 165.867Z" fill="white"/>
<path d="M202.571 277.09L316.612 203.444L268.856 275.193L202.571 277.09Z" fill="white"/>
<path d="M247.688 298.18L286.617 294.018L297.168 301.04L265.248 306.109L78.0551 395.783L247.688 298.18Z" fill="white"/>
<path d="M154.801 310.919L223.608 304.097L46.6803 413.725L-39.0001 454.418L154.801 310.919Z" fill="white"/>
</g>
</g>
<defs>
<linearGradient id="paint0_linear" x1="0" y1="0" x2="124.857" y2="610.483" gradientUnits="userSpaceOnUse">
<stop stop-color="#3C7BED"/>
<stop offset="1" stop-color="#1163CB"/>
</linearGradient>
</defs>
</svg>
