<svg width="482" height="868" viewBox="0 0 482 868" fill="none" xmlns="http://www.w3.org/2000/svg">
<g filter="url(#filter0_d)">
<rect x="46" y="31.7891" width="390" height="775.211" rx="50" fill="#F6F6F7"/>
<rect x="40.5" y="26.2891" width="401" height="786.211" rx="55.5" stroke="#202124" stroke-width="11"/>
</g>
<mask id="mask0" mask-type="alpha" maskUnits="userSpaceOnUse" x="46" y="31" width="390" height="776">
<rect x="46" y="31.7891" width="390" height="775.211" rx="50" fill="#F6F6F7"/>
</mask>
<g mask="url(#mask0)">
<path d="M98.98 164.705V173.105H95.11V168.545H81.28V173.105H77.41V164.705H80.11C80.77 163.485 81.26 161.875 81.58 159.875C81.9 157.855 82.06 155.665 82.06 153.305V147.065H96.61V164.705H98.98ZM92.59 164.705V150.905H86.08V153.995C86.08 158.475 85.48 162.045 84.28 164.705H92.59ZM109.351 169.025C107.771 169.025 106.361 168.675 105.121 167.975C103.881 167.255 102.911 166.285 102.211 165.065C101.531 163.825 101.191 162.435 101.191 160.895C101.191 159.375 101.531 157.995 102.211 156.755C102.911 155.515 103.881 154.545 105.121 153.845C106.361 153.125 107.771 152.765 109.351 152.765C110.911 152.765 112.311 153.125 113.551 153.845C114.791 154.545 115.751 155.515 116.431 156.755C117.131 157.995 117.481 159.375 117.481 160.895C117.481 162.435 117.131 163.825 116.431 165.065C115.751 166.285 114.791 167.255 113.551 167.975C112.311 168.675 110.911 169.025 109.351 169.025ZM109.351 165.395C110.111 165.395 110.811 165.215 111.451 164.855C112.091 164.495 112.601 163.975 112.981 163.295C113.361 162.615 113.551 161.815 113.551 160.895C113.551 159.995 113.361 159.205 112.981 158.525C112.601 157.845 112.091 157.325 111.451 156.965C110.811 156.605 110.111 156.425 109.351 156.425C108.591 156.425 107.891 156.605 107.251 156.965C106.611 157.325 106.091 157.845 105.691 158.525C105.311 159.205 105.121 159.995 105.121 160.895C105.121 161.795 105.311 162.595 105.691 163.295C106.091 163.975 106.611 164.495 107.251 164.855C107.891 165.215 108.591 165.395 109.351 165.395ZM128.318 169.025C125.878 169.025 123.898 168.185 122.378 166.505C120.878 164.805 120.128 162.215 120.128 158.735C120.128 154.275 121.268 151.125 123.548 149.285C124.268 148.685 125.108 148.235 126.068 147.935C127.028 147.615 128.068 147.455 129.188 147.455C130.228 147.455 130.928 147.395 131.288 147.275C131.648 147.135 131.888 146.895 132.008 146.555H135.398C135.238 148.095 134.688 149.165 133.748 149.765C132.808 150.365 131.378 150.665 129.458 150.665C127.978 150.665 126.798 151.005 125.918 151.685C124.758 152.565 124.088 153.755 123.908 155.255H124.148C124.708 154.515 125.418 153.915 126.278 153.455C127.138 152.995 128.178 152.765 129.398 152.765C130.738 152.765 131.948 153.145 133.028 153.905C134.108 154.645 134.948 155.635 135.548 156.875C136.168 158.115 136.478 159.455 136.478 160.895C136.478 162.415 136.128 163.795 135.428 165.035C134.748 166.275 133.788 167.255 132.548 167.975C131.308 168.675 129.898 169.025 128.318 169.025ZM128.318 165.395C129.078 165.395 129.778 165.215 130.418 164.855C131.078 164.495 131.598 163.975 131.978 163.295C132.358 162.615 132.548 161.815 132.548 160.895C132.548 159.995 132.358 159.205 131.978 158.525C131.598 157.845 131.078 157.325 130.418 156.965C129.778 156.605 129.078 156.425 128.318 156.425C127.558 156.425 126.858 156.605 126.218 156.965C125.578 157.325 125.068 157.845 124.688 158.525C124.308 159.205 124.118 159.995 124.118 160.895C124.118 162.295 124.518 163.395 125.318 164.195C126.138 164.995 127.138 165.395 128.318 165.395ZM138.972 153.245H142.662V155.105H142.902C143.322 154.445 143.932 153.895 144.732 153.455C145.532 152.995 146.452 152.765 147.492 152.765C148.872 152.765 150.122 153.115 151.242 153.815C152.382 154.495 153.272 155.455 153.912 156.695C154.552 157.935 154.872 159.335 154.872 160.895C154.872 162.475 154.552 163.885 153.912 165.125C153.272 166.345 152.382 167.305 151.242 168.005C150.122 168.685 148.872 169.025 147.492 169.025C146.452 169.025 145.522 168.805 144.702 168.365C143.902 167.925 143.302 167.375 142.902 166.715H142.662L142.902 168.875V175.025H138.972V153.245ZM146.802 165.395C147.542 165.395 148.232 165.205 148.872 164.825C149.512 164.445 150.022 163.915 150.402 163.235C150.782 162.555 150.972 161.775 150.972 160.895C150.972 160.015 150.782 159.235 150.402 158.555C150.022 157.875 149.512 157.355 148.872 156.995C148.232 156.615 147.542 156.425 146.802 156.425C146.082 156.425 145.402 156.615 144.762 156.995C144.122 157.355 143.612 157.875 143.232 158.555C142.852 159.235 142.662 160.015 142.662 160.895C142.662 161.775 142.852 162.555 143.232 163.235C143.612 163.915 144.122 164.445 144.762 164.825C145.402 165.205 146.082 165.395 146.802 165.395ZM165.22 169.025C163.64 169.025 162.23 168.675 160.99 167.975C159.75 167.255 158.78 166.285 158.08 165.065C157.4 163.825 157.06 162.435 157.06 160.895C157.06 159.375 157.4 157.995 158.08 156.755C158.78 155.515 159.75 154.545 160.99 153.845C162.23 153.125 163.64 152.765 165.22 152.765C166.78 152.765 168.18 153.125 169.42 153.845C170.66 154.545 171.62 155.515 172.3 156.755C173 157.995 173.35 159.375 173.35 160.895C173.35 162.435 173 163.825 172.3 165.065C171.62 166.285 170.66 167.255 169.42 167.975C168.18 168.675 166.78 169.025 165.22 169.025ZM165.22 165.395C165.98 165.395 166.68 165.215 167.32 164.855C167.96 164.495 168.47 163.975 168.85 163.295C169.23 162.615 169.42 161.815 169.42 160.895C169.42 159.995 169.23 159.205 168.85 158.525C168.47 157.845 167.96 157.325 167.32 156.965C166.68 156.605 165.98 156.425 165.22 156.425C164.46 156.425 163.76 156.605 163.12 156.965C162.48 157.325 161.96 157.845 161.56 158.525C161.18 159.205 160.99 159.995 160.99 160.895C160.99 161.795 161.18 162.595 161.56 163.295C161.96 163.975 162.48 164.495 163.12 164.855C163.76 165.215 164.46 165.395 165.22 165.395ZM77.92 189.245H92.11V204.545H88.18V192.905H81.85V204.545H77.92V189.245ZM103.111 205.025C101.531 205.025 100.121 204.675 98.8811 203.975C97.6411 203.255 96.6711 202.285 95.9711 201.065C95.2911 199.825 94.9511 198.435 94.9511 196.895C94.9511 195.375 95.2911 193.995 95.9711 192.755C96.6711 191.515 97.6411 190.545 98.8811 189.845C100.121 189.125 101.531 188.765 103.111 188.765C104.671 188.765 106.071 189.125 107.311 189.845C108.551 190.545 109.511 191.515 110.191 192.755C110.891 193.995 111.241 195.375 111.241 196.895C111.241 198.435 110.891 199.825 110.191 201.065C109.511 202.285 108.551 203.255 107.311 203.975C106.071 204.675 104.671 205.025 103.111 205.025ZM103.111 201.395C103.871 201.395 104.571 201.215 105.211 200.855C105.851 200.495 106.361 199.975 106.741 199.295C107.121 198.615 107.311 197.815 107.311 196.895C107.311 195.995 107.121 195.205 106.741 194.525C106.361 193.845 105.851 193.325 105.211 192.965C104.571 192.605 103.871 192.425 103.111 192.425C102.351 192.425 101.651 192.605 101.011 192.965C100.371 193.325 99.8511 193.845 99.4511 194.525C99.0711 195.205 98.8811 195.995 98.8811 196.895C98.8811 197.795 99.0711 198.595 99.4511 199.295C99.8511 199.975 100.371 200.495 101.011 200.855C101.651 201.215 102.351 201.395 103.111 201.395ZM112.448 204.305L118.178 196.475L112.748 189.485V189.245H117.218L122.048 195.695H122.288V189.245H126.218V195.695H126.458L131.318 189.245H135.788V189.485L130.358 196.475L136.058 204.305V204.545H131.588L126.458 197.375H126.218V204.545H122.288V197.375H122.048L116.948 204.545H112.448V204.305ZM142.512 205.025C140.892 205.025 139.562 204.555 138.522 203.615C137.482 202.655 136.962 201.405 136.962 199.865C136.962 198.845 137.232 197.945 137.772 197.165C138.312 196.385 139.052 195.785 139.992 195.365C140.932 194.945 141.972 194.735 143.112 194.735C144.692 194.735 146.042 194.965 147.162 195.425V194.765C147.162 193.925 146.842 193.245 146.202 192.725C145.582 192.205 144.742 191.945 143.682 191.945C142.962 191.945 142.262 192.115 141.582 192.455C140.922 192.775 140.372 193.205 139.932 193.745L137.412 191.765C138.152 190.805 139.082 190.065 140.202 189.545C141.322 189.025 142.542 188.765 143.862 188.765C146.202 188.765 147.982 189.305 149.202 190.385C150.422 191.465 151.032 193.045 151.032 195.125V204.545H147.162V202.985H146.922C146.462 203.585 145.852 204.075 145.092 204.455C144.352 204.835 143.492 205.025 142.512 205.025ZM143.442 201.965C144.582 201.965 145.482 201.605 146.142 200.885C146.822 200.145 147.162 199.285 147.162 198.305C146.142 197.825 145.072 197.585 143.952 197.585C141.912 197.585 140.892 198.345 140.892 199.865C140.892 200.485 141.112 200.995 141.552 201.395C141.992 201.775 142.622 201.965 143.442 201.965ZM155.706 204.785C154.946 204.785 154.346 204.705 153.906 204.545V201.095C154.226 201.195 154.566 201.245 154.926 201.245C155.526 201.245 155.946 200.925 156.186 200.285C156.446 199.625 156.576 198.445 156.576 196.745V189.245H170.166V204.545H166.416V192.785H160.296V197.735C160.296 200.275 159.886 202.085 159.066 203.165C158.266 204.245 157.146 204.785 155.706 204.785ZM181.187 205.025C179.607 205.025 178.197 204.675 176.957 203.975C175.717 203.255 174.747 202.285 174.047 201.065C173.367 199.825 173.027 198.435 173.027 196.895C173.027 195.375 173.367 193.995 174.047 192.755C174.747 191.515 175.717 190.545 176.957 189.845C178.197 189.125 179.607 188.765 181.187 188.765C182.747 188.765 184.147 189.125 185.387 189.845C186.627 190.545 187.587 191.515 188.267 192.755C188.967 193.995 189.317 195.375 189.317 196.895C189.317 198.435 188.967 199.825 188.267 201.065C187.587 202.285 186.627 203.255 185.387 203.975C184.147 204.675 182.747 205.025 181.187 205.025ZM181.187 201.395C181.947 201.395 182.647 201.215 183.287 200.855C183.927 200.495 184.437 199.975 184.817 199.295C185.197 198.615 185.387 197.815 185.387 196.895C185.387 195.995 185.197 195.205 184.817 194.525C184.437 193.845 183.927 193.325 183.287 192.965C182.647 192.605 181.947 192.425 181.187 192.425C180.427 192.425 179.727 192.605 179.087 192.965C178.447 193.325 177.927 193.845 177.527 194.525C177.147 195.205 176.957 195.995 176.957 196.895C176.957 197.795 177.147 198.595 177.527 199.295C177.927 199.975 178.447 200.495 179.087 200.855C179.727 201.215 180.427 201.395 181.187 201.395ZM192.031 189.245H199.951C200.851 189.245 201.671 189.425 202.411 189.785C203.151 190.125 203.721 190.595 204.121 191.195C204.541 191.775 204.751 192.415 204.751 193.115C204.751 193.915 204.581 194.615 204.241 195.215C203.901 195.795 203.441 196.225 202.861 196.505V196.745C203.601 197.085 204.191 197.565 204.631 198.185C205.071 198.805 205.291 199.495 205.291 200.255C205.291 201.135 205.051 201.905 204.571 202.565C204.111 203.205 203.501 203.695 202.741 204.035C202.001 204.375 201.211 204.545 200.371 204.545H192.031V189.245ZM199.321 195.275C199.781 195.275 200.161 195.135 200.461 194.855C200.781 194.555 200.941 194.185 200.941 193.745C200.941 193.285 200.791 192.915 200.491 192.635C200.191 192.355 199.801 192.215 199.321 192.215H195.751V195.275H199.321ZM199.921 201.455C200.441 201.455 200.861 201.295 201.181 200.975C201.521 200.655 201.691 200.245 201.691 199.745C201.691 199.265 201.521 198.865 201.181 198.545C200.861 198.205 200.441 198.035 199.921 198.035H195.751V201.455H199.921ZM212.825 205.025C211.205 205.025 209.875 204.555 208.835 203.615C207.795 202.655 207.275 201.405 207.275 199.865C207.275 198.845 207.545 197.945 208.085 197.165C208.625 196.385 209.365 195.785 210.305 195.365C211.245 194.945 212.285 194.735 213.425 194.735C215.005 194.735 216.355 194.965 217.475 195.425V194.765C217.475 193.925 217.155 193.245 216.515 192.725C215.895 192.205 215.055 191.945 213.995 191.945C213.275 191.945 212.575 192.115 211.895 192.455C211.235 192.775 210.685 193.205 210.245 193.745L207.725 191.765C208.465 190.805 209.395 190.065 210.515 189.545C211.635 189.025 212.855 188.765 214.175 188.765C216.515 188.765 218.295 189.305 219.515 190.385C220.735 191.465 221.345 193.045 221.345 195.125V204.545H217.475V202.985H217.235C216.775 203.585 216.165 204.075 215.405 204.455C214.665 204.835 213.805 205.025 212.825 205.025ZM213.755 201.965C214.895 201.965 215.795 201.605 216.455 200.885C217.135 200.145 217.475 199.285 217.475 198.305C216.455 197.825 215.385 197.585 214.265 197.585C212.225 197.585 211.205 198.345 211.205 199.865C211.205 200.485 211.425 200.995 211.865 201.395C212.305 201.775 212.935 201.965 213.755 201.965ZM228.681 192.905H223.881V189.245H237.381V192.905H232.611V204.545H228.681V192.905ZM240.166 189.245H243.886V194.345H247.756C249.456 194.345 250.826 194.805 251.866 195.725C252.906 196.625 253.426 197.865 253.426 199.445C253.426 201.025 252.906 202.275 251.866 203.195C250.826 204.095 249.456 204.545 247.756 204.545H240.166V189.245ZM247.606 201.455C248.286 201.455 248.826 201.285 249.226 200.945C249.626 200.585 249.826 200.085 249.826 199.445C249.826 198.805 249.626 198.315 249.226 197.975C248.826 197.615 248.286 197.435 247.606 197.435H243.886V201.455H247.606Z" fill="#202124"/>
<path d="M77.312 493.12H85.84V504.576H84.048V494.832H79.104V504.576H77.312V493.12ZM91.9886 504.832C91.1673 504.832 90.4313 504.646 89.7806 504.272C89.13 503.888 88.6233 503.366 88.2606 502.704C87.898 502.043 87.7166 501.307 87.7166 500.496C87.7166 499.686 87.898 498.95 88.2606 498.288C88.6233 497.627 89.13 497.11 89.7806 496.736C90.4313 496.352 91.1673 496.16 91.9886 496.16C92.81 496.16 93.546 496.352 94.1966 496.736C94.8473 497.12 95.354 497.643 95.7166 498.304C96.0793 498.966 96.2606 499.696 96.2606 500.496C96.2606 501.307 96.0793 502.043 95.7166 502.704C95.354 503.366 94.8473 503.888 94.1966 504.272C93.546 504.646 92.81 504.832 91.9886 504.832ZM91.9886 503.216C92.4366 503.216 92.8526 503.11 93.2366 502.896C93.6206 502.672 93.9246 502.358 94.1486 501.952C94.3833 501.536 94.5006 501.051 94.5006 500.496C94.5006 499.942 94.3833 499.462 94.1486 499.056C93.9246 498.651 93.6206 498.342 93.2366 498.128C92.8526 497.904 92.4366 497.792 91.9886 497.792C91.5406 497.792 91.1246 497.904 90.7406 498.128C90.3566 498.342 90.0473 498.651 89.8126 499.056C89.5886 499.462 89.4766 499.942 89.4766 500.496C89.4766 501.051 89.5886 501.536 89.8126 501.952C90.0473 502.358 90.3566 502.672 90.7406 502.896C91.1246 503.11 91.5406 503.216 91.9886 503.216ZM97.7271 496.416H104.959V504.576H103.199V498.048H99.4871V504.576H97.7271V496.416ZM109.504 504.128L106.112 496.416H108.08L110.384 501.968H110.448L112.688 496.416H114.624L109.584 508.032H107.728L109.504 504.128ZM115.741 504.704C115.389 504.704 115.107 504.662 114.893 504.576L114.909 503.008C115.08 503.062 115.256 503.088 115.437 503.088C115.672 503.088 115.853 503.014 115.981 502.864C116.109 502.704 116.2 502.443 116.253 502.08C116.307 501.718 116.333 501.206 116.333 500.544V496.416H123.341V504.576H121.629V498.016H118.029V501.04C118.029 503.483 117.267 504.704 115.741 504.704ZM124.439 504.464L126.647 501.632L126.615 501.568C126.071 501.398 125.634 501.088 125.303 500.64C124.972 500.192 124.807 499.68 124.807 499.104C124.807 498.603 124.935 498.15 125.191 497.744C125.447 497.328 125.794 497.003 126.231 496.768C126.679 496.534 127.164 496.416 127.687 496.416H131.623V504.576H129.911V501.76H128.471L126.375 504.576H124.439V504.464ZM129.911 500.32V497.904H127.815C127.452 497.904 127.148 498.022 126.903 498.256C126.668 498.48 126.551 498.768 126.551 499.12C126.551 499.472 126.668 499.76 126.903 499.984C127.148 500.208 127.452 500.32 127.815 500.32H129.911ZM133.601 496.416H135.281V497.488H135.361C135.595 497.115 135.942 496.8 136.401 496.544C136.859 496.288 137.377 496.16 137.953 496.16C138.689 496.16 139.355 496.347 139.953 496.72C140.55 497.094 141.019 497.611 141.361 498.272C141.713 498.923 141.889 499.664 141.889 500.496C141.889 501.328 141.713 502.075 141.361 502.736C141.019 503.387 140.55 503.899 139.953 504.272C139.355 504.646 138.689 504.832 137.953 504.832C137.377 504.832 136.859 504.704 136.401 504.448C135.942 504.192 135.595 503.883 135.361 503.52H135.281L135.361 504.656V508.032H133.601V496.416ZM137.697 503.216C138.123 503.216 138.523 503.104 138.897 502.88C139.27 502.656 139.569 502.336 139.793 501.92C140.017 501.504 140.129 501.03 140.129 500.496C140.129 499.963 140.017 499.494 139.793 499.088C139.569 498.672 139.27 498.352 138.897 498.128C138.523 497.904 138.123 497.792 137.697 497.792C137.27 497.792 136.87 497.904 136.497 498.128C136.134 498.352 135.841 498.672 135.617 499.088C135.393 499.494 135.281 499.963 135.281 500.496C135.281 501.03 135.393 501.504 135.617 501.92C135.841 502.336 136.134 502.656 136.497 502.88C136.87 503.104 137.27 503.216 137.697 503.216ZM143.415 496.416H145.175V499.648H149.111V496.416H150.871V504.576H149.111V501.296H145.175V504.576H143.415V496.416ZM152.915 496.416H154.627V499.184H156.899C157.453 499.184 157.955 499.296 158.403 499.52C158.851 499.744 159.203 500.064 159.459 500.48C159.715 500.886 159.843 501.355 159.843 501.888C159.843 502.422 159.715 502.891 159.459 503.296C159.203 503.702 158.851 504.016 158.403 504.24C157.955 504.464 157.453 504.576 156.899 504.576H152.915V496.416ZM160.963 496.416H162.675V504.576H160.963V496.416ZM156.835 503.088C157.208 503.088 157.517 502.982 157.763 502.768C158.019 502.544 158.147 502.251 158.147 501.888C158.147 501.526 158.019 501.232 157.763 501.008C157.517 500.784 157.208 500.672 156.835 500.672H154.627V503.088H156.835ZM168.377 504.832C167.577 504.832 166.857 504.646 166.217 504.272C165.588 503.899 165.092 503.387 164.729 502.736C164.377 502.075 164.201 501.334 164.201 500.512C164.201 499.734 164.372 499.014 164.713 498.352C165.065 497.68 165.55 497.147 166.169 496.752C166.788 496.358 167.492 496.16 168.281 496.16C169.102 496.16 169.812 496.342 170.409 496.704C171.017 497.067 171.476 497.563 171.785 498.192C172.105 498.822 172.265 499.531 172.265 500.32C172.265 500.47 172.249 500.656 172.217 500.88H165.961C166.025 501.638 166.292 502.224 166.761 502.64C167.241 503.046 167.796 503.248 168.425 503.248C168.926 503.248 169.358 503.136 169.721 502.912C170.094 502.678 170.393 502.363 170.617 501.968L172.105 502.672C171.721 503.344 171.22 503.872 170.601 504.256C169.982 504.64 169.241 504.832 168.377 504.832ZM170.473 499.536C170.452 499.248 170.361 498.966 170.201 498.688C170.041 498.4 169.796 498.16 169.465 497.968C169.145 497.776 168.75 497.68 168.281 497.68C167.716 497.68 167.236 497.851 166.841 498.192C166.457 498.523 166.19 498.971 166.041 499.536H170.473ZM179.634 498.048H177.042V496.416H184.002V498.048H181.394V504.576H179.634V498.048ZM189.049 504.832C188.249 504.832 187.529 504.646 186.889 504.272C186.26 503.899 185.764 503.387 185.401 502.736C185.049 502.075 184.873 501.334 184.873 500.512C184.873 499.734 185.044 499.014 185.385 498.352C185.737 497.68 186.222 497.147 186.841 496.752C187.46 496.358 188.164 496.16 188.953 496.16C189.774 496.16 190.484 496.342 191.081 496.704C191.689 497.067 192.148 497.563 192.457 498.192C192.777 498.822 192.937 499.531 192.937 500.32C192.937 500.47 192.921 500.656 192.889 500.88H186.633C186.697 501.638 186.964 502.224 187.433 502.64C187.913 503.046 188.468 503.248 189.097 503.248C189.598 503.248 190.03 503.136 190.393 502.912C190.766 502.678 191.065 502.363 191.289 501.968L192.777 502.672C192.393 503.344 191.892 503.872 191.273 504.256C190.654 504.64 189.913 504.832 189.049 504.832ZM191.145 499.536C191.124 499.248 191.033 498.966 190.873 498.688C190.713 498.4 190.468 498.16 190.137 497.968C189.817 497.776 189.422 497.68 188.953 497.68C188.388 497.68 187.908 497.851 187.513 498.192C187.129 498.523 186.862 498.971 186.713 499.536H191.145ZM194.835 504.704C194.483 504.704 194.2 504.662 193.987 504.576L194.003 503.008C194.174 503.062 194.35 503.088 194.531 503.088C194.766 503.088 194.947 503.014 195.075 502.864C195.203 502.704 195.294 502.443 195.347 502.08C195.4 501.718 195.427 501.206 195.427 500.544V496.416H202.435V504.576H200.723V498.016H197.123V501.04C197.123 503.483 196.36 504.704 194.835 504.704ZM208.143 504.832C207.343 504.832 206.623 504.646 205.983 504.272C205.353 503.899 204.857 503.387 204.495 502.736C204.143 502.075 203.967 501.334 203.967 500.512C203.967 499.734 204.137 499.014 204.479 498.352C204.831 497.68 205.316 497.147 205.935 496.752C206.553 496.358 207.257 496.16 208.047 496.16C208.868 496.16 209.577 496.342 210.175 496.704C210.783 497.067 211.241 497.563 211.551 498.192C211.871 498.822 212.031 499.531 212.031 500.32C212.031 500.47 212.015 500.656 211.983 500.88H205.727C205.791 501.638 206.057 502.224 206.527 502.64C207.007 503.046 207.561 503.248 208.191 503.248C208.692 503.248 209.124 503.136 209.487 502.912C209.86 502.678 210.159 502.363 210.383 501.968L211.871 502.672C211.487 503.344 210.985 503.872 210.367 504.256C209.748 504.64 209.007 504.832 208.143 504.832ZM210.239 499.536C210.217 499.248 210.127 498.966 209.967 498.688C209.807 498.4 209.561 498.16 209.231 497.968C208.911 497.776 208.516 497.68 208.047 497.68C207.481 497.68 207.001 497.851 206.607 498.192C206.223 498.523 205.956 498.971 205.807 499.536H210.239ZM213.633 496.416H215.393V500.016H215.489L218.529 496.416H220.673V496.512L217.377 500.288L220.833 504.48V504.576H218.705L215.489 500.576H215.393V504.576H213.633V496.416ZM224.318 504.832C223.732 504.832 223.209 504.72 222.75 504.496C222.292 504.262 221.934 503.936 221.678 503.52C221.422 503.094 221.294 502.614 221.294 502.08C221.294 501.238 221.609 500.571 222.238 500.08C222.878 499.59 223.684 499.344 224.654 499.344C225.134 499.344 225.566 499.392 225.95 499.488C226.334 499.574 226.638 499.67 226.862 499.776V499.36C226.862 498.859 226.676 498.454 226.302 498.144C225.929 497.824 225.449 497.664 224.862 497.664C224.446 497.664 224.052 497.755 223.678 497.936C223.316 498.118 223.022 498.368 222.798 498.688L221.566 497.744C221.929 497.243 222.398 496.854 222.974 496.576C223.55 496.299 224.19 496.16 224.894 496.16C226.078 496.16 226.99 496.454 227.63 497.04C228.27 497.616 228.59 498.432 228.59 499.488V504.576H226.862V503.6H226.782C226.548 503.952 226.217 504.246 225.79 504.48C225.364 504.715 224.873 504.832 224.318 504.832ZM224.622 503.376C225.049 503.376 225.433 503.275 225.774 503.072C226.116 502.87 226.382 502.598 226.574 502.256C226.766 501.915 226.862 501.547 226.862 501.152C226.617 501.014 226.329 500.902 225.998 500.816C225.678 500.731 225.342 500.688 224.99 500.688C224.329 500.688 223.844 500.822 223.534 501.088C223.225 501.344 223.07 501.68 223.07 502.096C223.07 502.47 223.214 502.779 223.502 503.024C223.79 503.259 224.164 503.376 224.622 503.376ZM230.508 496.416H232.268V499.648H236.204V496.416H237.964V504.576H236.204V501.296H232.268V504.576H230.508V496.416ZM242.49 504.832C241.904 504.832 241.381 504.72 240.922 504.496C240.464 504.262 240.106 503.936 239.85 503.52C239.594 503.094 239.466 502.614 239.466 502.08C239.466 501.238 239.781 500.571 240.41 500.08C241.05 499.59 241.856 499.344 242.826 499.344C243.306 499.344 243.738 499.392 244.122 499.488C244.506 499.574 244.81 499.67 245.034 499.776V499.36C245.034 498.859 244.848 498.454 244.474 498.144C244.101 497.824 243.621 497.664 243.034 497.664C242.618 497.664 242.224 497.755 241.85 497.936C241.488 498.118 241.194 498.368 240.97 498.688L239.738 497.744C240.101 497.243 240.57 496.854 241.146 496.576C241.722 496.299 242.362 496.16 243.066 496.16C244.25 496.16 245.162 496.454 245.802 497.04C246.442 497.616 246.762 498.432 246.762 499.488V504.576H245.034V503.6H244.954C244.72 503.952 244.389 504.246 243.962 504.48C243.536 504.715 243.045 504.832 242.49 504.832ZM242.794 503.376C243.221 503.376 243.605 503.275 243.946 503.072C244.288 502.87 244.554 502.598 244.746 502.256C244.938 501.915 245.034 501.547 245.034 501.152C244.789 501.014 244.501 500.902 244.17 500.816C243.85 500.731 243.514 500.688 243.162 500.688C242.501 500.688 242.016 500.822 241.706 501.088C241.397 501.344 241.242 501.68 241.242 502.096C241.242 502.47 241.386 502.779 241.674 503.024C241.962 503.259 242.336 503.376 242.794 503.376ZM249.132 504.704C248.78 504.704 248.497 504.662 248.284 504.576L248.3 503.008C248.471 503.062 248.647 503.088 248.828 503.088C249.063 503.088 249.244 503.014 249.372 502.864C249.5 502.704 249.591 502.443 249.644 502.08C249.697 501.718 249.724 501.206 249.724 500.544V496.416H256.732V504.576H255.02V498.016H251.42V501.04C251.42 503.483 250.657 504.704 249.132 504.704ZM258.79 496.416H260.502V499.184H262.774C263.328 499.184 263.83 499.296 264.278 499.52C264.726 499.744 265.078 500.064 265.334 500.48C265.59 500.886 265.718 501.355 265.718 501.888C265.718 502.422 265.59 502.891 265.334 503.296C265.078 503.702 264.726 504.016 264.278 504.24C263.83 504.464 263.328 504.576 262.774 504.576H258.79V496.416ZM266.838 496.416H268.55V504.576H266.838V496.416ZM262.71 503.088C263.083 503.088 263.392 502.982 263.638 502.768C263.894 502.544 264.022 502.251 264.022 501.888C264.022 501.526 263.894 501.232 263.638 501.008C263.392 500.784 263.083 500.672 262.71 500.672H260.502V503.088H262.71Z" fill="#202124"/>
<rect x="76" y="527.173" width="327" height="79.1031" rx="24" fill="white"/>
<path d="M161.23 550.208H163.51L166.6 558.353H166.69L169.78 550.208H172.06V560.948H170.395V554.933L170.485 552.998H170.395L167.32 560.948H165.97L162.895 552.998H162.805L162.895 554.933V560.948H161.23V550.208ZM176.426 561.188C175.876 561.188 175.386 561.083 174.956 560.873C174.526 560.653 174.191 560.348 173.951 559.958C173.711 559.558 173.591 559.108 173.591 558.608C173.591 557.818 173.886 557.193 174.476 556.733C175.076 556.273 175.831 556.043 176.741 556.043C177.191 556.043 177.596 556.088 177.956 556.178C178.316 556.258 178.601 556.348 178.811 556.448V556.058C178.811 555.588 178.636 555.208 178.286 554.918C177.936 554.618 177.486 554.468 176.936 554.468C176.546 554.468 176.176 554.553 175.826 554.723C175.486 554.893 175.211 555.128 175.001 555.428L173.846 554.543C174.186 554.073 174.626 553.708 175.166 553.448C175.706 553.188 176.306 553.058 176.966 553.058C178.076 553.058 178.931 553.333 179.531 553.883C180.131 554.423 180.431 555.188 180.431 556.178V560.948H178.811V560.033H178.736C178.516 560.363 178.206 560.638 177.806 560.858C177.406 561.078 176.946 561.188 176.426 561.188ZM176.711 559.823C177.111 559.823 177.471 559.728 177.791 559.538C178.111 559.348 178.361 559.093 178.541 558.773C178.721 558.453 178.811 558.108 178.811 557.738C178.581 557.608 178.311 557.503 178.001 557.423C177.701 557.343 177.386 557.303 177.056 557.303C176.436 557.303 175.981 557.428 175.691 557.678C175.401 557.918 175.256 558.233 175.256 558.623C175.256 558.973 175.391 559.263 175.661 559.493C175.931 559.713 176.281 559.823 176.711 559.823ZM184.12 554.828H181.69V553.298H188.215V554.828H185.77V560.948H184.12V554.828ZM194.083 558.173C193.623 558.443 193.008 558.578 192.238 558.578C191.638 558.578 191.108 558.453 190.648 558.203C190.198 557.953 189.848 557.608 189.598 557.168C189.348 556.728 189.223 556.228 189.223 555.668V553.298H190.903V555.608C190.903 556.068 191.048 556.428 191.338 556.688C191.628 556.948 192.023 557.078 192.523 557.078C192.843 557.078 193.138 557.043 193.408 556.973C193.678 556.893 193.903 556.778 194.083 556.628V553.298H195.733V560.948H194.083V558.173ZM197.849 553.463V550.208H199.529V553.463L199.364 557.453H198.014L197.849 553.463ZM198.689 561.038C198.369 561.038 198.094 560.928 197.864 560.708C197.644 560.478 197.534 560.203 197.534 559.883C197.534 559.563 197.644 559.293 197.864 559.073C198.094 558.853 198.369 558.743 198.689 558.743C199.009 558.743 199.279 558.853 199.499 559.073C199.729 559.293 199.844 559.563 199.844 559.883C199.844 560.203 199.729 560.478 199.499 560.708C199.279 560.928 199.009 561.038 198.689 561.038ZM215.691 555.578C215.691 556.368 215.491 557.088 215.091 557.738C214.701 558.378 214.151 558.903 213.441 559.313C212.731 559.713 211.911 559.963 210.981 560.063V561.668H209.301V560.063C208.371 559.963 207.551 559.713 206.841 559.313C206.131 558.903 205.576 558.378 205.176 557.738C204.786 557.088 204.591 556.368 204.591 555.578C204.591 554.788 204.786 554.073 205.176 553.433C205.576 552.783 206.131 552.258 206.841 551.858C207.551 551.448 208.371 551.193 209.301 551.093V549.488H210.981V551.093C211.911 551.193 212.731 551.448 213.441 551.858C214.151 552.258 214.701 552.783 215.091 553.433C215.491 554.073 215.691 554.788 215.691 555.578ZM206.286 555.578C206.286 556.368 206.556 557.028 207.096 557.558C207.636 558.078 208.371 558.398 209.301 558.518V552.638C208.371 552.758 207.636 553.083 207.096 553.613C206.556 554.133 206.286 554.788 206.286 555.578ZM210.981 558.518C211.911 558.388 212.646 558.063 213.186 557.543C213.726 557.023 213.996 556.368 213.996 555.578C213.996 554.788 213.726 554.133 213.186 553.613C212.646 553.093 211.911 552.768 210.981 552.638V558.518ZM219.535 560.528L216.355 553.298H218.2L220.36 558.503H220.42L222.52 553.298H224.335L219.61 564.188H217.87L219.535 560.528ZM227.303 554.828H224.873V553.298H231.398V554.828H228.953V560.948H227.303V554.828ZM236.681 561.188C235.911 561.188 235.221 561.013 234.611 560.663C234.011 560.303 233.536 559.748 233.186 558.998C232.836 558.248 232.661 557.303 232.661 556.163C232.661 554.963 232.796 553.993 233.066 553.253C233.336 552.513 233.711 551.923 234.191 551.483C234.551 551.153 234.986 550.898 235.496 550.718C236.006 550.528 236.556 550.433 237.146 550.433C237.516 550.433 237.796 550.418 237.986 550.388C238.176 550.348 238.311 550.298 238.391 550.238C238.471 550.168 238.531 550.073 238.571 549.953H240.101C239.981 550.673 239.701 551.168 239.261 551.438C238.821 551.708 238.156 551.843 237.266 551.843C236.776 551.843 236.376 551.903 236.066 552.023C235.766 552.133 235.501 552.288 235.271 552.488C234.721 552.988 234.401 553.623 234.311 554.393H234.401C234.661 554.013 235.016 553.698 235.466 553.448C235.926 553.188 236.471 553.058 237.101 553.058C237.771 553.058 238.381 553.243 238.931 553.613C239.481 553.973 239.911 554.468 240.221 555.098C240.531 555.718 240.686 556.393 240.686 557.123C240.686 557.883 240.516 558.573 240.176 559.193C239.836 559.813 239.361 560.303 238.751 560.663C238.141 561.013 237.451 561.188 236.681 561.188ZM236.681 559.673C237.101 559.673 237.491 559.573 237.851 559.373C238.211 559.163 238.496 558.868 238.706 558.488C238.926 558.098 239.036 557.643 239.036 557.123C239.036 556.603 238.926 556.153 238.706 555.773C238.496 555.393 238.211 555.103 237.851 554.903C237.491 554.693 237.101 554.588 236.681 554.588C236.261 554.588 235.871 554.693 235.511 554.903C235.161 555.103 234.876 555.393 234.656 555.773C234.446 556.153 234.341 556.603 234.341 557.123C234.341 557.643 234.446 558.098 234.656 558.488C234.876 558.868 235.161 559.163 235.511 559.373C235.871 559.573 236.261 559.673 236.681 559.673ZM245.653 561.188C244.883 561.188 244.193 561.013 243.583 560.663C242.973 560.303 242.498 559.813 242.158 559.193C241.818 558.573 241.648 557.883 241.648 557.123C241.648 556.363 241.818 555.673 242.158 555.053C242.498 554.433 242.973 553.948 243.583 553.598C244.193 553.238 244.883 553.058 245.653 553.058C246.423 553.058 247.113 553.238 247.723 553.598C248.333 553.958 248.808 554.448 249.148 555.068C249.488 555.688 249.658 556.373 249.658 557.123C249.658 557.883 249.488 558.573 249.148 559.193C248.808 559.813 248.333 560.303 247.723 560.663C247.113 561.013 246.423 561.188 245.653 561.188ZM245.653 559.673C246.073 559.673 246.463 559.573 246.823 559.373C247.183 559.163 247.468 558.868 247.678 558.488C247.898 558.098 248.008 557.643 248.008 557.123C248.008 556.603 247.898 556.153 247.678 555.773C247.468 555.393 247.183 555.103 246.823 554.903C246.463 554.693 246.073 554.588 245.653 554.588C245.233 554.588 244.843 554.693 244.483 554.903C244.123 555.103 243.833 555.393 243.613 555.773C243.403 556.153 243.298 556.603 243.298 557.123C243.298 557.643 243.403 558.098 243.613 558.488C243.833 558.868 244.123 559.163 244.483 559.373C244.843 559.573 245.233 559.673 245.653 559.673ZM251.457 561.068C251.127 561.068 250.862 561.028 250.662 560.948L250.677 559.478C250.837 559.528 251.002 559.553 251.172 559.553C251.392 559.553 251.562 559.483 251.682 559.343C251.802 559.193 251.887 558.948 251.937 558.608C251.987 558.268 252.012 557.788 252.012 557.168V553.298H258.582V560.948H256.977V554.798H253.602V557.633C253.602 559.923 252.887 561.068 251.457 561.068ZM266.276 552.923L264.596 554.138L263.756 552.863L266.771 550.688H267.926V560.948H266.276V552.923Z" fill="#202124"/>
<path d="M165.46 582.898C164.559 582.898 163.735 582.686 162.99 582.261C162.245 581.837 161.66 581.252 161.235 580.506C160.81 579.761 160.598 578.938 160.598 578.036C160.598 577.135 160.81 576.312 161.235 575.566C161.66 574.821 162.245 574.236 162.99 573.811C163.735 573.387 164.559 573.174 165.46 573.174C166.162 573.174 166.799 573.304 167.371 573.564C167.952 573.824 168.463 574.201 168.905 574.695L167.865 575.696C167.544 575.315 167.189 575.033 166.799 574.851C166.409 574.661 165.963 574.565 165.46 574.565C164.836 574.565 164.264 574.708 163.744 574.994C163.233 575.28 162.825 575.688 162.522 576.216C162.219 576.736 162.067 577.343 162.067 578.036C162.067 578.73 162.219 579.341 162.522 579.869C162.825 580.389 163.233 580.792 163.744 581.078C164.264 581.364 164.836 581.507 165.46 581.507C166.5 581.507 167.384 581.074 168.112 580.207L169.165 581.221C168.714 581.75 168.173 582.162 167.54 582.456C166.907 582.751 166.214 582.898 165.46 582.898ZM173.332 582.898C172.682 582.898 172.097 582.747 171.577 582.443C171.065 582.14 170.662 581.724 170.368 581.195C170.082 580.658 169.939 580.056 169.939 579.388C169.939 578.756 170.077 578.171 170.355 577.633C170.641 577.087 171.035 576.654 171.538 576.333C172.04 576.013 172.612 575.852 173.254 575.852C173.921 575.852 174.497 576 174.983 576.294C175.477 576.589 175.849 576.992 176.101 577.503C176.361 578.015 176.491 578.591 176.491 579.232C176.491 579.354 176.478 579.505 176.452 579.687H171.369C171.421 580.303 171.637 580.779 172.019 581.117C172.409 581.447 172.859 581.611 173.371 581.611C173.778 581.611 174.129 581.52 174.424 581.338C174.727 581.148 174.97 580.892 175.152 580.571L176.361 581.143C176.049 581.689 175.641 582.118 175.139 582.43C174.636 582.742 174.034 582.898 173.332 582.898ZM175.035 578.595C175.017 578.361 174.944 578.132 174.814 577.906C174.684 577.672 174.484 577.477 174.216 577.321C173.956 577.165 173.635 577.087 173.254 577.087C172.794 577.087 172.404 577.226 172.084 577.503C171.772 577.772 171.555 578.136 171.434 578.595H175.035ZM177.741 576.06H179.106V576.931H179.171C179.362 576.628 179.643 576.372 180.016 576.164C180.389 575.956 180.809 575.852 181.277 575.852C181.875 575.852 182.417 576.004 182.902 576.307C183.387 576.611 183.769 577.031 184.046 577.568C184.332 578.097 184.475 578.699 184.475 579.375C184.475 580.051 184.332 580.658 184.046 581.195C183.769 581.724 183.387 582.14 182.902 582.443C182.417 582.747 181.875 582.898 181.277 582.898C180.809 582.898 180.389 582.794 180.016 582.586C179.643 582.378 179.362 582.127 179.171 581.832H179.106L179.171 582.755V585.498H177.741V576.06ZM181.069 581.585C181.416 581.585 181.741 581.494 182.044 581.312C182.347 581.13 182.59 580.87 182.772 580.532C182.954 580.194 183.045 579.809 183.045 579.375C183.045 578.942 182.954 578.561 182.772 578.231C182.59 577.893 182.347 577.633 182.044 577.451C181.741 577.269 181.416 577.178 181.069 577.178C180.722 577.178 180.397 577.269 180.094 577.451C179.799 577.633 179.561 577.893 179.379 578.231C179.197 578.561 179.106 578.942 179.106 579.375C179.106 579.809 179.197 580.194 179.379 580.532C179.561 580.87 179.799 581.13 180.094 581.312C180.397 581.494 180.722 581.585 181.069 581.585ZM185.715 576.06H187.145V579.297L187.08 580.545H187.145L190.265 576.06H191.695V582.69H190.265V579.453L190.33 578.205H190.265L187.145 582.69H185.715V576.06ZM192.577 582.599L194.371 580.298L194.345 580.246C193.903 580.108 193.548 579.856 193.279 579.492C193.011 579.128 192.876 578.712 192.876 578.244C192.876 577.837 192.98 577.469 193.188 577.139C193.396 576.801 193.678 576.537 194.033 576.346C194.397 576.156 194.792 576.06 195.216 576.06H198.414V582.69H197.023V580.402H195.853L194.15 582.69H192.577V582.599ZM197.023 579.232V577.269H195.32C195.026 577.269 194.779 577.365 194.579 577.555C194.389 577.737 194.293 577.971 194.293 578.257C194.293 578.543 194.389 578.777 194.579 578.959C194.779 579.141 195.026 579.232 195.32 579.232H197.023ZM205.587 573.382H207.251L210.748 582.69H209.136L208.304 580.311H204.547L203.702 582.69H202.09L205.587 573.382ZM207.81 578.959L206.822 576.19L206.458 575.111H206.38L206.016 576.19L205.028 578.959H207.81ZM212.675 582.768C212.398 582.768 212.16 582.673 211.96 582.482C211.77 582.283 211.674 582.045 211.674 581.767C211.674 581.49 211.77 581.256 211.96 581.065C212.16 580.875 212.398 580.779 212.675 580.779C212.953 580.779 213.187 580.875 213.377 581.065C213.577 581.256 213.676 581.49 213.676 581.767C213.676 582.045 213.577 582.283 213.377 582.482C213.187 582.673 212.953 582.768 212.675 582.768ZM218.304 582.794C218.14 582.794 217.971 582.777 217.797 582.742V581.351C217.893 581.395 218.036 581.416 218.226 581.416C218.556 581.416 218.824 581.312 219.032 581.104C219.197 580.922 219.31 580.632 219.37 580.233C219.44 579.826 219.474 579.228 219.474 578.439V573.382H225.857V582.69H224.414V574.773H220.93V579.011C220.93 579.852 220.857 580.524 220.709 581.026C220.571 581.52 220.354 581.915 220.059 582.209C219.643 582.599 219.058 582.794 218.304 582.794ZM229.639 582.898C229.162 582.898 228.737 582.807 228.365 582.625C227.992 582.435 227.702 582.17 227.494 581.832C227.286 581.486 227.182 581.096 227.182 580.662C227.182 579.978 227.437 579.436 227.949 579.037C228.469 578.639 229.123 578.439 229.912 578.439C230.302 578.439 230.653 578.478 230.965 578.556C231.277 578.626 231.524 578.704 231.706 578.79V578.452C231.706 578.045 231.554 577.716 231.251 577.464C230.947 577.204 230.557 577.074 230.081 577.074C229.743 577.074 229.422 577.148 229.119 577.295C228.824 577.443 228.586 577.646 228.404 577.906L227.403 577.139C227.697 576.732 228.079 576.416 228.547 576.19C229.015 575.965 229.535 575.852 230.107 575.852C231.069 575.852 231.81 576.091 232.33 576.567C232.85 577.035 233.11 577.698 233.11 578.556V582.69H231.706V581.897H231.641C231.45 582.183 231.181 582.422 230.835 582.612C230.488 582.803 230.089 582.898 229.639 582.898ZM229.886 581.715C230.232 581.715 230.544 581.633 230.822 581.468C231.099 581.304 231.316 581.083 231.472 580.805C231.628 580.528 231.706 580.229 231.706 579.908C231.506 579.796 231.272 579.705 231.004 579.635C230.744 579.566 230.471 579.531 230.185 579.531C229.647 579.531 229.253 579.64 229.002 579.856C228.75 580.064 228.625 580.337 228.625 580.675C228.625 580.979 228.742 581.23 228.976 581.429C229.21 581.62 229.513 581.715 229.886 581.715ZM240.219 582.69H234.668V576.06H236.098V581.39H239.114V576.06H240.544V581.39H241.532V584.666H240.219V582.69ZM242.793 576.06H244.223V579.297L244.158 580.545H244.223L247.343 576.06H248.773V582.69H247.343V579.453L247.408 578.205H247.343L244.223 582.69H242.793V576.06ZM253.479 582.898C252.812 582.898 252.214 582.747 251.685 582.443C251.156 582.131 250.745 581.707 250.45 581.169C250.155 580.632 250.008 580.034 250.008 579.375C250.008 578.717 250.155 578.119 250.45 577.581C250.745 577.044 251.156 576.624 251.685 576.32C252.214 576.008 252.812 575.852 253.479 575.852C254.146 575.852 254.744 576.008 255.273 576.32C255.802 576.632 256.213 577.057 256.508 577.594C256.803 578.132 256.95 578.725 256.95 579.375C256.95 580.034 256.803 580.632 256.508 581.169C256.213 581.707 255.802 582.131 255.273 582.443C254.744 582.747 254.146 582.898 253.479 582.898ZM253.479 581.585C253.843 581.585 254.181 581.499 254.493 581.325C254.805 581.143 255.052 580.888 255.234 580.558C255.425 580.22 255.52 579.826 255.52 579.375C255.52 578.925 255.425 578.535 255.234 578.205C255.052 577.876 254.805 577.625 254.493 577.451C254.181 577.269 253.843 577.178 253.479 577.178C253.115 577.178 252.777 577.269 252.465 577.451C252.153 577.625 251.902 577.876 251.711 578.205C251.529 578.535 251.438 578.925 251.438 579.375C251.438 579.826 251.529 580.22 251.711 580.558C251.902 580.888 252.153 581.143 252.465 581.325C252.777 581.499 253.115 581.585 253.479 581.585ZM261.302 578.049H265.579V579.271H261.302V578.049ZM270.512 573.382H271.955V578.465L271.877 580.259H271.955L276.076 573.382H277.74V582.69H276.297V577.464L276.375 575.67H276.297L272.098 582.69H270.512V573.382ZM279.635 576.06H281.065V578.686H284.263V576.06H285.693V582.69H284.263V580.025H281.065V582.69H279.635V576.06ZM288.991 577.386H286.885V576.06H292.54V577.386H290.421V582.69H288.991V577.386ZM296.641 582.898C295.991 582.898 295.406 582.747 294.886 582.443C294.375 582.14 293.972 581.724 293.677 581.195C293.391 580.658 293.248 580.056 293.248 579.388C293.248 578.756 293.387 578.171 293.664 577.633C293.95 577.087 294.345 576.654 294.847 576.333C295.35 576.013 295.922 575.852 296.563 575.852C297.231 575.852 297.807 576 298.292 576.294C298.786 576.589 299.159 576.992 299.41 577.503C299.67 578.015 299.8 578.591 299.8 579.232C299.8 579.354 299.787 579.505 299.761 579.687H294.678C294.73 580.303 294.947 580.779 295.328 581.117C295.718 581.447 296.169 581.611 296.68 581.611C297.088 581.611 297.439 581.52 297.733 581.338C298.037 581.148 298.279 580.892 298.461 580.571L299.67 581.143C299.358 581.689 298.951 582.118 298.448 582.43C297.946 582.742 297.343 582.898 296.641 582.898ZM298.344 578.595C298.327 578.361 298.253 578.132 298.123 577.906C297.993 577.672 297.794 577.477 297.525 577.321C297.265 577.165 296.945 577.087 296.563 577.087C296.104 577.087 295.714 577.226 295.393 577.503C295.081 577.772 294.865 578.136 294.743 578.595H298.344ZM301.051 576.06H302.416V576.931H302.481C302.671 576.628 302.953 576.372 303.326 576.164C303.698 575.956 304.119 575.852 304.587 575.852C305.185 575.852 305.726 576.004 306.212 576.307C306.697 576.611 307.078 577.031 307.356 577.568C307.642 578.097 307.785 578.699 307.785 579.375C307.785 580.051 307.642 580.658 307.356 581.195C307.078 581.724 306.697 582.14 306.212 582.443C305.726 582.747 305.185 582.898 304.587 582.898C304.119 582.898 303.698 582.794 303.326 582.586C302.953 582.378 302.671 582.127 302.481 581.832H302.416L302.481 582.755V585.498H301.051V576.06ZM304.379 581.585C304.725 581.585 305.05 581.494 305.354 581.312C305.657 581.13 305.9 580.87 306.082 580.532C306.264 580.194 306.355 579.809 306.355 579.375C306.355 578.942 306.264 578.561 306.082 578.231C305.9 577.893 305.657 577.633 305.354 577.451C305.05 577.269 304.725 577.178 304.379 577.178C304.032 577.178 303.707 577.269 303.404 577.451C303.109 577.633 302.871 577.893 302.689 578.231C302.507 578.561 302.416 578.942 302.416 579.375C302.416 579.809 302.507 580.194 302.689 580.532C302.871 580.87 303.109 581.13 303.404 581.312C303.707 581.494 304.032 581.585 304.379 581.585Z" fill="#9FA3B0"/>
<rect x="96" y="542.993" width="48" height="47.4619" rx="14" fill="#353535"/>
<rect x="76" y="618.142" width="327" height="79.1031" rx="24" fill="white"/>
<path d="M161.23 641.177H169.225V651.917H167.545V642.782H162.91V651.917H161.23V641.177ZM174.899 652.157C174.149 652.157 173.474 651.982 172.874 651.632C172.284 651.282 171.819 650.802 171.479 650.192C171.149 649.572 170.984 648.877 170.984 648.107C170.984 647.377 171.144 646.702 171.464 646.082C171.794 645.452 172.249 644.952 172.829 644.582C173.409 644.212 174.069 644.027 174.809 644.027C175.579 644.027 176.244 644.197 176.804 644.537C177.374 644.877 177.804 645.342 178.094 645.932C178.394 646.522 178.544 647.187 178.544 647.927C178.544 648.067 178.529 648.242 178.499 648.452H172.634C172.694 649.162 172.944 649.712 173.384 650.102C173.834 650.482 174.354 650.672 174.944 650.672C175.414 650.672 175.819 650.567 176.159 650.357C176.509 650.137 176.789 649.842 176.999 649.472L178.394 650.132C178.034 650.762 177.564 651.257 176.984 651.617C176.404 651.977 175.709 652.157 174.899 652.157ZM176.864 647.192C176.844 646.922 176.759 646.657 176.609 646.397C176.459 646.127 176.229 645.902 175.919 645.722C175.619 645.542 175.249 645.452 174.809 645.452C174.279 645.452 173.829 645.612 173.459 645.932C173.099 646.242 172.849 646.662 172.709 647.192H176.864ZM179.987 644.267H181.562V645.272H181.637C181.857 644.922 182.182 644.627 182.612 644.387C183.042 644.147 183.527 644.027 184.067 644.027C184.757 644.027 185.382 644.202 185.942 644.552C186.502 644.902 186.942 645.387 187.262 646.007C187.592 646.617 187.757 647.312 187.757 648.092C187.757 648.872 187.592 649.572 187.262 650.192C186.942 650.802 186.502 651.282 185.942 651.632C185.382 651.982 184.757 652.157 184.067 652.157C183.527 652.157 183.042 652.037 182.612 651.797C182.182 651.557 181.857 651.267 181.637 650.927H181.562L181.637 651.992V655.157H179.987V644.267ZM183.827 650.642C184.227 650.642 184.602 650.537 184.952 650.327C185.302 650.117 185.582 649.817 185.792 649.427C186.002 649.037 186.107 648.592 186.107 648.092C186.107 647.592 186.002 647.152 185.792 646.772C185.582 646.382 185.302 646.082 184.952 645.872C184.602 645.662 184.227 645.557 183.827 645.557C183.427 645.557 183.052 645.662 182.702 645.872C182.362 646.082 182.087 646.382 181.877 646.772C181.667 647.152 181.562 647.592 181.562 648.092C181.562 648.592 181.667 649.037 181.877 649.427C182.087 649.817 182.362 650.117 182.702 650.327C183.052 650.537 183.427 650.642 183.827 650.642ZM189.188 644.267H193.013C193.453 644.267 193.853 644.357 194.213 644.537C194.573 644.707 194.853 644.947 195.053 645.257C195.263 645.557 195.368 645.892 195.368 646.262C195.368 646.652 195.278 646.992 195.098 647.282C194.928 647.572 194.698 647.787 194.408 647.927V648.017C194.788 648.167 195.088 648.392 195.308 648.692C195.528 648.992 195.638 649.337 195.638 649.727C195.638 650.157 195.523 650.542 195.293 650.882C195.073 651.212 194.778 651.467 194.408 651.647C194.038 651.827 193.643 651.917 193.223 651.917H189.188V644.267ZM192.833 647.372C193.093 647.372 193.308 647.292 193.478 647.132C193.658 646.962 193.748 646.752 193.748 646.502C193.748 646.252 193.658 646.047 193.478 645.887C193.308 645.717 193.093 645.632 192.833 645.632H190.793V647.372H192.833ZM193.058 650.522C193.338 650.522 193.573 650.432 193.763 650.252C193.953 650.072 194.048 649.847 194.048 649.577C194.048 649.307 193.953 649.082 193.763 648.902C193.573 648.712 193.338 648.617 193.058 648.617H190.793V650.522H193.058ZM197.068 644.267H198.673V646.862H200.803C201.323 646.862 201.793 646.967 202.213 647.177C202.633 647.387 202.963 647.687 203.203 648.077C203.443 648.457 203.563 648.897 203.563 649.397C203.563 649.897 203.443 650.337 203.203 650.717C202.963 651.097 202.633 651.392 202.213 651.602C201.793 651.812 201.323 651.917 200.803 651.917H197.068V644.267ZM204.613 644.267H206.218V651.917H204.613V644.267ZM200.743 650.522C201.093 650.522 201.383 650.422 201.613 650.222C201.853 650.012 201.973 649.737 201.973 649.397C201.973 649.057 201.853 648.782 201.613 648.572C201.383 648.362 201.093 648.257 200.743 648.257H198.673V650.522H200.743ZM208.143 644.267H209.793V648.002L209.718 649.442H209.793L213.393 644.267H215.043V651.917H213.393V648.182L213.468 646.742H213.393L209.793 651.917H208.143V644.267ZM211.608 642.872C211.268 642.872 210.943 642.787 210.633 642.617C210.323 642.447 210.073 642.212 209.883 641.912C209.703 641.612 209.613 641.282 209.613 640.922H210.858C210.858 641.132 210.923 641.317 211.053 641.477C211.193 641.627 211.378 641.702 211.608 641.702C211.828 641.702 212.003 641.627 212.133 641.477C212.273 641.317 212.343 641.132 212.343 640.922H213.558C213.558 641.292 213.468 641.627 213.288 641.927C213.108 642.217 212.868 642.447 212.568 642.617C212.268 642.787 211.948 642.872 211.608 642.872ZM220.477 644.267H222.127V647.642H222.217L225.067 644.267H227.077V644.357L223.987 647.897L227.227 651.827V651.917H225.232L222.217 648.167H222.127V651.917H220.477V644.267ZM230.494 652.157C229.944 652.157 229.454 652.052 229.024 651.842C228.594 651.622 228.259 651.317 228.019 650.927C227.779 650.527 227.659 650.077 227.659 649.577C227.659 648.787 227.954 648.162 228.544 647.702C229.144 647.242 229.899 647.012 230.809 647.012C231.259 647.012 231.664 647.057 232.024 647.147C232.384 647.227 232.669 647.317 232.879 647.417V647.027C232.879 646.557 232.704 646.177 232.354 645.887C232.004 645.587 231.554 645.437 231.004 645.437C230.614 645.437 230.244 645.522 229.894 645.692C229.554 645.862 229.279 646.097 229.069 646.397L227.914 645.512C228.254 645.042 228.694 644.677 229.234 644.417C229.774 644.157 230.374 644.027 231.034 644.027C232.144 644.027 232.999 644.302 233.599 644.852C234.199 645.392 234.499 646.157 234.499 647.147V651.917H232.879V651.002H232.804C232.584 651.332 232.274 651.607 231.874 651.827C231.474 652.047 231.014 652.157 230.494 652.157ZM230.779 650.792C231.179 650.792 231.539 650.697 231.859 650.507C232.179 650.317 232.429 650.062 232.609 649.742C232.789 649.422 232.879 649.077 232.879 648.707C232.649 648.577 232.379 648.472 232.069 648.392C231.769 648.312 231.454 648.272 231.124 648.272C230.504 648.272 230.049 648.397 229.759 648.647C229.469 648.887 229.324 649.202 229.324 649.592C229.324 649.942 229.459 650.232 229.729 650.462C229.999 650.682 230.349 650.792 230.779 650.792ZM236.297 644.267H237.947V647.297H241.637V644.267H243.287V651.917H241.637V648.842H237.947V651.917H236.297V644.267ZM247.53 652.157C246.98 652.157 246.49 652.052 246.06 651.842C245.63 651.622 245.295 651.317 245.055 650.927C244.815 650.527 244.695 650.077 244.695 649.577C244.695 648.787 244.99 648.162 245.58 647.702C246.18 647.242 246.935 647.012 247.845 647.012C248.295 647.012 248.7 647.057 249.06 647.147C249.42 647.227 249.705 647.317 249.915 647.417V647.027C249.915 646.557 249.74 646.177 249.39 645.887C249.04 645.587 248.59 645.437 248.04 645.437C247.65 645.437 247.28 645.522 246.93 645.692C246.59 645.862 246.315 646.097 246.105 646.397L244.95 645.512C245.29 645.042 245.73 644.677 246.27 644.417C246.81 644.157 247.41 644.027 248.07 644.027C249.18 644.027 250.035 644.302 250.635 644.852C251.235 645.392 251.535 646.157 251.535 647.147V651.917H249.915V651.002H249.84C249.62 651.332 249.31 651.607 248.91 651.827C248.51 652.047 248.05 652.157 247.53 652.157ZM247.815 650.792C248.215 650.792 248.575 650.697 248.895 650.507C249.215 650.317 249.465 650.062 249.645 649.742C249.825 649.422 249.915 649.077 249.915 648.707C249.685 648.577 249.415 648.472 249.105 648.392C248.805 648.312 248.49 648.272 248.16 648.272C247.54 648.272 247.085 648.397 246.795 648.647C246.505 648.887 246.36 649.202 246.36 649.592C246.36 649.942 246.495 650.232 246.765 650.462C247.035 650.682 247.385 650.792 247.815 650.792ZM253.757 652.037C253.427 652.037 253.162 651.997 252.962 651.917L252.977 650.447C253.137 650.497 253.302 650.522 253.472 650.522C253.692 650.522 253.862 650.452 253.982 650.312C254.102 650.162 254.187 649.917 254.237 649.577C254.287 649.237 254.312 648.757 254.312 648.137V644.267H260.882V651.917H259.277V645.767H255.902V648.602C255.902 650.892 255.187 652.037 253.757 652.037Z" fill="#202124"/>
<path d="M161.066 664.351H164.563C165.057 664.351 165.512 664.46 165.928 664.676C166.353 664.893 166.691 665.192 166.942 665.573C167.193 665.955 167.319 666.375 167.319 666.834C167.319 667.294 167.202 667.692 166.968 668.03C166.743 668.368 166.444 668.624 166.071 668.797V668.875C166.539 669.04 166.916 669.313 167.202 669.694C167.497 670.076 167.644 670.522 167.644 671.033C167.644 671.545 167.51 672 167.241 672.398C166.981 672.797 166.626 673.109 166.175 673.334C165.733 673.551 165.248 673.659 164.719 673.659H161.066V664.351ZM164.498 668.251C164.914 668.251 165.248 668.121 165.499 667.861C165.759 667.601 165.889 667.302 165.889 666.964C165.889 666.626 165.763 666.332 165.512 666.08C165.269 665.82 164.949 665.69 164.55 665.69H162.522V668.251H164.498ZM164.719 672.307C165.161 672.307 165.512 672.169 165.772 671.891C166.041 671.614 166.175 671.293 166.175 670.929C166.175 670.557 166.036 670.236 165.759 669.967C165.49 669.69 165.126 669.551 164.667 669.551H162.522V672.307H164.719ZM168.943 667.029H170.308V667.9H170.373C170.564 667.597 170.845 667.341 171.218 667.133C171.591 666.925 172.011 666.821 172.479 666.821C173.077 666.821 173.619 666.973 174.104 667.276C174.589 667.58 174.971 668 175.248 668.537C175.534 669.066 175.677 669.668 175.677 670.344C175.677 671.02 175.534 671.627 175.248 672.164C174.971 672.693 174.589 673.109 174.104 673.412C173.619 673.716 173.077 673.867 172.479 673.867C172.011 673.867 171.591 673.763 171.218 673.555C170.845 673.347 170.564 673.096 170.373 672.801H170.308L170.373 673.724V676.467H168.943V667.029ZM172.271 672.554C172.618 672.554 172.943 672.463 173.246 672.281C173.549 672.099 173.792 671.839 173.974 671.501C174.156 671.163 174.247 670.778 174.247 670.344C174.247 669.911 174.156 669.53 173.974 669.2C173.792 668.862 173.549 668.602 173.246 668.42C172.943 668.238 172.618 668.147 172.271 668.147C171.924 668.147 171.599 668.238 171.296 668.42C171.001 668.602 170.763 668.862 170.581 669.2C170.399 669.53 170.308 669.911 170.308 670.344C170.308 670.778 170.399 671.163 170.581 671.501C170.763 671.839 171.001 672.099 171.296 672.281C171.599 672.463 171.924 672.554 172.271 672.554ZM180.009 673.867C179.359 673.867 178.774 673.716 178.254 673.412C177.743 673.109 177.34 672.693 177.045 672.164C176.759 671.627 176.616 671.025 176.616 670.357C176.616 669.725 176.755 669.14 177.032 668.602C177.318 668.056 177.713 667.623 178.215 667.302C178.718 666.982 179.29 666.821 179.931 666.821C180.599 666.821 181.175 666.969 181.66 667.263C182.154 667.558 182.527 667.961 182.778 668.472C183.038 668.984 183.168 669.56 183.168 670.201C183.168 670.323 183.155 670.474 183.129 670.656H178.046C178.098 671.272 178.315 671.748 178.696 672.086C179.086 672.416 179.537 672.58 180.048 672.58C180.456 672.58 180.807 672.489 181.101 672.307C181.405 672.117 181.647 671.861 181.829 671.54L183.038 672.112C182.726 672.658 182.319 673.087 181.816 673.399C181.314 673.711 180.711 673.867 180.009 673.867ZM181.712 669.564C181.695 669.33 181.621 669.101 181.491 668.875C181.361 668.641 181.162 668.446 180.893 668.29C180.633 668.134 180.313 668.056 179.931 668.056C179.472 668.056 179.082 668.195 178.761 668.472C178.449 668.741 178.233 669.105 178.111 669.564H181.712ZM184.458 667.029H186.161L188.228 671.02H188.293L190.334 667.029H192.05V673.659H190.646V670.5L190.724 669.252H190.646L188.761 672.827H187.76L185.862 669.252H185.784L185.862 670.5V673.659H184.458V667.029ZM192.92 673.568L194.714 671.267L194.688 671.215C194.246 671.077 193.891 670.825 193.622 670.461C193.353 670.097 193.219 669.681 193.219 669.213C193.219 668.806 193.323 668.438 193.531 668.108C193.739 667.77 194.021 667.506 194.376 667.315C194.74 667.125 195.134 667.029 195.559 667.029H198.757V673.659H197.366V671.371H196.196L194.493 673.659H192.92V673.568ZM197.366 670.201V668.238H195.663C195.368 668.238 195.121 668.334 194.922 668.524C194.731 668.706 194.636 668.94 194.636 669.226C194.636 669.512 194.731 669.746 194.922 669.928C195.121 670.11 195.368 670.201 195.663 670.201H197.366Z" fill="#9FA3B0"/>
<rect x="96" y="633.962" width="48" height="47.4619" rx="14" fill="#00387E"/>
<path d="M61.9787 719.986H192.608C197.026 719.986 200.523 723.605 201.413 727.933C205.124 745.968 221.214 759.538 240.501 759.538C259.788 759.538 275.879 745.968 279.589 727.933C280.48 723.605 283.976 719.986 288.395 719.986H420.021C424.428 719.986 428 723.528 428 727.897V750.078C428 777.693 405.614 800.078 378 800.078H104C76.3858 800.078 54 777.693 54 750.078V727.897C54 723.528 57.5722 719.986 61.9787 719.986Z" fill="white"/>
<rect opacity="0.34" x="174" y="781.291" width="134" height="4.94395" rx="2.47197" fill="#48D597"/>
<path d="M390.364 737.622C393.879 741.137 393.879 746.836 390.364 750.35C386.849 753.865 381.151 753.865 377.636 750.35C374.121 746.836 374.121 741.137 377.636 737.622C381.151 734.108 386.849 734.108 390.364 737.622" stroke="#34A853" stroke-width="1.5" stroke-linecap="round" stroke-linejoin="round"/>
<path d="M389.707 750.944C388.272 749.433 386.248 748.486 384 748.486C381.752 748.486 379.728 749.433 378.293 750.945" stroke="#34A853" stroke-width="1.5" stroke-linecap="round" stroke-linejoin="round"/>
<path d="M385.988 740.311C387.087 741.409 387.087 743.19 385.988 744.288C384.89 745.386 383.11 745.386 382.012 744.288C380.913 743.19 380.913 741.409 382.012 740.311C383.11 739.213 384.89 739.213 385.988 740.311" stroke="#34A853" stroke-width="1.5" stroke-linecap="round" stroke-linejoin="round"/>
<path d="M320 734.986C323.314 734.986 326 737.672 326 740.986" stroke="#34A853" stroke-width="1.5" stroke-linecap="round" stroke-linejoin="round"/>
<path d="M326 740.986V744.986" stroke="#34A853" stroke-width="1.5" stroke-linecap="round" stroke-linejoin="round"/>
<path d="M320 734.986C316.686 734.986 314 737.672 314 740.986" stroke="#34A853" stroke-width="1.5" stroke-linecap="round" stroke-linejoin="round"/>
<path d="M314 740.986V744.986" stroke="#34A853" stroke-width="1.5" stroke-linecap="round" stroke-linejoin="round"/>
<path d="M326 744.986C326 745.972 326.447 746.905 327.216 747.523" stroke="#34A853" stroke-width="1.5" stroke-linecap="round" stroke-linejoin="round"/>
<path d="M314 744.986C314 745.972 313.553 746.905 312.784 747.523" stroke="#34A853" stroke-width="1.5" stroke-linecap="round" stroke-linejoin="round"/>
<path d="M312.784 747.523L312.475 747.771C311.559 748.507 312.08 749.986 313.255 749.986H326.745C327.92 749.986 328.441 748.507 327.525 747.771L327.216 747.523" stroke="#34A853" stroke-width="1.5" stroke-linecap="round" stroke-linejoin="round"/>
<path d="M318.5 752.986H321.5" stroke="#34A853" stroke-width="1.5" stroke-linecap="round" stroke-linejoin="round"/>
<g filter="url(#filter1_d)">
<rect x="210" y="690.323" width="60" height="59.3274" rx="29.6637" fill="#34A853"/>
</g>
<path d="M243 717.762V717.62C243 716.47 242.057 715.537 240.893 715.537H240.75H239.107C237.943 715.537 237 716.47 237 717.62C237 718.576 237.657 719.408 238.594 719.641L241.406 720.338C242.343 720.57 243 721.404 243 722.359C243 723.509 242.057 724.442 240.893 724.442H239.25V724.437H239.107C237.943 724.436 237 723.504 237 722.353V722.211" stroke="white" stroke-width="1.5" stroke-linecap="round" stroke-linejoin="round"/>
<path d="M240 714.054V714.993" stroke="white" stroke-width="1.5" stroke-linecap="round" stroke-linejoin="round"/>
<path d="M240 725.919V724.979" stroke="white" stroke-width="1.5" stroke-linecap="round" stroke-linejoin="round"/>
<path d="M246.364 713.694C249.879 717.17 249.879 722.804 246.364 726.28C242.849 729.755 237.151 729.755 233.636 726.28C230.121 722.804 230.121 717.17 233.636 713.694C237.151 710.219 242.849 710.219 246.364 713.694" stroke="white" stroke-width="1.5" stroke-linecap="round" stroke-linejoin="round"/>
<path d="M152 740.986H170" stroke="#34A853" stroke-width="1.5" stroke-linecap="round" stroke-linejoin="round"/>
<path d="M158.57 744.986H156" stroke="#34A853" stroke-width="1.5" stroke-linecap="round" stroke-linejoin="round"/>
<path d="M170 748.186C170 749.732 168.849 750.986 167.429 750.986H154.571C153.151 750.986 152 749.732 152 748.186V739.786C152 738.24 153.151 736.986 154.571 736.986H167.428C168.849 736.986 170 738.24 170 739.786V748.186V748.186Z" stroke="#34A853" stroke-width="1.5" stroke-linecap="round" stroke-linejoin="round"/>
<path d="M104 748.977H93.812C92.894 748.977 92.094 748.352 91.872 747.462L91.487 745.922L89 735.977H87" stroke="#34A853" stroke-width="1.5" stroke-linecap="round" stroke-linejoin="round"/>
<path d="M89.5 737.977H104C104.552 737.977 105 738.425 105 738.977V742.187C105 743.763 103.78 745.071 102.207 745.18L91.486 745.922" stroke="#34A853" stroke-width="1.5" stroke-linecap="round" stroke-linejoin="round"/>
<path d="M93.9919 751.986C93.7849 751.987 93.6179 752.155 93.6179 752.362C93.6179 752.569 93.7859 752.737 93.9929 752.736C94.1999 752.736 94.3679 752.568 94.3679 752.361C94.3679 752.154 94.1999 751.986 93.9919 751.986Z" fill="#34A853" stroke="#34A853" stroke-width="1.5"/>
<path d="M102.601 751.986C102.394 751.987 102.227 752.155 102.227 752.362C102.227 752.569 102.395 752.737 102.602 752.736C102.809 752.736 102.977 752.568 102.977 752.361C102.977 752.154 102.809 751.986 102.602 751.986" fill="#34A853"/>
<path d="M102.601 751.986C102.394 751.987 102.227 752.155 102.227 752.362C102.227 752.569 102.395 752.737 102.602 752.736C102.809 752.736 102.977 752.568 102.977 752.361C102.977 752.154 102.809 751.986 102.602 751.986" stroke="#34A853" stroke-width="1.5"/>
<rect x="76" y="240.424" width="228" height="225.444" rx="36" fill="#34A853"/>
<rect x="100" y="402.585" width="83" height="31.6413" rx="10" fill="white" fill-opacity="0.2"/>
<path d="M110.492 423.073L112.9 419.699L112.872 419.671C112.545 419.895 112.13 420.007 111.626 420.007C111.141 420.007 110.665 419.872 110.198 419.601C109.731 419.33 109.353 418.962 109.064 418.495C108.775 418.019 108.63 417.492 108.63 416.913C108.63 416.353 108.775 415.83 109.064 415.345C109.363 414.85 109.759 414.454 110.254 414.155C110.758 413.856 111.304 413.707 111.892 413.707C112.527 413.707 113.091 413.861 113.586 414.169C114.09 414.477 114.477 414.878 114.748 415.373C115.028 415.858 115.168 416.372 115.168 416.913C115.168 417.426 115.061 417.921 114.846 418.397C114.641 418.864 114.342 419.386 113.95 419.965L111.444 423.731L110.492 423.073ZM111.892 418.943C112.265 418.943 112.611 418.854 112.928 418.677C113.255 418.49 113.511 418.243 113.698 417.935C113.885 417.618 113.978 417.272 113.978 416.899C113.978 416.516 113.885 416.171 113.698 415.863C113.511 415.546 113.255 415.298 112.928 415.121C112.611 414.934 112.265 414.841 111.892 414.841C111.519 414.841 111.173 414.934 110.856 415.121C110.539 415.298 110.287 415.546 110.1 415.863C109.913 416.171 109.82 416.516 109.82 416.899C109.82 417.272 109.913 417.618 110.1 417.935C110.287 418.243 110.539 418.49 110.856 418.677C111.173 418.854 111.519 418.943 111.892 418.943ZM120.591 421.449H115.999V420.553L120.479 413.931H121.767V420.329H122.999V421.449H121.767V423.507H120.591V421.449ZM120.591 420.329V415.667H120.535L117.357 420.329H120.591ZM128.162 423.731C127.406 423.731 126.734 423.512 126.146 423.073C125.568 422.625 125.12 422.023 124.802 421.267C124.494 420.502 124.34 419.652 124.34 418.719C124.34 417.786 124.494 416.941 124.802 416.185C125.12 415.42 125.568 414.818 126.146 414.379C126.725 413.931 127.397 413.707 128.162 413.707C128.928 413.707 129.6 413.931 130.178 414.379C130.757 414.818 131.2 415.42 131.508 416.185C131.826 416.941 131.984 417.786 131.984 418.719C131.984 419.652 131.826 420.502 131.508 421.267C131.2 422.023 130.752 422.625 130.164 423.073C129.586 423.512 128.918 423.731 128.162 423.731ZM128.162 422.597C128.694 422.597 129.156 422.429 129.548 422.093C129.94 421.748 130.244 421.281 130.458 420.693C130.673 420.105 130.78 419.447 130.78 418.719C130.78 417.991 130.673 417.333 130.458 416.745C130.244 416.157 129.94 415.695 129.548 415.359C129.156 415.014 128.694 414.841 128.162 414.841C127.63 414.841 127.168 415.014 126.776 415.359C126.384 415.695 126.081 416.157 125.866 416.745C125.652 417.333 125.544 417.991 125.544 418.719C125.544 419.447 125.652 420.105 125.866 420.693C126.081 421.281 126.384 421.748 126.776 422.093C127.168 422.429 127.63 422.597 128.162 422.597ZM134.134 421.869H133.07V420.889H134.134V419.643H133.07V418.649H134.134V413.931H137.34C137.9 413.931 138.418 414.052 138.894 414.295C139.37 414.528 139.748 414.864 140.028 415.303C140.308 415.732 140.448 416.227 140.448 416.787C140.448 417.347 140.308 417.846 140.028 418.285C139.748 418.714 139.37 419.05 138.894 419.293C138.418 419.526 137.9 419.643 137.34 419.643H135.324V420.889H137.242V421.869H135.324V423.507H134.134V421.869ZM137.382 418.509C137.755 418.509 138.082 418.43 138.362 418.271C138.642 418.112 138.856 417.902 139.006 417.641C139.164 417.37 139.244 417.086 139.244 416.787C139.244 416.488 139.164 416.208 139.006 415.947C138.856 415.676 138.642 415.462 138.362 415.303C138.082 415.144 137.755 415.065 137.382 415.065H135.324V418.509H137.382ZM145.487 413.483H146.593L142.435 423.507H141.329L145.487 413.483ZM147.341 416.367H148.755L151.275 421.169H151.317L153.837 416.367H155.265V423.507H154.075V419.573L154.131 418.229H154.075L151.723 422.611H150.883L148.517 418.229H148.461L148.517 419.573V423.507H147.341V416.367ZM160.13 423.731C159.449 423.731 158.838 423.568 158.296 423.241C157.755 422.914 157.33 422.466 157.022 421.897C156.724 421.318 156.574 420.67 156.574 419.951C156.574 419.26 156.714 418.626 156.994 418.047C157.284 417.468 157.69 417.006 158.212 416.661C158.735 416.316 159.342 416.143 160.032 416.143C160.732 416.143 161.339 416.302 161.852 416.619C162.366 416.927 162.758 417.356 163.028 417.907C163.308 418.458 163.448 419.088 163.448 419.797C163.448 419.937 163.434 420.058 163.406 420.161H157.764C157.792 420.702 157.923 421.16 158.156 421.533C158.39 421.906 158.684 422.186 159.038 422.373C159.402 422.56 159.78 422.653 160.172 422.653C161.087 422.653 161.792 422.224 162.286 421.365L163.294 421.855C162.986 422.434 162.566 422.891 162.034 423.227C161.512 423.563 160.877 423.731 160.13 423.731ZM162.188 419.181C162.17 418.882 162.086 418.584 161.936 418.285C161.787 417.986 161.549 417.734 161.222 417.529C160.905 417.324 160.504 417.221 160.018 417.221C159.458 417.221 158.982 417.403 158.59 417.767C158.208 418.122 157.956 418.593 157.834 419.181H162.188ZM168.143 423.731C167.453 423.731 166.832 423.568 166.281 423.241C165.731 422.905 165.301 422.452 164.993 421.883C164.685 421.304 164.531 420.656 164.531 419.937C164.531 419.218 164.685 418.57 164.993 417.991C165.301 417.412 165.731 416.96 166.281 416.633C166.832 416.306 167.453 416.143 168.143 416.143C168.918 416.143 169.567 416.325 170.089 416.689C170.621 417.044 170.999 417.52 171.223 418.117L170.145 418.565C169.968 418.126 169.702 417.795 169.347 417.571C169.002 417.338 168.582 417.221 168.087 417.221C167.667 417.221 167.275 417.338 166.911 417.571C166.547 417.795 166.253 418.112 166.029 418.523C165.815 418.934 165.707 419.405 165.707 419.937C165.707 420.469 165.815 420.94 166.029 421.351C166.253 421.762 166.547 422.084 166.911 422.317C167.275 422.541 167.667 422.653 168.087 422.653C168.591 422.653 169.025 422.536 169.389 422.303C169.753 422.07 170.024 421.738 170.201 421.309L171.265 421.757C171.023 422.345 170.631 422.821 170.089 423.185C169.557 423.549 168.909 423.731 168.143 423.731Z" fill="white"/>
<path d="M113.554 368.209V372.871H111.628V370.135H102.772V372.871H100.846V368.209H102.286C102.766 367.537 103.12 366.571 103.348 365.311C103.576 364.039 103.69 362.659 103.69 361.171V357.247H112.132V368.209H113.554ZM110.116 368.209V359.173H105.688V361.513C105.688 362.857 105.58 364.105 105.364 365.257C105.16 366.409 104.848 367.393 104.428 368.209H110.116ZM119.675 370.423C118.751 370.423 117.923 370.213 117.191 369.793C116.459 369.361 115.889 368.773 115.481 368.029C115.073 367.285 114.869 366.457 114.869 365.545C114.869 364.633 115.073 363.805 115.481 363.061C115.889 362.317 116.459 361.735 117.191 361.315C117.923 360.883 118.751 360.667 119.675 360.667C120.599 360.667 121.427 360.883 122.159 361.315C122.891 361.747 123.461 362.335 123.869 363.079C124.277 363.823 124.481 364.645 124.481 365.545C124.481 366.457 124.277 367.285 123.869 368.029C123.461 368.773 122.891 369.361 122.159 369.793C121.427 370.213 120.599 370.423 119.675 370.423ZM119.675 368.605C120.179 368.605 120.647 368.485 121.079 368.245C121.511 367.993 121.853 367.639 122.105 367.183C122.369 366.715 122.501 366.169 122.501 365.545C122.501 364.921 122.369 364.381 122.105 363.925C121.853 363.469 121.511 363.121 121.079 362.881C120.647 362.629 120.179 362.503 119.675 362.503C119.171 362.503 118.703 362.629 118.271 362.881C117.839 363.121 117.491 363.469 117.227 363.925C116.975 364.381 116.849 364.921 116.849 365.545C116.849 366.169 116.975 366.715 117.227 367.183C117.491 367.639 117.839 367.993 118.271 368.245C118.703 368.485 119.171 368.605 119.675 368.605ZM126.113 360.955H128.471L131.333 366.481H131.423L134.249 360.955H136.625V370.135H134.681V365.761L134.789 364.033H134.681L132.071 368.983H130.685L128.057 364.033H127.949L128.057 365.761V370.135H126.113V360.955ZM141.702 370.423C141.042 370.423 140.454 370.297 139.938 370.045C139.422 369.781 139.02 369.415 138.732 368.947C138.444 368.467 138.3 367.927 138.3 367.327C138.3 366.379 138.654 365.629 139.362 365.077C140.082 364.525 140.988 364.249 142.08 364.249C142.62 364.249 143.106 364.303 143.538 364.411C143.97 364.507 144.312 364.615 144.564 364.735V364.267C144.564 363.703 144.354 363.247 143.934 362.899C143.514 362.539 142.974 362.359 142.314 362.359C141.846 362.359 141.402 362.461 140.982 362.665C140.574 362.869 140.244 363.151 139.992 363.511L138.606 362.449C139.014 361.885 139.542 361.447 140.19 361.135C140.838 360.823 141.558 360.667 142.35 360.667C143.682 360.667 144.708 360.997 145.428 361.657C146.148 362.305 146.508 363.223 146.508 364.411V370.135H144.564V369.037H144.474C144.21 369.433 143.838 369.763 143.358 370.027C142.878 370.291 142.326 370.423 141.702 370.423ZM142.044 368.785C142.524 368.785 142.956 368.671 143.34 368.443C143.724 368.215 144.024 367.909 144.24 367.525C144.456 367.141 144.564 366.727 144.564 366.283C144.288 366.127 143.964 366.001 143.592 365.905C143.232 365.809 142.854 365.761 142.458 365.761C141.714 365.761 141.168 365.911 140.82 366.211C140.472 366.499 140.298 366.877 140.298 367.345C140.298 367.765 140.46 368.113 140.784 368.389C141.108 368.653 141.528 368.785 142.044 368.785ZM148.666 360.955H150.628V368.335H153.706V360.955H155.668V368.335H158.746V360.955H160.708V370.135H148.666V360.955ZM163.379 360.955H165.359V364.591H169.787V360.955H171.767V370.135H169.787V366.445H165.359V370.135H163.379V360.955ZM174.066 360.955H176.046V365.437L175.956 367.165H176.046L180.366 360.955H182.346V370.135H180.366V365.653L180.456 363.925H180.366L176.046 370.135H174.066V360.955ZM184.648 360.955H186.628V365.437L186.538 367.165H186.628L190.948 360.955H192.928V370.135H190.948V365.653L191.038 363.925H190.948L186.628 370.135H184.648V360.955ZM188.806 359.281C188.398 359.281 188.008 359.179 187.636 358.975C187.264 358.771 186.964 358.489 186.736 358.129C186.52 357.769 186.412 357.373 186.412 356.941H187.906C187.906 357.193 187.984 357.415 188.14 357.607C188.308 357.787 188.53 357.877 188.806 357.877C189.07 357.877 189.28 357.787 189.436 357.607C189.604 357.415 189.688 357.193 189.688 356.941H191.146C191.146 357.385 191.038 357.787 190.822 358.147C190.606 358.495 190.318 358.771 189.958 358.975C189.598 359.179 189.214 359.281 188.806 359.281ZM101.152 380.955H103.132V385.437L103.042 387.165H103.132L107.452 380.955H109.432V390.135H107.452V385.653L107.542 383.925H107.452L103.132 390.135H101.152V380.955ZM111.734 380.955H113.714V384.591H118.142V380.955H120.122V390.135H118.142V386.445H113.714V390.135H111.734V380.955ZM124.69 382.791H121.774V380.955H129.604V382.791H126.67V390.135H124.69V382.791ZM135.282 390.423C134.382 390.423 133.572 390.213 132.852 389.793C132.144 389.373 131.586 388.797 131.178 388.065C130.782 387.321 130.584 386.487 130.584 385.563C130.584 384.687 130.776 383.877 131.16 383.133C131.556 382.377 132.102 381.777 132.798 381.333C133.494 380.889 134.286 380.667 135.174 380.667C136.098 380.667 136.896 380.871 137.568 381.279C138.252 381.687 138.768 382.245 139.116 382.953C139.476 383.661 139.656 384.459 139.656 385.347C139.656 385.515 139.638 385.725 139.602 385.977H132.564C132.636 386.829 132.936 387.489 133.464 387.957C134.004 388.413 134.628 388.641 135.336 388.641C135.9 388.641 136.386 388.515 136.794 388.263C137.214 387.999 137.55 387.645 137.802 387.201L139.476 387.993C139.044 388.749 138.48 389.343 137.784 389.775C137.088 390.207 136.254 390.423 135.282 390.423ZM137.64 384.465C137.616 384.141 137.514 383.823 137.334 383.511C137.154 383.187 136.878 382.917 136.506 382.701C136.146 382.485 135.702 382.377 135.174 382.377C134.538 382.377 133.998 382.569 133.554 382.953C133.122 383.325 132.822 383.829 132.654 384.465H137.64ZM141.387 380.955H143.277V382.161H143.367C143.631 381.741 144.021 381.387 144.537 381.099C145.053 380.811 145.635 380.667 146.283 380.667C147.111 380.667 147.861 380.877 148.533 381.297C149.205 381.717 149.733 382.299 150.117 383.043C150.513 383.775 150.711 384.609 150.711 385.545C150.711 386.481 150.513 387.321 150.117 388.065C149.733 388.797 149.205 389.373 148.533 389.793C147.861 390.213 147.111 390.423 146.283 390.423C145.635 390.423 145.053 390.279 144.537 389.991C144.021 389.703 143.631 389.355 143.367 388.947H143.277L143.367 390.225V394.023H141.387V380.955ZM145.995 388.605C146.475 388.605 146.925 388.479 147.345 388.227C147.765 387.975 148.101 387.615 148.353 387.147C148.605 386.679 148.731 386.145 148.731 385.545C148.731 384.945 148.605 384.417 148.353 383.961C148.101 383.493 147.765 383.133 147.345 382.881C146.925 382.629 146.475 382.503 145.995 382.503C145.515 382.503 145.065 382.629 144.645 382.881C144.237 383.133 143.907 383.493 143.655 383.961C143.403 384.417 143.277 384.945 143.277 385.545C143.277 386.145 143.403 386.679 143.655 387.147C143.907 387.615 144.237 387.975 144.645 388.227C145.065 388.479 145.515 388.605 145.995 388.605ZM152.427 380.955H154.407V384.591H158.835V380.955H160.815V390.135H158.835V386.445H154.407V390.135H152.427V380.955ZM167.221 390.423C166.321 390.423 165.511 390.213 164.791 389.793C164.083 389.373 163.525 388.797 163.117 388.065C162.721 387.321 162.523 386.487 162.523 385.563C162.523 384.687 162.715 383.877 163.099 383.133C163.495 382.377 164.041 381.777 164.737 381.333C165.433 380.889 166.225 380.667 167.113 380.667C168.037 380.667 168.835 380.871 169.507 381.279C170.191 381.687 170.707 382.245 171.055 382.953C171.415 383.661 171.595 384.459 171.595 385.347C171.595 385.515 171.577 385.725 171.541 385.977H164.503C164.575 386.829 164.875 387.489 165.403 387.957C165.943 388.413 166.567 388.641 167.275 388.641C167.839 388.641 168.325 388.515 168.733 388.263C169.153 387.999 169.489 387.645 169.741 387.201L171.415 387.993C170.983 388.749 170.419 389.343 169.723 389.775C169.027 390.207 168.193 390.423 167.221 390.423ZM169.579 384.465C169.555 384.141 169.453 383.823 169.273 383.511C169.093 383.187 168.817 382.917 168.445 382.701C168.085 382.485 167.641 382.377 167.113 382.377C166.477 382.377 165.937 382.569 165.493 382.953C165.061 383.325 164.761 383.829 164.593 384.465H169.579ZM175.49 382.791H172.574V380.955H180.404V382.791H177.47V390.135H175.49V382.791Z" fill="white"/>
<g opacity="0.3">
<path d="M115 268.11C106.716 268.11 100 274.826 100 283.11V306.709L102.722 300.562L108.023 300.991L100 314.572C100 315.124 100.448 315.572 101.001 315.572H137.692C143.937 315.572 149 310.51 149 304.265V283.11C149 274.826 142.284 268.11 134 268.11H115ZM146.135 300.848L136.392 298.989L130.661 293.271L139.974 291.698L146.135 300.848ZM137.968 288.839L128.655 291.555L122.924 285.837L131.807 279.833L137.968 288.839ZM126.219 292.842L117.336 298.846L112.035 297.703L120.632 288.267L126.219 292.842ZM123.354 268.11H124.07L129.801 276.688L121.061 283.979L115.33 278.26L123.354 268.11ZM104.871 295.987L113.038 282.12L118.626 286.695L110.173 297.274L104.871 295.987ZM109.599 300.848L114.901 301.276L106.304 310.569L101.433 313.857L109.599 300.848ZM103.295 315.143H102.292L108.596 309.854L103.295 315.143ZM109.026 309.139L116.333 301.419L122.064 301.848L109.026 309.139ZM119.342 299.275L128.225 294.415L133.956 299.132L124.643 300.562L119.342 299.275ZM126.363 300.848L135.819 300.562L141.406 305.136L126.363 300.848ZM149 309.711L143.985 306.566L138.254 300.991L147.997 304.136L148.857 305.422V309.711H149Z" fill="white"/>
<path d="M155 312.605L149 309.657V305.684L155 312.605Z" fill="white"/>
<path d="M96 317.549L100 305.684V313.898L96 317.549Z" fill="white"/>
<path d="M100.049 316.931L102.829 314.583H104L101.805 316.638L92 333.37L100.049 316.931Z" fill="white"/>
<path d="M93.8605 322.539L99 318.538L90.686 335.828L86 343.258L93.8605 322.539Z" fill="white"/>
</g>
<rect x="324" y="240.424" width="228" height="225.444" rx="36" fill="white"/>
<rect x="348" y="402.585" width="83" height="31.6413" rx="10" fill="#F6F6F6"/>
<path d="M359.836 423.731C359.388 423.731 358.945 423.638 358.506 423.451C358.067 423.255 357.68 422.966 357.344 422.583C357.008 422.191 356.77 421.71 356.63 421.141L357.68 420.721C357.82 421.29 358.077 421.748 358.45 422.093C358.833 422.429 359.285 422.597 359.808 422.597C360.433 422.597 360.942 422.406 361.334 422.023C361.726 421.64 361.922 421.141 361.922 420.525C361.922 419.918 361.726 419.419 361.334 419.027C360.951 418.626 360.452 418.425 359.836 418.425C359.5 418.425 359.183 418.504 358.884 418.663C358.585 418.812 358.343 419.022 358.156 419.293L356.938 418.761L357.568 413.931H362.524V415.065H358.548L358.17 417.963L358.226 417.977C358.721 417.557 359.327 417.347 360.046 417.347C360.597 417.347 361.105 417.482 361.572 417.753C362.048 418.024 362.426 418.402 362.706 418.887C362.986 419.372 363.126 419.914 363.126 420.511C363.126 421.108 362.981 421.654 362.692 422.149C362.412 422.634 362.02 423.022 361.516 423.311C361.012 423.591 360.452 423.731 359.836 423.731ZM368.397 423.731C367.641 423.731 366.969 423.512 366.381 423.073C365.802 422.625 365.354 422.023 365.037 421.267C364.729 420.502 364.575 419.652 364.575 418.719C364.575 417.786 364.729 416.941 365.037 416.185C365.354 415.42 365.802 414.818 366.381 414.379C366.959 413.931 367.631 413.707 368.397 413.707C369.162 413.707 369.834 413.931 370.413 414.379C370.991 414.818 371.435 415.42 371.743 416.185C372.06 416.941 372.219 417.786 372.219 418.719C372.219 419.652 372.06 420.502 371.743 421.267C371.435 422.023 370.987 422.625 370.399 423.073C369.82 423.512 369.153 423.731 368.397 423.731ZM368.397 422.597C368.929 422.597 369.391 422.429 369.783 422.093C370.175 421.748 370.478 421.281 370.693 420.693C370.907 420.105 371.015 419.447 371.015 418.719C371.015 417.991 370.907 417.333 370.693 416.745C370.478 416.157 370.175 415.695 369.783 415.359C369.391 415.014 368.929 414.841 368.397 414.841C367.865 414.841 367.403 415.014 367.011 415.359C366.619 415.695 366.315 416.157 366.101 416.745C365.886 417.333 365.779 417.991 365.779 418.719C365.779 419.447 365.886 420.105 366.101 420.693C366.315 421.281 366.619 421.748 367.011 422.093C367.403 422.429 367.865 422.597 368.397 422.597ZM377.42 423.731C376.664 423.731 375.992 423.512 375.404 423.073C374.825 422.625 374.377 422.023 374.06 421.267C373.752 420.502 373.598 419.652 373.598 418.719C373.598 417.786 373.752 416.941 374.06 416.185C374.377 415.42 374.825 414.818 375.404 414.379C375.983 413.931 376.655 413.707 377.42 413.707C378.185 413.707 378.857 413.931 379.436 414.379C380.015 414.818 380.458 415.42 380.766 416.185C381.083 416.941 381.242 417.786 381.242 418.719C381.242 419.652 381.083 420.502 380.766 421.267C380.458 422.023 380.01 422.625 379.422 423.073C378.843 423.512 378.176 423.731 377.42 423.731ZM377.42 422.597C377.952 422.597 378.414 422.429 378.806 422.093C379.198 421.748 379.501 421.281 379.716 420.693C379.931 420.105 380.038 419.447 380.038 418.719C380.038 417.991 379.931 417.333 379.716 416.745C379.501 416.157 379.198 415.695 378.806 415.359C378.414 415.014 377.952 414.841 377.42 414.841C376.888 414.841 376.426 415.014 376.034 415.359C375.642 415.695 375.339 416.157 375.124 416.745C374.909 417.333 374.802 417.991 374.802 418.719C374.802 419.447 374.909 420.105 375.124 420.693C375.339 421.281 375.642 421.748 376.034 422.093C376.426 422.429 376.888 422.597 377.42 422.597ZM383.392 421.869H382.328V420.889H383.392V419.643H382.328V418.649H383.392V413.931H386.598C387.158 413.931 387.676 414.052 388.152 414.295C388.628 414.528 389.006 414.864 389.286 415.303C389.566 415.732 389.706 416.227 389.706 416.787C389.706 417.347 389.566 417.846 389.286 418.285C389.006 418.714 388.628 419.05 388.152 419.293C387.676 419.526 387.158 419.643 386.598 419.643H384.582V420.889H386.5V421.869H384.582V423.507H383.392V421.869ZM386.64 418.509C387.013 418.509 387.34 418.43 387.62 418.271C387.9 418.112 388.114 417.902 388.264 417.641C388.422 417.37 388.502 417.086 388.502 416.787C388.502 416.488 388.422 416.208 388.264 415.947C388.114 415.676 387.9 415.462 387.62 415.303C387.34 415.144 387.013 415.065 386.64 415.065H384.582V418.509H386.64ZM394.744 413.483H395.85L391.692 423.507H390.586L394.744 413.483ZM396.598 416.367H398.012L400.532 421.169H400.574L403.094 416.367H404.522V423.507H403.332V419.573L403.388 418.229H403.332L400.98 422.611H400.14L397.774 418.229H397.718L397.774 419.573V423.507H396.598V416.367ZM409.388 423.731C408.707 423.731 408.095 423.568 407.554 423.241C407.013 422.914 406.588 422.466 406.28 421.897C405.981 421.318 405.832 420.67 405.832 419.951C405.832 419.26 405.972 418.626 406.252 418.047C406.541 417.468 406.947 417.006 407.47 416.661C407.993 416.316 408.599 416.143 409.29 416.143C409.99 416.143 410.597 416.302 411.11 416.619C411.623 416.927 412.015 417.356 412.286 417.907C412.566 418.458 412.706 419.088 412.706 419.797C412.706 419.937 412.692 420.058 412.664 420.161H407.022C407.05 420.702 407.181 421.16 407.414 421.533C407.647 421.906 407.941 422.186 408.296 422.373C408.66 422.56 409.038 422.653 409.43 422.653C410.345 422.653 411.049 422.224 411.544 421.365L412.552 421.855C412.244 422.434 411.824 422.891 411.292 423.227C410.769 423.563 410.135 423.731 409.388 423.731ZM411.446 419.181C411.427 418.882 411.343 418.584 411.194 418.285C411.045 417.986 410.807 417.734 410.48 417.529C410.163 417.324 409.761 417.221 409.276 417.221C408.716 417.221 408.24 417.403 407.848 417.767C407.465 418.122 407.213 418.593 407.092 419.181H411.446ZM417.401 423.731C416.71 423.731 416.09 423.568 415.539 423.241C414.988 422.905 414.559 422.452 414.251 421.883C413.943 421.304 413.789 420.656 413.789 419.937C413.789 419.218 413.943 418.57 414.251 417.991C414.559 417.412 414.988 416.96 415.539 416.633C416.09 416.306 416.71 416.143 417.401 416.143C418.176 416.143 418.824 416.325 419.347 416.689C419.879 417.044 420.257 417.52 420.481 418.117L419.403 418.565C419.226 418.126 418.96 417.795 418.605 417.571C418.26 417.338 417.84 417.221 417.345 417.221C416.925 417.221 416.533 417.338 416.169 417.571C415.805 417.795 415.511 418.112 415.287 418.523C415.072 418.934 414.965 419.405 414.965 419.937C414.965 420.469 415.072 420.94 415.287 421.351C415.511 421.762 415.805 422.084 416.169 422.317C416.533 422.541 416.925 422.653 417.345 422.653C417.849 422.653 418.283 422.536 418.647 422.303C419.011 422.07 419.282 421.738 419.459 421.309L420.523 421.757C420.28 422.345 419.888 422.821 419.347 423.185C418.815 423.549 418.166 423.731 417.401 423.731Z" fill="#202124"/>
<path d="M349.44 358.235H354.066C354.714 358.235 355.32 358.385 355.884 358.685C356.46 358.985 356.916 359.399 357.252 359.927C357.588 360.455 357.756 361.049 357.756 361.709C357.756 362.333 357.594 362.879 357.27 363.347C356.958 363.815 356.532 364.175 355.992 364.427V364.499C356.64 364.715 357.168 365.087 357.576 365.615C357.984 366.143 358.188 366.761 358.188 367.469C358.188 368.165 358.008 368.795 357.648 369.359C357.3 369.911 356.826 370.343 356.226 370.655C355.638 370.967 355.002 371.123 354.318 371.123H349.44V358.235ZM354.066 363.815C354.498 363.815 354.876 363.713 355.2 363.509C355.536 363.305 355.794 363.047 355.974 362.735C356.154 362.411 356.244 362.081 356.244 361.745C356.244 361.421 356.154 361.103 355.974 360.791C355.806 360.467 355.56 360.203 355.236 359.999C354.924 359.795 354.558 359.693 354.138 359.693H350.952V363.815H354.066ZM354.408 369.665C354.84 369.665 355.224 369.557 355.56 369.341C355.908 369.125 356.172 368.849 356.352 368.513C356.544 368.165 356.64 367.811 356.64 367.451C356.64 367.091 356.544 366.743 356.352 366.407C356.16 366.059 355.89 365.783 355.542 365.579C355.194 365.363 354.792 365.255 354.336 365.255H350.952V369.665H354.408ZM360.05 361.943H361.58V367.109L361.508 368.837H361.58L366.53 361.943H368.042V371.123H366.53V365.957L366.602 364.229H366.53L361.58 371.123H360.05V361.943ZM369.758 369.737H370.712C371 369.437 371.24 368.885 371.432 368.081C371.636 367.265 371.738 366.401 371.738 365.489V361.943H378.974V369.737H380.342V373.859H378.884V371.123H371.216V373.859H369.758V369.737ZM377.462 369.737V363.329H373.232V365.615C373.232 366.395 373.148 367.145 372.98 367.865C372.824 368.573 372.602 369.197 372.314 369.737H377.462ZM386.144 371.411C385.268 371.411 384.482 371.201 383.786 370.781C383.09 370.361 382.544 369.785 382.148 369.053C381.764 368.309 381.572 367.475 381.572 366.551C381.572 365.663 381.752 364.847 382.112 364.103C382.484 363.359 383.006 362.765 383.678 362.321C384.35 361.877 385.13 361.655 386.018 361.655C386.918 361.655 387.698 361.859 388.358 362.267C389.018 362.663 389.522 363.215 389.87 363.923C390.23 364.631 390.41 365.441 390.41 366.353C390.41 366.533 390.392 366.689 390.356 366.821H383.102C383.138 367.517 383.306 368.105 383.606 368.585C383.906 369.065 384.284 369.425 384.74 369.665C385.208 369.905 385.694 370.025 386.198 370.025C387.374 370.025 388.28 369.473 388.916 368.369L390.212 368.999C389.816 369.743 389.276 370.331 388.592 370.763C387.92 371.195 387.104 371.411 386.144 371.411ZM388.79 365.561C388.766 365.177 388.658 364.793 388.466 364.409C388.274 364.025 387.968 363.701 387.548 363.437C387.14 363.173 386.624 363.041 386 363.041C385.28 363.041 384.668 363.275 384.164 363.743C383.672 364.199 383.348 364.805 383.192 365.561H388.79ZM396.518 371.411C395.618 371.411 394.808 371.195 394.088 370.763C393.368 370.331 392.804 369.743 392.396 368.999C392 368.255 391.802 367.433 391.802 366.533C391.802 365.633 392 364.811 392.396 364.067C392.804 363.323 393.368 362.735 394.088 362.303C394.808 361.871 395.618 361.655 396.518 361.655C397.418 361.655 398.228 361.871 398.948 362.303C399.668 362.735 400.226 363.323 400.622 364.067C401.03 364.811 401.234 365.633 401.234 366.533C401.234 367.433 401.03 368.255 400.622 368.999C400.226 369.743 399.668 370.331 398.948 370.763C398.228 371.195 397.418 371.411 396.518 371.411ZM396.518 370.025C397.082 370.025 397.604 369.887 398.084 369.611C398.576 369.323 398.966 368.915 399.254 368.387C399.554 367.859 399.704 367.241 399.704 366.533C399.704 365.825 399.554 365.207 399.254 364.679C398.966 364.151 398.576 363.749 398.084 363.473C397.604 363.185 397.082 363.041 396.518 363.041C395.954 363.041 395.426 363.185 394.934 363.473C394.442 363.749 394.046 364.151 393.746 364.679C393.458 365.207 393.314 365.825 393.314 366.533C393.314 367.241 393.458 367.859 393.746 368.387C394.046 368.915 394.442 369.323 394.934 369.611C395.426 369.887 395.954 370.025 396.518 370.025ZM349.134 381.943H350.664V385.795H355.668V381.943H357.18V391.123H355.668V387.217H350.664V391.123H349.134V381.943ZM362.298 391.411C361.626 391.411 361.026 391.279 360.498 391.015C359.97 390.751 359.562 390.391 359.274 389.935C358.986 389.467 358.842 388.939 358.842 388.351C358.842 387.379 359.208 386.623 359.94 386.083C360.672 385.531 361.596 385.255 362.712 385.255C363.264 385.255 363.774 385.315 364.242 385.435C364.722 385.555 365.088 385.693 365.34 385.849V385.291C365.34 384.607 365.1 384.061 364.62 383.653C364.14 383.233 363.534 383.023 362.802 383.023C362.286 383.023 361.812 383.137 361.38 383.365C360.948 383.581 360.606 383.887 360.354 384.283L359.202 383.419C359.562 382.867 360.054 382.435 360.678 382.123C361.314 381.811 362.016 381.655 362.784 381.655C364.032 381.655 365.01 381.985 365.718 382.645C366.438 383.293 366.798 384.181 366.798 385.309V391.123H365.34V389.809H365.268C365.004 390.253 364.608 390.631 364.08 390.943C363.552 391.255 362.958 391.411 362.298 391.411ZM362.442 390.061C362.958 390.061 363.438 389.929 363.882 389.665C364.326 389.401 364.68 389.047 364.944 388.603C365.208 388.159 365.34 387.673 365.34 387.145C365.052 386.953 364.698 386.797 364.278 386.677C363.858 386.557 363.414 386.497 362.946 386.497C362.106 386.497 361.47 386.671 361.038 387.019C360.618 387.367 360.408 387.817 360.408 388.369C360.408 388.873 360.6 389.281 360.984 389.593C361.368 389.905 361.854 390.061 362.442 390.061ZM373.607 391.411C372.707 391.411 371.903 391.201 371.195 390.781C370.487 390.349 369.923 389.695 369.503 388.819C369.095 387.931 368.891 386.827 368.891 385.507C368.891 384.067 369.035 382.915 369.323 382.051C369.623 381.187 370.031 380.491 370.547 379.963C371.003 379.519 371.543 379.177 372.167 378.937C372.803 378.685 373.499 378.559 374.255 378.559C374.711 378.559 375.053 378.541 375.281 378.505C375.521 378.457 375.689 378.391 375.785 378.307C375.893 378.223 375.977 378.097 376.037 377.929H377.549C377.381 378.709 377.051 379.243 376.559 379.531C376.079 379.807 375.341 379.945 374.345 379.945C373.649 379.945 373.097 380.029 372.689 380.197C372.281 380.353 371.927 380.581 371.627 380.881C370.979 381.529 370.589 382.393 370.457 383.473H370.529C370.865 382.957 371.315 382.525 371.879 382.177C372.455 381.829 373.151 381.655 373.967 381.655C374.795 381.655 375.539 381.871 376.199 382.303C376.859 382.735 377.375 383.323 377.747 384.067C378.119 384.811 378.305 385.633 378.305 386.533C378.305 387.445 378.101 388.273 377.693 389.017C377.297 389.761 376.739 390.349 376.019 390.781C375.311 391.201 374.507 391.411 373.607 391.411ZM373.607 390.025C374.171 390.025 374.693 389.887 375.173 389.611C375.665 389.323 376.055 388.915 376.343 388.387C376.643 387.859 376.793 387.241 376.793 386.533C376.793 385.825 376.643 385.207 376.343 384.679C376.055 384.151 375.665 383.749 375.173 383.473C374.693 383.185 374.171 383.041 373.607 383.041C373.043 383.041 372.521 383.185 372.041 383.473C371.561 383.749 371.177 384.151 370.889 384.679C370.601 385.207 370.457 385.825 370.457 386.533C370.457 387.229 370.601 387.841 370.889 388.369C371.177 388.897 371.561 389.305 372.041 389.593C372.521 389.881 373.043 390.025 373.607 390.025ZM380.436 391.267C380.124 391.267 379.848 391.219 379.608 391.123L379.626 389.755C379.818 389.815 380.022 389.845 380.238 389.845C380.514 389.845 380.724 389.755 380.868 389.575C381.012 389.383 381.108 389.077 381.156 388.657C381.216 388.225 381.246 387.625 381.246 386.857V381.943H388.824V391.123H387.312V383.329H382.74V387.343C382.74 388.759 382.53 389.767 382.11 390.367C381.69 390.967 381.132 391.267 380.436 391.267ZM399.067 391.411C398.239 391.411 397.489 391.231 396.817 390.871C396.157 390.511 395.611 390.019 395.179 389.395C394.759 388.759 394.501 388.045 394.405 387.253H392.677V391.123H391.147V381.943H392.677V385.831H394.405C394.501 385.039 394.759 384.325 395.179 383.689C395.599 383.053 396.145 382.555 396.817 382.195C397.489 381.835 398.239 381.655 399.067 381.655C399.967 381.655 400.777 381.871 401.497 382.303C402.217 382.735 402.775 383.323 403.171 384.067C403.579 384.811 403.783 385.633 403.783 386.533C403.783 387.433 403.579 388.255 403.171 388.999C402.775 389.743 402.217 390.331 401.497 390.763C400.777 391.195 399.967 391.411 399.067 391.411ZM399.067 390.025C399.631 390.025 400.159 389.887 400.651 389.611C401.143 389.323 401.533 388.915 401.821 388.387C402.121 387.859 402.271 387.241 402.271 386.533C402.271 385.825 402.121 385.207 401.821 384.679C401.533 384.151 401.143 383.749 400.651 383.473C400.159 383.185 399.631 383.041 399.067 383.041C398.503 383.041 397.975 383.185 397.483 383.473C397.003 383.749 396.613 384.151 396.313 384.679C396.025 385.207 395.881 385.825 395.881 386.533C395.881 387.241 396.025 387.859 396.313 388.387C396.613 388.915 397.003 389.323 397.483 389.611C397.975 389.887 398.503 390.025 399.067 390.025ZM404.65 389.737H405.604C405.892 389.437 406.132 388.885 406.324 388.081C406.528 387.265 406.63 386.401 406.63 385.489V381.943H413.866V389.737H415.234V393.859H413.776V391.123H406.108V393.859H404.65V389.737ZM412.354 389.737V383.329H408.124V385.615C408.124 386.395 408.04 387.145 407.872 387.865C407.716 388.573 407.494 389.197 407.206 389.737H412.354ZM421.036 391.411C420.16 391.411 419.374 391.201 418.678 390.781C417.982 390.361 417.436 389.785 417.04 389.053C416.656 388.309 416.464 387.475 416.464 386.551C416.464 385.663 416.644 384.847 417.004 384.103C417.376 383.359 417.898 382.765 418.57 382.321C419.242 381.877 420.022 381.655 420.91 381.655C421.81 381.655 422.59 381.859 423.25 382.267C423.91 382.663 424.414 383.215 424.762 383.923C425.122 384.631 425.302 385.441 425.302 386.353C425.302 386.533 425.284 386.689 425.248 386.821H417.994C418.03 387.517 418.198 388.105 418.498 388.585C418.798 389.065 419.176 389.425 419.632 389.665C420.1 389.905 420.586 390.025 421.09 390.025C422.266 390.025 423.172 389.473 423.808 388.369L425.104 388.999C424.708 389.743 424.168 390.331 423.484 390.763C422.812 391.195 421.996 391.411 421.036 391.411ZM423.682 385.561C423.658 385.177 423.55 384.793 423.358 384.409C423.166 384.025 422.86 383.701 422.44 383.437C422.032 383.173 421.516 383.041 420.892 383.041C420.172 383.041 419.56 383.275 419.056 383.743C418.564 384.199 418.24 384.805 418.084 385.561H423.682ZM427.093 381.943H428.623V385.795H433.627V381.943H435.139V391.123H433.627V387.217H428.623V391.123H427.093V381.943Z" fill="#202124"/>
<path d="M363 268.11C354.716 268.11 348 274.826 348 283.11V306.709L350.722 300.562L356.023 300.991L348 314.572C348 315.124 348.448 315.572 349.001 315.572H385.692C391.937 315.572 397 310.51 397 304.265V283.11C397 274.826 390.284 268.11 382 268.11H363ZM394.135 300.848L384.392 298.989L378.661 293.271L387.974 291.698L394.135 300.848ZM385.968 288.839L376.655 291.555L370.924 285.837L379.807 279.833L385.968 288.839ZM374.219 292.842L365.336 298.846L360.035 297.703L368.632 288.267L374.219 292.842ZM371.354 268.11H372.07L377.801 276.688L369.061 283.979L363.33 278.26L371.354 268.11ZM352.871 295.987L361.038 282.12L366.626 286.695L358.173 297.274L352.871 295.987ZM357.599 300.848L362.901 301.276L354.304 310.569L349.433 313.857L357.599 300.848ZM351.295 315.143H350.292L356.596 309.854L351.295 315.143ZM357.026 309.139L364.333 301.419L370.064 301.848L357.026 309.139ZM367.342 299.275L376.225 294.415L381.956 299.132L372.643 300.562L367.342 299.275ZM374.363 300.848L383.819 300.562L389.406 305.136L374.363 300.848ZM397 309.711L391.985 306.566L386.254 300.991L395.997 304.136L396.857 305.422V309.711H397Z" fill="#3821C5"/>
<path d="M403 312.605L397 309.657V305.684L403 312.605Z" fill="#3821C5"/>
<path d="M344 317.549L348 305.684V313.898L344 317.549Z" fill="#3821C5"/>
<path d="M348.049 316.931L350.829 314.583H352L349.805 316.638L340 333.37L348.049 316.931Z" fill="#3821C5"/>
<path d="M341.86 322.539L347 318.538L338.686 335.828L334 343.258L341.86 322.539Z" fill="#3821C5"/>
<path d="M348.031 97.6592L351.598 101.186C351.992 101.575 351.992 102.211 351.599 102.601C351.211 102.984 350.587 102.984 350.2 102.601L346.617 99.0573C345.024 100.32 343.042 101.007 341 101.004C336.032 101.004 332 97.0175 332 92.1052C332 87.1929 336.032 83.2061 341 83.2061C345.968 83.2061 350 87.1929 350 92.1052C350.003 94.1243 349.308 96.0838 348.031 97.6592ZM346.025 96.9255C347.294 95.635 348.003 93.9052 348 92.1052C348 88.2805 344.867 85.1836 341 85.1836C337.132 85.1836 334 88.2805 334 92.1052C334 95.9288 337.132 99.0267 341 99.0267C342.82 99.0295 344.57 98.3287 345.875 97.0738L346.025 96.9255Z" fill="#06070D"/>
<path d="M79 85.1836H97V87.1612H79V85.1836ZM79 92.1051H91V94.0827H79V92.1051ZM79 99.0266H97V101.004H79V99.0266Z" fill="black"/>
<path d="M388.17 99.0272C388.377 98.4482 388.76 97.9468 389.267 97.5922C389.773 97.2376 390.379 97.0471 391 97.0471C391.621 97.0471 392.227 97.2376 392.733 97.5922C393.24 97.9468 393.623 98.4482 393.83 99.0272H403.011C403.557 99.0272 404 99.4698 404 100.016C404 100.562 403.557 101.005 403.011 101.005H393.83C393.623 101.584 393.24 102.085 392.733 102.44C392.227 102.794 391.621 102.985 391 102.985C390.379 102.985 389.773 102.794 389.267 102.44C388.76 102.085 388.377 101.584 388.17 101.005H384.989C384.443 101.005 384 100.562 384 100.016C384 99.4698 384.443 99.0272 384.989 99.0272H388.17ZM394.17 92.1056C394.377 91.5267 394.76 91.0253 395.267 90.6707C395.773 90.3161 396.379 90.1256 397 90.1256C397.621 90.1256 398.227 90.3161 398.733 90.6707C399.24 91.0253 399.623 91.5267 399.83 92.1056H403.011C403.557 92.1056 404 92.5483 404 93.0944C404 93.6405 403.557 94.0832 403.011 94.0832H399.83C399.623 94.6622 399.24 95.1635 398.733 95.5181C398.227 95.8728 397.621 96.0632 397 96.0632C396.379 96.0632 395.773 95.8728 395.267 95.5181C394.76 95.1635 394.377 94.6622 394.17 94.0832H384.989C384.443 94.0832 384 93.6405 384 93.0944C384 92.5483 384.443 92.1056 384.989 92.1056H394.17ZM388.17 85.1841C388.377 84.6051 388.76 84.1038 389.267 83.7492C389.773 83.3945 390.379 83.2041 391 83.2041C391.621 83.2041 392.227 83.3945 392.733 83.7492C393.24 84.1038 393.623 84.6051 393.83 85.1841H403.011C403.557 85.1841 404 85.6268 404 86.1729C404 86.719 403.557 87.1617 403.011 87.1617H393.83C393.623 87.7406 393.24 88.242 392.733 88.5966C392.227 88.9512 391.621 89.1417 391 89.1417C390.379 89.1417 389.773 88.9512 389.267 88.5966C388.76 88.242 388.377 87.7406 388.17 87.1617H384.989C384.443 87.1617 384 86.719 384 86.1729C384 85.6268 384.443 85.1841 384.989 85.1841H388.17ZM391 87.1617C391.265 87.1617 391.52 87.0575 391.707 86.8721C391.895 86.6866 392 86.4351 392 86.1729C392 85.9106 391.895 85.6591 391.707 85.4737C391.52 85.2883 391.265 85.1841 391 85.1841C390.735 85.1841 390.48 85.2883 390.293 85.4737C390.105 85.6591 390 85.9106 390 86.1729C390 86.4351 390.105 86.6866 390.293 86.8721C390.48 87.0575 390.735 87.1617 391 87.1617ZM397 94.0832C397.265 94.0832 397.52 93.979 397.707 93.7936C397.895 93.6082 398 93.3567 398 93.0944C398 92.8322 397.895 92.5807 397.707 92.3952C397.52 92.2098 397.265 92.1056 397 92.1056C396.735 92.1056 396.48 92.2098 396.293 92.3952C396.105 92.5807 396 92.8322 396 93.0944C396 93.3567 396.105 93.6082 396.293 93.7936C396.48 93.979 396.735 94.0832 397 94.0832ZM391 101.005C391.265 101.005 391.52 100.901 391.707 100.715C391.895 100.53 392 100.278 392 100.016C392 99.7537 391.895 99.5022 391.707 99.3168C391.52 99.1313 391.265 99.0272 391 99.0272C390.735 99.0272 390.48 99.1313 390.293 99.3168C390.105 99.5022 390 99.7537 390 100.016C390 100.278 390.105 100.53 390.293 100.715C390.48 100.901 390.735 101.005 391 101.005Z" fill="black"/>
</g>
<defs>
<filter id="filter0_d" x="0" y="0.789062" width="482" height="867.211" filterUnits="userSpaceOnUse" color-interpolation-filters="sRGB">
<feFlood flood-opacity="0" result="BackgroundImageFix"/>
<feColorMatrix in="SourceAlpha" type="matrix" values="0 0 0 0 0 0 0 0 0 0 0 0 0 0 0 0 0 0 127 0"/>
<feOffset dy="15"/>
<feGaussianBlur stdDeviation="17.5"/>
<feColorMatrix type="matrix" values="0 0 0 0 0 0 0 0 0 0.00166667 0 0 0 0 0.141667 0 0 0 0.25 0"/>
<feBlend mode="normal" in2="BackgroundImageFix" result="effect1_dropShadow"/>
<feBlend mode="normal" in="SourceGraphic" in2="effect1_dropShadow" result="shape"/>
</filter>
<filter id="filter1_d" x="186" y="674.323" width="108" height="107.327" filterUnits="userSpaceOnUse" color-interpolation-filters="sRGB">
<feFlood flood-opacity="0" result="BackgroundImageFix"/>
<feColorMatrix in="SourceAlpha" type="matrix" values="0 0 0 0 0 0 0 0 0 0 0 0 0 0 0 0 0 0 127 0"/>
<feOffset dy="8"/>
<feGaussianBlur stdDeviation="12"/>
<feColorMatrix type="matrix" values="0 0 0 0 0.0313726 0 0 0 0 0.835294 0 0 0 0 0.52549 0 0 0 0.24 0"/>
<feBlend mode="normal" in2="BackgroundImageFix" result="effect1_dropShadow"/>
<feBlend mode="normal" in="SourceGraphic" in2="effect1_dropShadow" result="shape"/>
</filter>
</defs>
</svg>
