<svg width="9" height="7" viewBox="0 0 9 7" fill="none" xmlns="http://www.w3.org/2000/svg">
<path d="M4.19168 6.33838C4.22608 6.38834 4.27212 6.4292 4.32581 6.45742C4.37951 6.48564 4.43927 6.50039 4.49993 6.50039C4.56059 6.50039 4.62035 6.48564 4.67405 6.45742C4.72774 6.4292 4.77378 6.38834 4.80818 6.33838L8.18318 1.46338C8.22225 1.40715 8.24515 1.34129 8.24942 1.27295C8.25368 1.20462 8.23914 1.13642 8.20736 1.07577C8.17559 1.01512 8.1278 0.964343 8.06919 0.928947C8.01059 0.893551 7.9434 0.874893 7.87493 0.875H1.12493C1.05662 0.875283 0.989682 0.89418 0.931311 0.929662C0.872939 0.965143 0.825344 1.01586 0.793644 1.07637C0.761943 1.13688 0.747337 1.20489 0.751396 1.27307C0.755455 1.34126 0.778026 1.40706 0.81668 1.46338L4.19168 6.33838Z" fill="white"/>
</svg>
