<svg width="214" height="90" viewBox="0 0 214 90" fill="none" xmlns="http://www.w3.org/2000/svg">
<g filter="url(#filter0_d)">
<path d="M199 63.811C199 67.0966 196.631 69.758 193.701 69.758H20.3054C17.377 69.758 15 67.0966 15 63.811V16.3854C15 13.1014 17.377 10.4307 20.3054 10.4307H193.7C196.631 10.4307 198.999 13.1014 198.999 16.3854L199 63.811Z" fill="white"/>
</g>
<path d="M57.1707 39.8163C57.132 35.6734 60.6894 33.6578 60.852 33.564C58.8374 30.7322 55.7147 30.3453 54.6174 30.3145C51.9947 30.0484 49.4507 31.8274 48.1147 31.8274C46.752 31.8274 44.6947 30.3402 42.4774 30.3839C39.624 30.4263 36.9547 32.0189 35.4907 34.4921C32.4694 39.5348 34.7227 46.9453 37.6174 51.0214C39.0654 53.0176 40.7574 55.2466 42.972 55.1682C45.1387 55.082 45.948 53.8365 48.5627 53.8365C51.1534 53.8365 51.9134 55.1682 54.172 55.118C56.4974 55.082 57.9614 53.1128 59.3587 51.0985C61.032 48.8104 61.704 46.5571 61.7307 46.4414C61.676 46.4234 57.2147 44.7819 57.1707 39.8163Z" fill="#202124"/>
<path d="M52.904 27.6331C54.0694 26.2281 54.8667 24.3167 54.6454 22.377C52.9587 22.4489 50.8494 23.5017 49.6347 24.8758C48.56 26.0867 47.6 28.0714 47.848 29.9378C49.7427 30.0741 51.688 29.0162 52.904 27.6331Z" fill="#202124"/>
<path d="M88.5266 54.8818H85.4986L83.84 49.8571H78.0746L76.4946 54.8818H73.5466L79.2586 37.7754H82.7866L88.5266 54.8818ZM83.34 47.749L81.84 43.2822C81.6813 42.8258 81.384 41.7512 80.9453 40.0596H80.892C80.7173 40.7871 80.436 41.8618 80.0493 43.2822L78.576 47.749H83.34Z" fill="#202124"/>
<path d="M103.216 48.563C103.216 50.6608 102.628 52.319 101.452 53.5363C100.399 54.6199 99.0905 55.1611 97.5292 55.1611C95.8439 55.1611 94.6332 54.5775 93.8959 53.4103H93.8425V59.9081H90.9999V46.6078C90.9999 45.289 90.9639 43.9354 90.8945 42.5472H93.3945L93.5532 44.5023H93.6065C94.5545 43.0292 95.9932 42.2939 97.9239 42.2939C99.4332 42.2939 100.693 42.8685 101.701 44.019C102.712 45.1707 103.216 46.685 103.216 48.563ZM100.32 48.6632C100.32 47.4626 100.04 46.4729 99.4772 45.6939C98.8625 44.8815 98.0372 44.4753 97.0025 44.4753C96.3012 44.4753 95.6639 44.7015 95.0945 45.1476C94.5239 45.5975 94.1505 46.1849 93.9759 46.9125C93.8879 47.2518 93.8439 47.5295 93.8439 47.748V49.8047C93.8439 50.7019 94.1292 51.459 94.6999 52.0773C95.2705 52.6956 96.0119 53.0041 96.9239 53.0041C97.9945 53.0041 98.8279 52.6056 99.4239 51.8112C100.021 51.0156 100.32 49.9667 100.32 48.6632Z" fill="#202124"/>
<path d="M117.932 48.563C117.932 50.6608 117.344 52.319 116.167 53.5363C115.115 54.6199 113.807 55.1611 112.245 55.1611C110.56 55.1611 109.349 54.5775 108.613 53.4103H108.56V59.9081H105.717V46.6078C105.717 45.289 105.681 43.9354 105.612 42.5472H108.112L108.271 44.5023H108.324C109.271 43.0292 110.709 42.2939 112.641 42.2939C114.149 42.2939 115.409 42.8685 116.42 44.019C117.427 45.1707 117.932 46.685 117.932 48.563ZM115.036 48.6632C115.036 47.4626 114.755 46.4729 114.192 45.6939C113.577 44.8815 112.755 44.4753 111.719 44.4753C111.016 44.4753 110.38 44.7015 109.809 45.1476C109.239 45.5975 108.867 46.1849 108.692 46.9125C108.605 47.2518 108.56 47.5295 108.56 47.748V49.8047C108.56 50.7019 108.845 51.459 109.413 52.0773C109.984 52.6943 110.725 53.0041 111.64 53.0041C112.711 53.0041 113.544 52.6056 114.14 51.8112C114.737 51.0156 115.036 49.9667 115.036 48.6632Z" fill="#202124"/>
<path d="M134.385 50.0843C134.385 51.5394 133.861 52.7233 132.809 53.6372C131.653 54.636 130.044 55.1348 127.976 55.1348C126.067 55.1348 124.536 54.78 123.377 54.0691L124.036 51.7849C125.284 52.5125 126.653 52.8775 128.145 52.8775C129.216 52.8775 130.049 52.6436 130.648 52.1783C131.244 51.7129 131.541 51.0882 131.541 50.3093C131.541 49.6151 131.296 49.0303 130.804 48.5559C130.315 48.0816 129.497 47.6407 128.356 47.2332C125.249 46.1162 123.697 44.4799 123.697 42.3281C123.697 40.9218 124.241 39.7688 125.331 38.8715C126.416 37.973 127.864 37.5244 129.675 37.5244C131.289 37.5244 132.631 37.7956 133.701 38.3368L132.991 40.5709C131.991 40.0464 130.86 39.7842 129.595 39.7842C128.595 39.7842 127.813 40.022 127.253 40.495C126.78 40.9179 126.543 41.4334 126.543 42.044C126.543 42.7201 126.813 43.2793 127.357 43.7189C127.831 44.1251 128.691 44.5647 129.939 45.039C131.465 45.6316 132.587 46.3244 133.308 47.1188C134.027 47.9107 134.385 48.9017 134.385 50.0843Z" fill="#202124"/>
<path d="M143.784 44.6038H140.651V50.5926C140.651 52.1158 141.203 52.8768 142.309 52.8768C142.817 52.8768 143.239 52.8344 143.572 52.7495L143.651 54.8306C143.091 55.0324 142.353 55.134 141.44 55.134C140.317 55.134 139.44 54.8036 138.807 54.1442C138.176 53.4835 137.859 52.3755 137.859 50.8188V44.6012H135.992V42.5445H137.859V40.286L140.651 39.4736V42.5445H143.784V44.6038Z" fill="#202124"/>
<path d="M157.921 48.6128C157.921 50.5088 157.358 52.0654 156.236 53.2827C155.058 54.536 153.496 55.1608 151.548 55.1608C149.67 55.1608 148.176 54.5605 147.061 53.3599C145.946 52.1593 145.389 50.6438 145.389 48.8172C145.389 46.9057 145.962 45.3401 147.113 44.1228C148.261 42.9042 149.81 42.2949 151.758 42.2949C153.636 42.2949 155.146 42.8952 156.286 44.0971C157.377 45.263 157.921 46.7682 157.921 48.6128ZM154.972 48.7015C154.972 47.5639 154.72 46.5882 154.209 45.7746C153.613 44.7899 152.761 44.2989 151.657 44.2989C150.514 44.2989 149.646 44.7912 149.05 45.7746C148.54 46.5895 148.288 47.5806 148.288 48.7529C148.288 49.8905 148.54 50.8661 149.05 51.6785C149.665 52.6632 150.524 53.1542 151.632 53.1542C152.717 53.1542 153.569 52.6529 154.184 51.6528C154.708 50.8237 154.972 49.8378 154.972 48.7015Z" fill="#202124"/>
<path d="M167.161 44.9573C166.88 44.9072 166.58 44.8815 166.265 44.8815C165.265 44.8815 164.492 45.2453 163.948 45.9741C163.475 46.6168 163.237 47.4292 163.237 48.41V54.8821H160.396L160.423 46.4317C160.423 45.0101 160.387 43.7156 160.316 42.5485H162.792L162.896 44.9085H162.975C163.275 44.0974 163.748 43.4444 164.396 42.9547C165.029 42.5138 165.713 42.2939 166.451 42.2939C166.713 42.2939 166.951 42.3119 167.161 42.3441V44.9573Z" fill="#202124"/>
<path d="M179.875 48.1308C179.875 48.6218 179.841 49.0357 179.771 49.3738H171.243C171.276 50.5924 171.688 51.5243 172.48 52.167C173.199 52.7416 174.128 53.0295 175.269 53.0295C176.532 53.0295 177.684 52.8354 178.72 52.4459L179.165 54.3484C177.955 54.8574 176.525 55.1106 174.876 55.1106C172.892 55.1106 171.335 54.5476 170.201 53.4229C169.071 52.2981 168.504 50.7877 168.504 48.893C168.504 47.033 169.031 45.4841 170.085 44.2488C171.189 42.9299 172.681 42.2705 174.559 42.2705C176.403 42.2705 177.799 42.9299 178.747 44.2488C179.497 45.2964 179.875 46.5921 179.875 48.1308ZM177.164 47.4199C177.183 46.6075 176.997 45.9057 176.612 45.3131C176.12 44.5509 175.364 44.1704 174.347 44.1704C173.417 44.1704 172.661 44.5419 172.084 45.2874C171.611 45.88 171.329 46.5908 171.243 47.4186H177.164V47.4199Z" fill="#202124"/>
<path d="M82.4 27.2513C82.4 28.7643 81.9293 29.9032 80.9893 30.668C80.1186 31.3737 78.8813 31.7272 77.2786 31.7272C76.484 31.7272 75.804 31.6938 75.2346 31.6269V23.3604C75.9773 23.2447 76.7773 23.1855 77.6413 23.1855C79.168 23.1855 80.3186 23.5056 81.0946 24.1458C81.964 24.8695 82.4 25.9042 82.4 27.2513ZM80.9266 27.2886C80.9266 26.3078 80.6573 25.5559 80.1186 25.0314C79.58 24.5082 78.7933 24.246 77.7573 24.246C77.3173 24.246 76.9426 24.2743 76.632 24.3334V30.6179C76.804 30.6436 77.1186 30.6552 77.576 30.6552C78.6453 30.6552 79.4706 30.3685 80.052 29.7952C80.6333 29.2219 80.9266 28.3864 80.9266 27.2886Z" fill="#202124"/>
<path d="M90.2119 28.5727C90.2119 29.5047 89.9359 30.2682 89.3839 30.8672C88.8052 31.4829 88.0386 31.7902 87.0812 31.7902C86.1586 31.7902 85.4239 31.4958 84.8759 30.9045C84.3292 30.3145 84.0559 29.5702 84.0559 28.673C84.0559 27.7346 84.3372 26.9647 84.9026 26.367C85.4679 25.7692 86.2279 25.4697 87.1852 25.4697C88.1079 25.4697 88.8492 25.7641 89.4106 26.3541C89.9439 26.9274 90.2119 27.6678 90.2119 28.5727ZM88.7626 28.6164C88.7626 28.0573 88.6372 27.5778 88.3879 27.1781C88.0946 26.6947 87.6772 26.4531 87.1346 26.4531C86.5732 26.4531 86.1466 26.6947 85.8532 27.1781C85.6026 27.5778 85.4786 28.065 85.4786 28.6409C85.4786 29.2 85.6039 29.6795 85.8532 30.0793C86.1559 30.5626 86.5772 30.8042 87.1212 30.8042C87.6546 30.8042 88.0732 30.5587 88.3746 30.0664C88.6332 29.6589 88.7626 29.1756 88.7626 28.6164Z" fill="#202124"/>
<path d="M100.687 25.5928L98.7201 31.6523H97.4401L96.6254 29.021C96.4187 28.3642 96.2507 27.7112 96.1201 27.0633H96.0947C95.9734 27.7292 95.8054 28.3809 95.5894 29.021L94.7241 31.6523H93.4294L91.5801 25.5928H93.0161L93.7267 28.4734C93.8987 29.1547 94.0401 29.8038 94.1534 30.4183H94.1787C94.2827 29.9118 94.4547 29.2665 94.6974 28.4863L95.5894 25.5941H96.7281L97.5827 28.4246C97.7894 29.1148 97.9574 29.7794 98.0867 30.4195H98.1254C98.2201 29.7961 98.3627 29.1316 98.5521 28.4246L99.3147 25.5941H100.687V25.5928Z" fill="#202124"/>
<path d="M107.931 31.6526H106.533V28.1819C106.533 27.1125 106.112 26.5777 105.267 26.5777C104.852 26.5777 104.517 26.7243 104.257 27.0186C104 27.313 103.869 27.66 103.869 28.0572V31.6513H102.472V27.3245C102.472 26.7924 102.455 26.2152 102.421 25.5905H103.649L103.715 26.5379H103.753C103.916 26.2435 104.159 26.0006 104.477 25.8065C104.856 25.5802 105.28 25.4658 105.744 25.4658C106.331 25.4658 106.819 25.6484 107.207 26.0147C107.689 26.4633 107.931 27.133 107.931 28.0225V31.6526Z" fill="#202124"/>
<path d="M111.784 31.6524H110.388V22.8125H111.784V31.6524Z" fill="#202124"/>
<path d="M120.011 28.5727C120.011 29.5047 119.735 30.2682 119.183 30.8672C118.604 31.4829 117.836 31.7902 116.88 31.7902C115.956 31.7902 115.221 31.4958 114.675 30.9045C114.128 30.3145 113.855 29.5702 113.855 28.673C113.855 27.7346 114.136 26.9647 114.701 26.367C115.267 25.7692 116.027 25.4697 116.983 25.4697C117.907 25.4697 118.647 25.7641 119.209 26.3541C119.743 26.9274 120.011 27.6678 120.011 28.5727ZM118.56 28.6164C118.56 28.0573 118.435 27.5778 118.185 27.1781C117.893 26.6947 117.475 26.4531 116.933 26.4531C116.371 26.4531 115.944 26.6947 115.652 27.1781C115.401 27.5778 115.277 28.065 115.277 28.6409C115.277 29.2 115.403 29.6795 115.652 30.0793C115.955 30.5626 116.376 30.8042 116.92 30.8042C117.453 30.8042 117.871 30.5587 118.172 30.0664C118.432 29.6589 118.56 29.1756 118.56 28.6164Z" fill="#202124"/>
<path d="M126.773 31.6526H125.519L125.415 30.9546H125.376C124.947 31.5112 124.335 31.7902 123.54 31.7902C122.947 31.7902 122.467 31.6063 122.105 31.2413C121.777 30.9096 121.613 30.497 121.613 30.0073C121.613 29.2669 121.933 28.7026 122.577 28.3118C123.22 27.921 124.124 27.7295 125.288 27.7385V27.6254C125.288 26.8271 124.853 26.4287 123.983 26.4287C123.363 26.4287 122.816 26.579 122.344 26.8773L122.06 25.9929C122.644 25.6445 123.365 25.4697 124.216 25.4697C125.859 25.4697 126.683 26.3053 126.683 27.9763V30.2078C126.683 30.8132 126.713 31.2953 126.773 31.6526ZM125.323 29.5702V28.6357C123.781 28.61 123.011 29.0175 123.011 29.8569C123.011 30.1731 123.099 30.4096 123.279 30.5677C123.459 30.7258 123.688 30.8042 123.961 30.8042C124.268 30.8042 124.555 30.7104 124.816 30.524C125.079 30.3363 125.24 30.0985 125.3 29.8068C125.315 29.7412 125.323 29.6615 125.323 29.5702Z" fill="#202124"/>
<path d="M134.713 31.6524H133.473L133.408 30.6793H133.369C132.973 31.4197 132.299 31.7899 131.351 31.7899C130.593 31.7899 129.963 31.5033 129.463 30.93C128.963 30.3567 128.713 29.6124 128.713 28.6985C128.713 27.7177 128.984 26.9233 129.528 26.3166C130.055 25.751 130.7 25.4682 131.468 25.4682C132.312 25.4682 132.903 25.742 133.239 26.2909H133.265V22.8125H134.664V30.0199C134.664 30.6099 134.68 31.1536 134.713 31.6524ZM133.265 29.0969V28.0866C133.265 27.9118 133.252 27.7704 133.227 27.6624C133.148 27.3385 132.979 27.066 132.721 26.8462C132.461 26.6264 132.148 26.5158 131.787 26.5158C131.265 26.5158 130.857 26.7151 130.557 27.1148C130.26 27.5146 130.109 28.0249 130.109 28.6483C130.109 29.2473 130.252 29.7332 130.539 30.1073C130.841 30.5058 131.249 30.705 131.76 30.705C132.219 30.705 132.585 30.5392 132.864 30.2063C133.133 29.8991 133.265 29.5289 133.265 29.0969Z" fill="#202124"/>
<path d="M146.664 28.5727C146.664 29.5047 146.388 30.2682 145.836 30.8672C145.257 31.4829 144.492 31.7902 143.533 31.7902C142.612 31.7902 141.877 31.4958 141.328 30.9045C140.781 30.3145 140.508 29.5702 140.508 28.673C140.508 27.7346 140.789 26.9647 141.355 26.367C141.92 25.7692 142.68 25.4697 143.639 25.4697C144.56 25.4697 145.303 25.7641 145.863 26.3541C146.396 26.9274 146.664 27.6678 146.664 28.5727ZM145.216 28.6164C145.216 28.0573 145.091 27.5778 144.841 27.1781C144.547 26.6947 144.131 26.4531 143.587 26.4531C143.027 26.4531 142.6 26.6947 142.305 27.1781C142.055 27.5778 141.931 28.065 141.931 28.6409C141.931 29.2 142.056 29.6795 142.305 30.0793C142.608 30.5626 143.029 30.8042 143.573 30.8042C144.107 30.8042 144.527 30.5587 144.828 30.0664C145.085 29.6589 145.216 29.1756 145.216 28.6164Z" fill="#202124"/>
<path d="M154.177 31.6526H152.781V28.1819C152.781 27.1125 152.36 26.5777 151.513 26.5777C151.099 26.5777 150.764 26.7243 150.505 27.0186C150.247 27.313 150.117 27.66 150.117 28.0572V31.6513H148.719V27.3245C148.719 26.7924 148.703 26.2152 148.669 25.5905H149.896L149.961 26.5379H150C150.164 26.2435 150.407 26.0006 150.724 25.8065C151.104 25.5802 151.527 25.4658 151.992 25.4658C152.577 25.4658 153.065 25.6484 153.453 26.0147C153.937 26.4633 154.177 27.133 154.177 28.0225V31.6526Z" fill="#202124"/>
<path d="M163.581 26.6021H162.043V29.5458C162.043 30.2939 162.316 30.6679 162.857 30.6679C163.108 30.6679 163.316 30.6474 163.48 30.605L163.516 31.6269C163.24 31.7271 162.877 31.7773 162.431 31.7773C161.879 31.7773 161.449 31.6153 161.139 31.2914C160.827 30.9674 160.672 30.4224 160.672 29.6576V26.6021H159.753V25.5931H160.672V24.4825L162.041 24.084V25.5918H163.58V26.6021H163.581Z" fill="#202124"/>
<path d="M170.979 31.6524H169.58V28.2074C169.58 27.1212 169.159 26.5775 168.315 26.5775C167.667 26.5775 167.224 26.8924 166.981 27.5223C166.94 27.6547 166.916 27.8167 166.916 28.0069V31.6511H165.52V22.8125H166.916V26.4644H166.943C167.383 25.7998 168.013 25.4682 168.831 25.4682C169.409 25.4682 169.888 25.6507 170.268 26.0171C170.741 26.4734 170.979 27.1521 170.979 28.0493V31.6524Z" fill="#202124"/>
<path d="M178.609 28.3361C178.609 28.5777 178.591 28.7808 178.557 28.9467H174.367C174.385 29.5457 174.585 30.002 174.973 30.3182C175.328 30.601 175.785 30.7424 176.345 30.7424C176.965 30.7424 177.531 30.6473 178.04 30.4557L178.259 31.3915C177.663 31.6409 176.961 31.7656 176.149 31.7656C175.176 31.7656 174.409 31.4892 173.855 30.9365C173.297 30.3838 173.021 29.6421 173.021 28.7114C173.021 27.7975 173.279 27.0365 173.797 26.4298C174.339 25.7819 175.071 25.458 175.995 25.458C176.899 25.458 177.585 25.7819 178.049 26.4298C178.424 26.944 178.609 27.5802 178.609 28.3361ZM177.276 27.9877C177.287 27.588 177.195 27.2435 177.005 26.953C176.763 26.5789 176.393 26.3912 175.893 26.3912C175.437 26.3912 175.065 26.5738 174.781 26.9401C174.549 27.2319 174.412 27.5802 174.367 27.9877H177.276Z" fill="#202124"/>
<defs>
<filter id="filter0_d" x="0" y="0.430664" width="214" height="89.3274" filterUnits="userSpaceOnUse" color-interpolation-filters="sRGB">
<feFlood flood-opacity="0" result="BackgroundImageFix"/>
<feColorMatrix in="SourceAlpha" type="matrix" values="0 0 0 0 0 0 0 0 0 0 0 0 0 0 0 0 0 0 127 0"/>
<feOffset dy="5"/>
<feGaussianBlur stdDeviation="7.5"/>
<feColorMatrix type="matrix" values="0 0 0 0 0 0 0 0 0 0.00166667 0 0 0 0 0.141667 0 0 0 0.07 0"/>
<feBlend mode="normal" in2="BackgroundImageFix" result="effect1_dropShadow"/>
<feBlend mode="normal" in="SourceGraphic" in2="effect1_dropShadow" result="shape"/>
</filter>
</defs>
</svg>
