<svg width="210" height="90" viewBox="0 0 210 90" fill="none" xmlns="http://www.w3.org/2000/svg">
<g filter="url(#filter0_d)">
<path d="M188.333 69.7578H21.6667C18.0017 69.7578 15 66.4188 15 62.3419V17.8464C15 13.7695 18.0017 10.4305 21.6667 10.4305H188.333C191.998 10.4305 195 13.7695 195 17.8464V62.3419C195 66.4188 191.998 69.7578 188.333 69.7578Z" fill="white"/>
</g>
<path d="M78.1363 27.5531C78.1363 28.6264 77.8035 29.4861 77.1477 30.1272C76.3937 30.8872 75.4118 31.2696 74.2084 31.2696C73.0583 31.2696 72.0763 30.8807 71.2708 30.1143C70.4636 29.3366 70.0608 28.3822 70.0608 27.2398C70.0608 26.0973 70.4636 25.1429 71.2708 24.3717C72.0763 23.5988 73.0583 23.21 74.2084 23.21C74.781 23.21 75.3269 23.324 75.8478 23.5361C76.3671 23.7498 76.7899 24.0391 77.0961 24.3958L76.4004 25.0738C75.8661 24.4649 75.1388 24.1644 74.2084 24.1644C73.3696 24.1644 72.6422 24.4472 72.0248 25.0176C71.4139 25.5896 71.1077 26.3303 71.1077 27.2398C71.1077 28.1492 71.4139 28.8964 72.0248 29.4684C72.6422 30.0324 73.3696 30.3216 74.2084 30.3216C75.0989 30.3216 75.8478 30.0324 76.4387 29.4619C76.8281 29.0844 77.0495 28.5638 77.1078 27.8986H74.2084V26.9698H78.0764C78.123 27.1707 78.1363 27.3651 78.1363 27.5531Z" fill="#202124" stroke="white" stroke-width="0.16" stroke-miterlimit="10"/>
<path d="M84.273 24.3331H80.6397V26.7754H83.9152V27.7041H80.6397V30.1464H84.273V31.0928H79.6111V23.3867H84.273V24.3331Z" fill="#202124" stroke="white" stroke-width="0.16" stroke-miterlimit="10"/>
<path d="M88.6036 31.0928H87.575V24.3331H85.3464V23.3867H90.8339V24.3331H88.6036V31.0928Z" fill="#202124" stroke="white" stroke-width="0.16" stroke-miterlimit="10"/>
<path d="M94.8052 31.0928V23.3867H95.8321V31.0928H94.8052Z" fill="#202124" stroke="white" stroke-width="0.16" stroke-miterlimit="10"/>
<path d="M100.384 31.0928H99.3639V24.3331H97.127V23.3867H102.621V24.3331H100.384V31.0928Z" fill="#202124" stroke="white" stroke-width="0.16" stroke-miterlimit="10"/>
<path d="M113.01 30.1014C112.223 30.8807 111.248 31.2696 110.084 31.2696C108.914 31.2696 107.939 30.8807 107.152 30.1014C106.366 29.3238 105.975 28.3693 105.975 27.2398C105.975 26.1102 106.366 25.1558 107.152 24.3781C107.939 23.5988 108.914 23.21 110.084 23.21C111.241 23.21 112.216 23.5988 113.004 24.3845C113.796 25.1686 114.187 26.1166 114.187 27.2398C114.187 28.3693 113.796 29.3238 113.01 30.1014ZM107.912 29.4555C108.505 30.0324 109.225 30.3216 110.084 30.3216C110.936 30.3216 111.664 30.0324 112.25 29.4555C112.84 28.8787 113.14 28.138 113.14 27.2398C113.14 26.3416 112.84 25.6009 112.25 25.024C111.664 24.4472 110.936 24.158 110.084 24.158C109.225 24.158 108.505 24.4472 107.912 25.024C107.321 25.6009 107.022 26.3416 107.022 27.2398C107.022 28.138 107.321 28.8787 107.912 29.4555Z" fill="#202124" stroke="white" stroke-width="0.16" stroke-miterlimit="10"/>
<path d="M115.63 31.0928V23.3867H116.878L120.759 29.38H120.804L120.759 27.8986V23.3867H121.786V31.0928H120.715L116.65 24.8039H116.605L116.65 26.2918V31.0928H115.63Z" fill="#202124" stroke="white" stroke-width="0.16" stroke-miterlimit="10"/>
<path d="M105.722 42.3466C102.594 42.3466 100.04 44.6443 100.04 47.8145C100.04 50.9589 102.594 53.2807 105.722 53.2807C108.856 53.2807 111.411 50.9589 111.411 47.8145C111.411 44.6443 108.856 42.3466 105.722 42.3466ZM105.722 51.1276C104.006 51.1276 102.529 49.7603 102.529 47.8145C102.529 45.8429 104.006 44.4997 105.722 44.4997C107.438 44.4997 108.921 45.8429 108.921 47.8145C108.921 49.7603 107.438 51.1276 105.722 51.1276ZM93.3238 42.3466C90.1898 42.3466 87.6417 44.6443 87.6417 47.8145C87.6417 50.9589 90.1898 53.2807 93.3238 53.2807C96.4562 53.2807 99.006 50.9589 99.006 47.8145C99.006 44.6443 96.4562 42.3466 93.3238 42.3466ZM93.3238 51.1276C91.6062 51.1276 90.1249 49.7603 90.1249 47.8145C90.1249 45.8429 91.6062 44.4997 93.3238 44.4997C95.0398 44.4997 96.5161 45.8429 96.5161 47.8145C96.5161 49.7603 95.0398 51.1276 93.3238 51.1276ZM78.5708 44.0225V46.3459H84.3179C84.1498 47.6441 83.7004 48.5986 83.0114 49.2638C82.1725 50.0672 80.866 50.9589 78.5708 50.9589C75.034 50.9589 72.2645 48.2033 72.2645 44.7889C72.2645 41.3745 75.034 38.6189 78.5708 38.6189C80.4832 38.6189 81.8746 39.3403 82.9015 40.2754L84.5975 38.6381C83.1612 37.3141 81.2505 36.297 78.5708 36.297C73.7208 36.297 69.6448 40.1067 69.6448 44.7889C69.6448 49.4711 73.7208 53.2807 78.5708 53.2807C81.1922 53.2807 83.1612 52.4516 84.709 50.8963C86.2952 49.365 86.7895 47.2119 86.7895 45.4734C86.7895 44.9335 86.7429 44.437 86.6597 44.0225H78.5708ZM138.898 45.8237C138.43 44.6009 136.987 42.3466 134.048 42.3466C131.135 42.3466 128.71 44.5623 128.71 47.8145C128.71 50.877 131.11 53.2807 134.327 53.2807C136.929 53.2807 138.43 51.7495 139.048 50.8577L137.117 49.6157C136.473 50.5251 135.596 51.1276 134.327 51.1276C133.067 51.1276 132.164 50.5701 131.584 49.4711L139.159 46.4455L138.898 45.8237ZM131.175 47.6441C131.11 45.536 132.871 44.4563 134.133 44.4563C135.121 44.4563 135.96 44.9335 136.24 45.6164L131.175 47.6441ZM125.019 52.9481H127.508V36.8803H125.019V52.9481ZM120.941 43.5645H120.858C120.298 42.925 119.232 42.3466 117.88 42.3466C115.044 42.3466 112.451 44.7503 112.451 47.8321C112.451 50.8963 115.044 53.2807 117.88 53.2807C119.232 53.2807 120.298 52.6975 120.858 52.0387H120.941V52.8228C120.941 54.9132 119.784 56.0364 117.918 56.0364C116.397 56.0364 115.453 54.9759 115.064 54.0841L112.899 54.9566C113.523 56.4059 115.175 58.1895 117.918 58.1895C120.838 58.1895 123.301 56.5313 123.301 52.4966V42.6792H120.941V43.5645ZM118.093 51.1276C116.377 51.1276 114.941 49.741 114.941 47.8321C114.941 45.9056 116.377 44.4997 118.093 44.4997C119.784 44.4997 121.117 45.9056 121.117 47.8321C121.117 49.741 119.784 51.1276 118.093 51.1276ZM150.555 36.8803H144.6V52.9481H147.083V46.86H150.555C153.313 46.86 156.018 44.9335 156.018 41.8694C156.018 38.8068 153.306 36.8803 150.555 36.8803ZM150.62 44.625H147.083V39.1153H150.62C152.474 39.1153 153.533 40.6016 153.533 41.8694C153.533 43.113 152.474 44.625 150.62 44.625ZM165.97 42.3161C164.176 42.3161 162.311 43.0809 161.543 44.776L163.747 45.6678C164.221 44.776 165.093 44.4868 166.015 44.4868C167.304 44.4868 168.61 45.234 168.63 46.5531V46.7219C168.181 46.4712 167.219 46.1 166.035 46.1C163.662 46.1 161.244 47.3614 161.244 49.7153C161.244 51.8684 163.188 53.255 165.373 53.255C167.044 53.255 167.966 52.5272 168.545 51.6804H168.63V52.9224H171.029V46.7588C171.029 43.91 168.825 42.3161 165.97 42.3161ZM165.671 51.1212C164.859 51.1212 163.727 50.7324 163.727 49.7603C163.727 48.5166 165.138 48.0394 166.36 48.0394C167.453 48.0394 167.966 48.2724 168.63 48.5793C168.435 50.0672 167.109 51.1212 165.671 51.1212ZM179.766 42.6679L176.912 49.6333H176.827L173.876 42.6679H171.198L175.632 52.4018L173.102 57.8183H175.697L182.529 42.6679H179.766ZM157.382 52.9481H159.872V36.8803H157.382V52.9481Z" fill="#202124"/>
<path d="M28.8941 24.0759C28.503 24.4711 28.2766 25.0865 28.2766 25.8835V54.3107C28.2766 55.1076 28.503 55.723 28.8941 56.1183L28.9906 56.2051L45.4912 40.2819V39.9059L28.9906 23.9827L28.8941 24.0759Z" fill="url(#paint0_linear)"/>
<path d="M50.9856 45.5928L45.4915 40.2824V39.9064L50.9922 34.596L51.1154 34.665L57.6297 38.2434C59.4889 39.2588 59.4889 40.9299 57.6297 41.9518L51.1154 45.5237L50.9856 45.5928Z" fill="url(#paint1_linear)"/>
<path d="M51.1154 45.5234L45.4914 40.094L28.8943 56.1185C29.5118 56.7451 30.5187 56.8206 31.6638 56.194L51.1154 45.5234Z" fill="url(#paint2_linear)"/>
<path d="M51.1154 34.6644L31.6638 23.9938C30.5187 23.3736 29.5118 23.4491 28.8943 24.0757L45.4914 40.0938L51.1154 34.6644Z" fill="url(#paint3_linear)"/>
<defs>
<filter id="filter0_d" x="0" y="0.430664" width="210" height="89.3274" filterUnits="userSpaceOnUse" color-interpolation-filters="sRGB">
<feFlood flood-opacity="0" result="BackgroundImageFix"/>
<feColorMatrix in="SourceAlpha" type="matrix" values="0 0 0 0 0 0 0 0 0 0 0 0 0 0 0 0 0 0 127 0"/>
<feOffset dy="5"/>
<feGaussianBlur stdDeviation="7.5"/>
<feColorMatrix type="matrix" values="0 0 0 0 0 0 0 0 0 0.00166667 0 0 0 0 0.141667 0 0 0 0.07 0"/>
<feBlend mode="normal" in2="BackgroundImageFix" result="effect1_dropShadow"/>
<feBlend mode="normal" in="SourceGraphic" in2="effect1_dropShadow" result="shape"/>
</filter>
<linearGradient id="paint0_linear" x1="44.0262" y1="54.6067" x2="22.467" y2="32.2748" gradientUnits="userSpaceOnUse">
<stop stop-color="#00A0FF"/>
<stop offset="0.0066" stop-color="#00A1FF"/>
<stop offset="0.2601" stop-color="#00BEFF"/>
<stop offset="0.5122" stop-color="#00D2FF"/>
<stop offset="0.7604" stop-color="#00DFFF"/>
<stop offset="1" stop-color="#00E3FF"/>
</linearGradient>
<linearGradient id="paint1_linear" x1="60.0506" y1="40.0926" x2="27.8324" y2="40.0926" gradientUnits="userSpaceOnUse">
<stop stop-color="#FFE000"/>
<stop offset="0.4087" stop-color="#FFBD00"/>
<stop offset="0.7754" stop-color="#FFA500"/>
<stop offset="1" stop-color="#FF9C00"/>
</linearGradient>
<linearGradient id="paint2_linear" x1="48.0572" y1="37.1426" x2="18.8213" y2="6.85867" gradientUnits="userSpaceOnUse">
<stop stop-color="#FF3A44"/>
<stop offset="1" stop-color="#C31162"/>
</linearGradient>
<linearGradient id="paint3_linear" x1="24.7164" y1="65.5758" x2="37.7716" y2="52.0528" gradientUnits="userSpaceOnUse">
<stop stop-color="#32A071"/>
<stop offset="0.0685" stop-color="#2DA771"/>
<stop offset="0.4762" stop-color="#15CF74"/>
<stop offset="0.8009" stop-color="#06E775"/>
<stop offset="1" stop-color="#00F076"/>
</linearGradient>
</defs>
</svg>
