<svg width="248" height="38" viewBox="0 0 248 38" fill="none" xmlns="http://www.w3.org/2000/svg">
<path d="M5.95386 3.8147e-06V15.9163L7.0739 13.3815L9.25502 13.5584L5.95386 19.1585V19.5712H26.1145V3.8147e-06H5.95386ZM24.9356 13.4994L20.927 12.7331L18.569 10.3751L22.4007 9.72665L24.9356 13.4994ZM21.5754 8.54766L17.7437 9.6677L15.3858 7.30973L19.0406 4.83385L21.5754 8.54766ZM16.7416 10.1982L13.0867 12.6741L10.9056 12.2025L14.4426 8.31186L16.7416 10.1982ZM15.5626 3.8147e-06H15.8574L18.2153 3.53697L14.6194 6.54338L12.2614 4.18541L15.5626 3.8147e-06ZM7.95814 11.4951L11.3182 5.77704L13.6173 7.66342L10.1393 12.0257L7.95814 11.4951ZM9.90347 13.4994L12.0846 13.6763L8.54763 17.508L6.54335 18.8638L9.90347 13.4994ZM7.30969 19.3943H6.89705L9.49082 17.2132L7.30969 19.3943ZM9.66767 16.9185L12.6741 13.7352L15.0321 13.9121L9.66767 16.9185ZM13.912 12.851L17.5669 10.8467L19.9249 12.792L16.0932 13.3815L13.912 12.851ZM16.8005 13.4994L20.6912 13.3815L22.9902 15.2679L16.8005 13.4994ZM26.1145 17.1543L24.0513 15.8574L21.6933 13.5584L25.7019 14.8552L26.0556 15.3858V17.1543H26.1145Z" fill="#35A936"/>
<path d="M28.2956 18.5101L26.1145 17.1543V15.3268L28.2956 18.5101Z" fill="#35A936"/>
<path d="M3.89062 20.5144L5.95385 15.9163V19.0996L3.89062 20.5144Z" fill="#35A936"/>
<path d="M5.71805 20.3965L6.83808 19.4533H7.30968L6.42544 20.2786L2.47583 26.9988L5.71805 20.3965Z" fill="#35A936"/>
<path d="M3.06537 22.6366L5.06964 20.986L1.82743 28.1188L0 31.1842L3.06537 22.6366Z" fill="#35A936"/>
<path d="M9.66769 24.9496L9.54979 25.8338H6.07178L6.18967 24.8317C7.54551 24.0064 8.31185 23.4759 8.54765 23.2401C8.78345 23.0043 8.90134 22.7685 8.90134 22.5327C8.90134 22.3558 8.8424 22.2379 8.7245 22.12C8.6066 22.0021 8.42975 21.9432 8.2529 21.9432C7.84026 21.9432 7.54551 22.2379 7.42761 22.8274L6.48442 22.5327C6.60232 22.0611 6.83812 21.7074 7.19181 21.4126C7.54551 21.1179 7.8992 21 8.3708 21C8.84239 21 9.25504 21.1179 9.60874 21.4126C9.90349 21.7074 10.0803 22.0611 10.0803 22.4737C10.0803 22.8274 9.96243 23.1222 9.78558 23.358C9.60874 23.5938 9.31399 23.8296 8.96029 24.0654C8.6066 24.3012 8.07605 24.5959 7.30971 24.9496H9.66769Z" fill="#35A936"/>
<path d="M12.1437 25.8928C11.6132 25.8928 11.2006 25.7159 10.9058 25.3033C10.6111 24.8907 10.4932 24.4191 10.4932 23.8296C10.4932 23.1222 10.67 22.4737 11.0237 21.8842C11.3774 21.2947 11.9079 21 12.5564 21C13.0869 21 13.4996 21.1768 13.7943 21.5305C14.0891 21.8842 14.2659 22.4148 14.2659 23.0043C14.2659 23.7706 14.0891 24.4191 13.7354 25.0086C13.2638 25.598 12.7922 25.8928 12.1437 25.8928ZM12.2027 25.0675C12.5564 25.0675 12.7922 24.7728 12.9101 24.2422C13.028 23.7117 13.0869 23.1811 13.0869 22.7685C13.0869 22.3558 13.028 22.12 12.9101 21.9432C12.7922 21.8253 12.6153 21.7663 12.4385 21.7663C12.2616 21.7663 12.0848 21.8253 11.9669 22.0021C11.849 22.179 11.7311 22.4148 11.6722 22.8274C11.5543 23.2401 11.5543 23.6527 11.5543 24.0654C11.5543 24.4191 11.6132 24.7138 11.7311 24.8317C11.79 25.0086 11.9669 25.0675 12.2027 25.0675Z" fill="#35A936"/>
<path d="M15.6807 25.8338L17.4491 22.3558H18.5692L19.0408 25.8338H18.0386L17.7439 23.299H17.6849L16.447 25.8338H15.6807Z" fill="#35A936"/>
<path d="M22.7544 24.2422H20.4554C20.4554 24.3601 20.4554 24.4191 20.4554 24.478C20.4554 24.7138 20.5143 24.8907 20.6322 25.0086C20.7501 25.1265 20.868 25.1854 21.0449 25.1854C21.3986 25.1854 21.6344 25.0086 21.7523 24.6549L22.6365 24.7728C22.5186 25.1265 22.3418 25.3622 22.047 25.598C21.7523 25.8338 21.3986 25.8928 21.0449 25.8928C20.5733 25.8928 20.2196 25.7159 19.9249 25.4212C19.6301 25.1265 19.5122 24.7138 19.5122 24.2422C19.5122 23.7117 19.6891 23.2401 20.0428 22.8274C20.3964 22.4148 20.8091 22.179 21.3986 22.179C21.8702 22.179 22.2239 22.3558 22.5186 22.6506C22.7544 22.9453 22.9313 23.358 22.9313 23.7706C22.7544 23.8885 22.7544 24.0654 22.7544 24.2422ZM20.5733 23.6527H21.8702C21.8702 23.5938 21.8702 23.4759 21.8702 23.4169C21.8702 23.2401 21.8112 23.0632 21.6933 23.0043C21.5754 22.8864 21.4575 22.8274 21.3396 22.8274C20.927 22.8864 20.6322 23.1222 20.5733 23.6527Z" fill="#35A936"/>
<path d="M23.58 25.8339L24.0516 23.0632H23.1084L23.2263 22.2969H26.1148L25.9969 23.0632H25.0537L24.5821 25.8339H23.58Z" fill="#35A936"/>
<path d="M117.132 31.1906V33.077H111.591V31.1906H117.132Z" fill="black"/>
<path d="M122.025 29.599H125.503C126.21 29.599 126.8 29.7758 127.095 30.0706C127.448 30.3653 127.625 30.778 127.625 31.3675C127.625 31.7212 127.507 32.0159 127.33 32.2517C127.154 32.4875 126.859 32.6644 126.446 32.7823C126.918 32.9002 127.272 33.077 127.507 33.3718C127.743 33.6665 127.861 34.0791 127.861 34.5507C127.861 35.1402 127.684 35.6708 127.272 35.9655C126.859 36.3192 126.21 36.4961 125.267 36.4961H121.966V29.599H122.025ZM123.617 30.9548V32.3107H125.09C125.326 32.3107 125.562 32.2517 125.68 32.1338C125.798 32.0159 125.916 31.8391 125.916 31.6033C125.916 31.4264 125.857 31.2496 125.68 31.1317C125.562 31.0138 125.326 30.9548 125.031 30.9548H123.617ZM123.617 33.6076V35.1992H125.326C125.562 35.1992 125.739 35.1402 125.975 35.0223C126.151 34.9044 126.269 34.6686 126.269 34.4328C126.269 34.1381 126.151 33.9612 125.975 33.8433C125.798 33.7254 125.503 33.6665 125.149 33.6665H123.617V33.6076Z" fill="black"/>
<path d="M131.103 29.599H132.754L135.348 36.4961H133.638L133.166 35.1992H130.691L130.278 36.4961H128.568L131.103 29.599ZM131.044 34.0202H132.813L131.928 31.4264L131.044 34.0202Z" fill="black"/>
<path d="M137.764 35.1992H139.887V29.6579H141.537V35.1992H143.659V29.6579H145.31V36.555H136.173V29.6579H137.823V35.1992H137.764Z" fill="black"/>
<path d="M154.271 36.6729C153.15 36.6729 152.266 36.3192 151.677 35.6708C151.087 35.0223 150.792 34.1381 150.792 33.0181C150.792 31.957 151.087 31.0727 151.677 30.3653C152.266 29.7169 153.15 29.3632 154.271 29.3632C155.391 29.3632 156.275 29.7169 156.864 30.3653C157.454 31.0138 157.749 31.898 157.749 33.0181C157.749 34.1381 157.454 35.0223 156.864 35.6708C156.275 36.3782 155.391 36.6729 154.271 36.6729ZM154.271 35.376C154.86 35.376 155.273 35.1992 155.567 34.7865C155.862 34.3739 155.98 33.7844 155.98 33.077C155.98 32.3696 155.862 31.7801 155.567 31.3675C155.273 30.9548 154.86 30.778 154.271 30.778C153.681 30.778 153.268 30.9548 152.974 31.3675C152.679 31.7212 152.561 32.3107 152.561 33.077C152.561 33.8434 152.679 34.4328 152.974 34.7865C153.268 35.1992 153.681 35.376 154.271 35.376Z" fill="black"/>
<path d="M160.755 30.9548V36.4961H159.104V29.599H164.94V36.4961H163.29V30.9548H160.755Z" fill="black"/>
<path d="M168.3 32.3696H171.66V33.6665H168.3V35.1992H172.191V36.555H166.65V29.6579H172.073V31.0138H168.3V32.3696Z" fill="black"/>
<path d="M173.37 29.599H176.553C177.437 29.599 178.086 29.7758 178.498 30.1885C178.911 30.5422 179.147 31.1317 179.147 31.8391C179.147 32.6054 178.911 33.1949 178.498 33.5486C178.027 33.9023 177.378 34.1381 176.553 34.1381H175.02V36.4961H173.37V29.599V29.599ZM175.02 30.9548V32.7823H176.317C176.73 32.7823 176.966 32.7233 177.202 32.5465C177.378 32.3696 177.496 32.1338 177.496 31.8391C177.496 31.5443 177.437 31.3085 177.261 31.1906C177.084 31.0138 176.789 30.9548 176.317 30.9548H175.02V30.9548Z" fill="black"/>
<path d="M182.153 29.599H183.804L186.398 36.4961H184.688L184.217 35.1992H181.741L181.328 36.4961H179.619L182.153 29.599ZM182.095 34.0202H183.863L182.979 31.4264L182.095 34.0202Z" fill="black"/>
<path d="M188.697 30.9548H186.634V29.599H192.411V30.9548H190.347V36.4961H188.697V30.9548Z" fill="black"/>
<path d="M196.655 36.6729C195.535 36.6729 194.651 36.3192 194.061 35.6708C193.472 35.0223 193.177 34.1381 193.177 33.0181C193.177 31.957 193.472 31.0727 194.061 30.3653C194.651 29.7169 195.535 29.3632 196.655 29.3632C197.775 29.3632 198.659 29.7169 199.249 30.3653C199.838 31.0138 200.133 31.898 200.133 33.0181C200.133 34.1381 199.838 35.0223 199.249 35.6708C198.6 36.3782 197.775 36.6729 196.655 36.6729ZM196.655 35.376C197.245 35.376 197.657 35.1992 197.952 34.7865C198.247 34.3739 198.365 33.7844 198.365 33.077C198.365 32.3696 198.247 31.7801 197.952 31.3675C197.657 30.9548 197.245 30.778 196.655 30.778C196.066 30.778 195.653 30.9548 195.358 31.3675C195.063 31.7212 194.945 32.3107 194.945 33.077C194.945 33.8434 195.063 34.4328 195.358 34.7865C195.594 35.1992 196.066 35.376 196.655 35.376Z" fill="black"/>
<path d="M201.489 29.599H204.672C205.556 29.599 206.205 29.7758 206.617 30.1885C207.03 30.5422 207.266 31.1317 207.266 31.8391C207.266 32.6054 207.03 33.1949 206.617 33.5486C206.146 33.9023 205.497 34.1381 204.672 34.1381H203.081V36.4961H201.43V29.599H201.489ZM203.081 30.9548V32.7823H204.377C204.79 32.7823 205.026 32.7233 205.262 32.5465C205.438 32.3696 205.556 32.1338 205.556 31.8391C205.556 31.5443 205.497 31.3085 205.321 31.1906C205.144 31.0138 204.849 30.9548 204.377 30.9548H203.081V30.9548Z" fill="black"/>
<path d="M217.11 34.0792H218.702C218.584 34.9634 218.289 35.6118 217.7 36.0245C217.169 36.4371 216.403 36.6729 215.519 36.6729C214.399 36.6729 213.573 36.3782 212.984 35.7887C212.394 35.1992 212.159 34.3149 212.159 33.1949C212.159 31.898 212.453 30.9548 213.102 30.3653C213.691 29.7758 214.517 29.4221 215.519 29.4221C216.521 29.4221 217.287 29.6579 217.759 30.1295C218.289 30.6011 218.584 31.1906 218.584 31.957H216.993C216.934 31.5443 216.757 31.2496 216.521 31.0727C216.285 30.8959 215.931 30.778 215.519 30.778C215.047 30.778 214.635 30.9548 214.34 31.3675C214.045 31.7801 213.868 32.3696 213.868 33.136C213.868 33.7844 213.986 34.3739 214.281 34.7865C214.576 35.1992 214.988 35.376 215.519 35.376C215.931 35.376 216.285 35.2581 216.521 35.0223C216.875 34.7865 217.051 34.4328 217.11 34.0792Z" fill="black"/>
<path d="M219.94 29.599H223.418C224.125 29.599 224.715 29.7758 225.01 30.0706C225.363 30.3653 225.54 30.778 225.54 31.3675C225.54 31.7212 225.422 32.0159 225.245 32.2517C225.069 32.4875 224.774 32.6644 224.361 32.7823C224.833 32.9002 225.187 33.077 225.422 33.3718C225.658 33.6665 225.776 34.0791 225.776 34.5507C225.776 35.1402 225.599 35.6708 225.187 35.9655C224.774 36.3192 224.125 36.4961 223.182 36.4961H219.881V29.599H219.94ZM221.532 30.9548V32.3107H223.005C223.241 32.3107 223.477 32.2517 223.595 32.1338C223.713 32.0159 223.831 31.8391 223.831 31.6033C223.831 31.4264 223.772 31.2496 223.595 31.1317C223.477 31.0138 223.241 30.9548 222.946 30.9548H221.532ZM221.532 33.6076V35.1992H223.241C223.477 35.1992 223.654 35.1402 223.89 35.0223C224.067 34.9044 224.184 34.6686 224.184 34.4328C224.184 34.1381 224.067 33.9612 223.89 33.8433C223.713 33.7254 223.418 33.6665 223.064 33.6665H221.532V33.6076Z" fill="black"/>
<path d="M231.199 34.1381H230.315L228.959 36.4961H227.014L228.664 33.9612C228.134 33.9023 227.662 33.6665 227.368 33.3128C227.014 32.9591 226.896 32.4286 226.896 31.7801C226.896 31.0727 227.132 30.5422 227.544 30.1295C227.957 29.7758 228.606 29.54 229.372 29.54H232.85V36.4371H231.199V34.1381ZM231.199 30.9548H229.667C229.313 30.9548 229.018 31.0138 228.841 31.1906C228.664 31.3675 228.547 31.5443 228.547 31.8391C228.547 32.1338 228.664 32.3696 228.841 32.5465C229.018 32.7233 229.313 32.7823 229.667 32.7823H231.14V30.9548H231.199Z" fill="black"/>
<path d="M234.147 34.1381H235.738C235.738 34.5507 235.915 34.9044 236.21 35.0813C236.505 35.2581 236.858 35.376 237.389 35.376C237.861 35.376 238.214 35.3171 238.45 35.1402C238.686 34.9634 238.804 34.7276 238.804 34.4918C238.804 34.1971 238.686 34.0202 238.509 33.8434C238.332 33.7255 238.037 33.6076 237.625 33.6076H236.623V32.3107H237.448C237.861 32.3107 238.155 32.2517 238.332 32.1338C238.509 32.0159 238.627 31.7801 238.627 31.5443C238.627 31.3085 238.509 31.0727 238.273 30.9548C238.037 30.778 237.743 30.719 237.271 30.719C236.858 30.719 236.564 30.778 236.328 30.9548C236.092 31.1317 235.974 31.4264 235.974 31.7801H234.324C234.383 30.9548 234.618 30.3653 235.09 29.9527C235.561 29.5401 236.328 29.3632 237.33 29.3632C238.273 29.3632 238.981 29.54 239.511 29.8937C239.983 30.2474 240.277 30.719 240.277 31.3085C240.277 31.7212 240.16 32.0159 239.924 32.3107C239.688 32.6054 239.393 32.7233 238.922 32.8412C239.452 32.9591 239.806 33.136 240.042 33.4307C240.277 33.7255 240.395 34.0792 240.454 34.6097C240.454 35.3171 240.16 35.8476 239.629 36.2013C239.098 36.555 238.273 36.6729 237.271 36.6729C236.151 36.6729 235.385 36.4371 234.913 36.0245C234.441 35.6118 234.206 34.9634 234.147 34.1381Z" fill="black"/>
<path d="M243.579 34.0791L246.349 29.599H248V36.4961H246.349V32.0159L243.638 36.4961H241.987V29.599H243.638V34.0791H243.579Z" fill="black"/>
<path d="M15.091 27.5362L12.1435 30.8964L13.9709 36.8502H11.7898L10.6108 32.5469L8.78338 34.6102L8.42968 36.8502H6.36646L7.89914 27.5362H9.96237L9.25497 31.8985L9.54972 31.5448C9.72657 31.309 9.84447 31.1322 10.0213 31.0143L13.0277 27.5952H15.091V27.5362Z" fill="#0079C2"/>
<path d="M17.6848 34.0202L15.3858 27.4768H17.5669L18.9228 31.7801L21.2807 27.4768H23.2261L19.3354 34.3739C18.8049 35.2581 18.3333 35.9066 17.8617 36.2603C17.3901 36.614 16.7416 36.7908 15.8574 36.7908H14.9731L15.2679 35.0813H15.9753C16.329 35.0813 16.6827 35.0223 16.8595 34.9044C17.0953 34.7865 17.2722 34.5507 17.449 34.256L17.6848 34.0202Z" fill="#0079C2"/>
<path d="M25.0535 33.3128L24.464 36.7908H22.3418L23.8745 27.4768H27.1756C27.883 27.4768 28.4725 27.5358 28.9441 27.6537C29.3568 27.7716 29.7694 28.0663 30.0642 28.5379C30.3589 28.9506 30.5358 29.54 30.5358 30.1295C30.5358 30.6011 30.4179 31.0727 30.241 31.5443C30.0642 32.0159 29.7694 32.3696 29.4157 32.6644C29.062 32.9002 28.7083 33.077 28.4136 33.1949C28.1188 33.2539 27.6472 33.3128 26.9988 33.3128H25.0535V33.3128ZM25.7019 29.1864L25.2893 31.7212H26.8809C27.4114 31.7212 27.8241 31.6033 28.0599 31.3085C28.2957 31.0727 28.4136 30.719 28.4136 30.3653C28.4136 30.0706 28.2957 29.8348 28.1188 29.54C27.942 29.3043 27.4704 29.1864 26.763 29.1864H25.7019Z" fill="#0079C2"/>
<path d="M39.0834 31.0138L36.9612 31.1317C36.9612 31.0138 36.9612 30.8959 36.9612 30.778C36.9612 30.3064 36.8433 29.8937 36.6075 29.599C36.3717 29.2453 36.018 29.1274 35.5464 29.1274C34.7801 29.1274 34.1906 29.599 33.8369 30.5422C33.4832 31.4854 33.3063 32.4286 33.3063 33.3128C33.3063 33.9613 33.4242 34.4918 33.719 34.7865C34.0137 35.0813 34.3674 35.2581 34.839 35.2581C35.7822 35.2581 36.3717 34.6686 36.7254 33.5486L38.6707 33.9023C37.9634 36.0245 36.6665 37.0856 34.7211 37.0856C33.5421 37.0856 32.599 36.6729 31.9505 35.9066C31.3021 35.1402 31.0073 34.1381 31.0073 33.077C31.0073 31.6033 31.42 30.3064 32.2453 29.1274C33.0705 28.0074 34.1906 27.4179 35.5464 27.4179C36.5486 27.4179 37.3739 27.7126 38.0223 28.3021C38.7297 28.8327 39.0834 29.7759 39.0834 31.0138Z" fill="#0079C2"/>
<path d="M48.2206 27.5358L45.2731 30.8959L47.1006 36.8498H44.9194L43.7404 32.5465L41.913 34.6097L41.5593 36.8498H39.4961L41.0288 27.5358H43.092L42.3846 31.898L42.6794 31.5443C42.8562 31.3085 42.9741 31.1317 43.151 31.0138L46.1574 27.5947H48.2206V27.5358Z" fill="#0079C2"/>
<path d="M55.3535 29.2453H52.9955L51.7576 36.7908H49.6354L50.8734 29.2453H48.5154L48.8101 27.4768H55.6482L55.3535 29.2453Z" fill="#0079C2"/>
<path d="M63.1348 27.5358L62.84 29.3043H58.4778L58.183 31.1906H61.8379L61.5432 32.9002H57.8883L57.5346 35.0813H62.0148L61.72 36.8498H55.1177L56.6504 27.5358H63.1348Z" fill="#0079C2"/>
<path d="M63.6652 36.7908H61.6609L65.9052 27.4768H68.499L69.7959 36.7908H67.5558L66.7305 29.2453L63.6652 36.7908Z" fill="#0079C2"/>
<path d="M78.4026 27.5358L78.1079 29.3043H73.7456L73.4509 31.1906H77.1057L76.811 32.9002H73.1561L72.8024 35.0813H77.2826L76.9878 36.8498H70.3855L71.9182 27.5358H78.4026Z" fill="#0079C2"/>
<path d="M87.0092 27.5358L84.0617 30.8959L85.8891 36.8498H83.708L82.529 32.5465L80.7016 34.6097L80.3479 36.8498H78.2847L79.8173 27.5358H81.8806L81.1732 31.898L81.4679 31.5443C81.6448 31.3085 81.7627 31.1317 81.9395 31.0138L84.9459 27.5947H87.0092V27.5358Z" fill="#0079C2"/>
<path d="M90.5462 37.0266C89.4262 37.0266 88.5419 36.6729 87.8935 35.9066C87.2451 35.1402 86.8914 34.1971 86.8914 32.9591C86.8914 31.4854 87.304 30.1885 88.0703 29.0685C88.8367 27.9484 89.8978 27.4179 91.2536 27.4179C92.3737 27.4179 93.2579 27.7716 93.9653 28.5379C94.6137 29.3043 94.9674 30.3064 94.9674 31.5443C94.9674 33.0181 94.5548 34.315 93.7884 35.435C92.9631 36.4961 91.9021 37.0266 90.5462 37.0266ZM90.6052 35.3171C91.4305 35.3171 91.961 34.8455 92.3147 33.9613C92.6684 33.0181 92.8452 32.1338 92.8452 31.2496C92.8452 29.8348 92.3147 29.1864 91.3126 29.1864C90.5462 29.1864 90.0157 29.599 89.662 30.4832C89.3083 31.3675 89.1314 32.3107 89.1314 33.3128C89.0135 34.6097 89.5441 35.3171 90.6052 35.3171Z" fill="#0079C2"/>
<path d="M107.288 27.5358L105.755 36.8498H103.574L104.871 29.0685L101.098 36.8498H99.8602L98.6223 28.9506L97.3254 36.8498H95.5569L97.0896 27.5358H100.332L101.157 33.2539L103.869 27.5358H107.288Z" fill="#0079C2"/>
<path d="M37.0201 13.6045H39.7908L48.3974 6.23579H55.4713L43.8583 15.4319L55.9429 25.9249H49.0458L39.9087 17.4951H37.0201V25.9249H32.3042V6.23579H37.0201V13.6045Z" fill="#35A936"/>
<path d="M63.1348 11.8949V18.851C63.1348 21.5037 64.4906 22.6827 67.2023 22.6827H69.0297C71.3877 22.6827 73.0972 21.3268 73.0972 18.851V11.8949H77.8132V25.9249H73.0972V24.1564C72.3898 25.1585 71.034 25.9249 69.0297 25.9249H64.4906C60.8947 25.9249 58.3599 24.1564 58.3599 19.971V11.8949H63.1348Z" fill="#35A936"/>
<path d="M85.9481 13.9582C87.0682 12.4844 88.0114 11.8949 89.9567 11.8949H92.3147C97.3843 11.8949 98.4454 14.6066 98.4454 17.613H93.7294C93.4347 16.3751 93.1399 15.1372 90.8999 15.1372H89.1903C87.304 15.1372 85.9481 16.6109 85.9481 18.4973V25.9249H81.2322V11.8949H85.9481V13.9582Z" fill="#35A936"/>
<path d="M101.157 21.4447H105.107C105.107 22.3879 105.696 22.9774 106.934 22.9774H112.711C114.185 22.9774 114.597 22.4469 114.597 21.7984C114.597 21.091 114.126 20.3836 112.652 20.3836H105.932C102.867 20.3836 101.275 19.0868 101.275 16.493V15.6677C101.275 13.4866 102.513 11.836 106.757 11.836H113.065C117.368 11.836 118.842 13.015 118.842 16.2572H114.597C114.597 15.0782 113.713 14.7245 112.181 14.7245H106.816C105.46 14.7245 105.107 15.255 105.107 15.9035C105.107 16.5519 105.342 17.1414 106.698 17.1414H113.065C117.309 17.1414 118.783 18.4383 118.783 20.7373V21.6216C118.783 24.4512 116.838 25.8659 113.124 25.8659H106.403C102.69 25.9249 101.157 24.4512 101.157 21.4447Z" fill="#35A936"/>
<path d="M126.446 16.9056H128.156L132.872 11.8949H138.177L131.634 18.3794L138.767 25.9249H133.167L128.156 19.8531H126.446V25.9249H121.73V6.23579H126.446V16.9056Z" fill="#35A936"/>
<path d="M156.805 25.9249H148.14C142.834 25.9249 140.889 23.9796 140.889 19.2047V13.015C140.889 7.65058 142.775 6 148.14 6H156.805C161.698 6 163.938 7.47373 163.938 13.015V19.2047C163.938 24.0975 162.346 25.9249 156.805 25.9249ZM149.319 22.0342H155.567C158.574 22.0342 159.281 21.3858 159.281 18.7331V13.4866C159.281 10.598 158.338 9.94961 155.508 9.94961H149.437C146.489 9.94961 145.664 10.7159 145.664 13.4866V18.7331C145.605 21.3268 146.43 22.0342 149.319 22.0342Z" fill="#35A936"/>
<path d="M172.014 13.8992C172.073 13.6634 172.839 11.8949 176.082 11.8949H179.913C184.04 11.8949 186.162 14.0171 186.162 17.672V25.9249H181.446V18.6152C181.446 16.1982 180.562 15.1372 178.145 15.1372H175.846C173.488 15.1372 172.073 16.493 172.073 18.9689V25.9249H167.357V11.8949H172.073V13.8992H172.014Z" fill="#35A936"/>
<path d="M194.945 25.9249H190.229V6.23579H194.945V25.9249Z" fill="#35A936"/>
<path d="M203.965 6.23579V10.1265H199.249V6.23579H203.965ZM203.965 25.9249H199.249V11.8949H203.965V25.9249Z" fill="#35A936"/>
<path d="M212.453 13.8992C212.512 13.6634 213.279 11.8949 216.521 11.8949H220.353C224.479 11.8949 226.601 14.0171 226.601 17.672V25.9249H221.885V18.6152C221.885 16.1982 221.001 15.1372 218.584 15.1372H216.285C213.927 15.1372 212.512 16.493 212.512 18.9689V25.9249H207.796V11.8949H212.512V13.8992H212.453Z" fill="#35A936"/>
<path d="M233.911 19.912V20.4426C233.911 21.6805 234.206 22.9774 236.151 22.9774H241.574C242.694 22.9774 243.225 22.3879 243.225 21.3268H247.764C247.764 23.8027 246.585 25.9249 241.869 25.9249H234.972C231.023 25.9249 229.195 23.6259 229.195 20.5605V17.0235C229.195 14.5477 230.846 11.836 235.09 11.836H241.81C246.408 11.836 247.823 14.7245 247.823 17.5541V19.912H233.911V19.912ZM240.631 14.7835H236.269C234.442 14.7835 233.911 15.9624 233.911 17.3183H243.284C243.284 15.9624 242.636 14.7835 240.631 14.7835Z" fill="#35A936"/>
</svg>
