<svg width="11" height="20" viewBox="0 0 11 20" fill="none" xmlns="http://www.w3.org/2000/svg">
<path opacity="0.6" d="M7.50663 14.5353C8.5191 14.2919 9.48541 13.8717 10.3652 13.2921C10.6753 13.0723 10.8919 12.7345 10.969 12.3502C11.0462 11.9658 10.9779 11.565 10.7785 11.2326C10.5792 10.9001 10.2645 10.6621 9.90098 10.5689C9.53748 10.4757 9.15369 10.5346 8.83082 10.7332C7.83745 11.3842 6.68992 11.7293 5.51886 11.7293C4.34781 11.7293 3.20028 11.3842 2.20691 10.7332C1.88441 10.5197 1.49449 10.4492 1.12254 10.5369C0.750579 10.6247 0.426908 10.8636 0.22241 11.2013V11.2045C0.121377 11.3722 0.052868 11.5592 0.0208099 11.7548C-0.0112481 11.9503 -0.00622514 12.1506 0.035591 12.3442C0.0774072 12.5377 0.155194 12.7206 0.264494 12.8826C0.373794 13.0445 0.512458 13.1822 0.672539 13.2877L0.67492 13.2908C1.55243 13.8705 2.51714 14.29 3.52812 14.5315L0.77733 17.4186C0.507992 17.6961 0.354482 18.0744 0.350464 18.4706C0.346445 18.8667 0.492247 19.2484 0.755896 19.5318L0.780307 19.5575C1.0536 19.8531 1.42275 20 1.79191 20C2.16106 20 2.52962 19.8531 2.80231 19.5575L5.51916 16.7217L8.21993 19.5612C8.79391 20.1369 9.70547 20.1238 10.258 19.5218C10.5173 19.2401 10.6623 18.8636 10.6623 18.4718C10.6623 18.08 10.5173 17.7035 10.258 17.4217L7.50663 14.5353ZM5.51857 10.3231C6.82227 10.3223 8.07238 9.77846 8.99446 8.81096C9.91653 7.84346 10.4352 6.5314 10.4366 5.16282C10.4366 2.31765 8.22886 0 5.51857 0C2.80827 0 0.600494 2.31765 0.600494 5.16282C0.601912 6.53169 1.1205 7.84407 2.04249 8.81207C2.96449 9.78006 4.21459 10.3246 5.51857 10.3263V10.3231ZM5.51857 3.02769C6.0579 3.02802 6.57505 3.25308 6.95641 3.65342C7.33778 4.05376 7.55216 4.59665 7.55248 5.16282C7.55232 5.72945 7.33812 6.27288 6.95684 6.67396C6.57556 7.07503 6.05833 7.30101 5.51857 7.30233C4.97858 7.30085 4.46113 7.07492 4.07941 6.67397C3.69769 6.27302 3.48277 5.72968 3.48167 5.16282C3.48356 4.59633 3.69876 4.0536 4.08035 3.65303C4.46193 3.25246 4.97893 3.02654 5.51857 3.02456V3.02769Z" fill="white"/>
</svg>
