<svg width="60" height="60" viewBox="0 0 60 60" fill="none" xmlns="http://www.w3.org/2000/svg">
<path d="M37.5 25.0001L48.8825 19.3101C49.2636 19.1196 49.6869 19.0298 50.1125 19.0489C50.538 19.0681 50.9516 19.1957 51.314 19.4196C51.6764 19.6435 51.9756 19.9562 52.1831 20.3282C52.3907 20.7002 52.4998 21.1191 52.5 21.5451V38.4551C52.4998 38.881 52.3907 39.2999 52.1831 39.6719C51.9756 40.0439 51.6764 40.3566 51.314 40.5805C50.9516 40.8044 50.538 40.932 50.1125 40.9512C49.6869 40.9704 49.2636 40.8805 48.8825 40.69L37.5 35.0001V25.0001Z" stroke="#0079C2" stroke-width="2.75" stroke-linecap="round" stroke-linejoin="round"/>
<path d="M32.5 15H12.5C9.73858 15 7.5 17.2386 7.5 20V40C7.5 42.7614 9.73858 45 12.5 45H32.5C35.2614 45 37.5 42.7614 37.5 40V20C37.5 17.2386 35.2614 15 32.5 15Z" stroke="#0079C2" stroke-width="2.75" stroke-linecap="round" stroke-linejoin="round"/>
</svg>
