<svg width="60" height="60" viewBox="0 0 60 60" fill="none" xmlns="http://www.w3.org/2000/svg">
<path d="M30 42.5C39.665 42.5 47.5 34.665 47.5 25C47.5 15.335 39.665 7.5 30 7.5C20.335 7.5 12.5 15.335 12.5 25C12.5 34.665 20.335 42.5 30 42.5Z" stroke="#0079C2" stroke-width="2.75" stroke-linecap="round" stroke-linejoin="round"/>
<path d="M30 32.5C34.1421 32.5 37.5 29.1421 37.5 25C37.5 20.8579 34.1421 17.5 30 17.5C25.8579 17.5 22.5 20.8579 22.5 25C22.5 29.1421 25.8579 32.5 30 32.5Z" stroke="#0079C2" stroke-width="2.75" stroke-linecap="round" stroke-linejoin="round"/>
<path d="M20 40L14.7725 48.715C14.5453 49.0942 14.4227 49.527 14.4172 49.9691C14.4117 50.4111 14.5236 50.8468 14.7414 51.2315C14.9592 51.6163 15.2751 51.9364 15.6569 52.1592C16.0388 52.3821 16.4729 52.4997 16.915 52.5H43.085C43.5271 52.4997 43.9612 52.3821 44.3431 52.1592C44.725 51.9364 45.0409 51.6163 45.2587 51.2315C45.4765 50.8468 45.5883 50.4111 45.5828 49.9691C45.5774 49.527 45.4548 49.0942 45.2275 48.715L40 40" stroke="#0079C2" stroke-width="2.75" stroke-linecap="round" stroke-linejoin="round"/>
</svg>
