<svg width="90" height="90" viewBox="0 0 90 90" fill="none" xmlns="http://www.w3.org/2000/svg">
<g filter="url(#filter0_d)">
<rect x="15" y="10.5693" width="60" height="59.3023" rx="10" fill="#F8F9FA"/>
<rect x="17" y="12.5693" width="56" height="55.3023" rx="8" stroke="white" stroke-width="4"/>
</g>
<path d="M45 44.1743C49.4183 44.1743 53 40.6342 53 36.2673C53 31.9004 49.4183 28.3604 45 28.3604C40.5817 28.3604 37 31.9004 37 36.2673C37 40.6342 40.5817 44.1743 45 44.1743Z" stroke="#34A853" stroke-width="2" stroke-linecap="round" stroke-linejoin="round"/>
<path d="M45.0024 44.1787L49.5358 51.9394L51.6665 47.6801L56.464 47.9859L51.9306 40.2252" stroke="#34A853" stroke-width="2" stroke-linecap="round" stroke-linejoin="round"/>
<path d="M38.0693 40.2256L33.536 47.9862L38.3334 47.6804L40.4642 51.9397L44.9975 44.1791" stroke="#34A853" stroke-width="2" stroke-linecap="round" stroke-linejoin="round"/>
<defs>
<filter id="filter0_d" x="0" y="0.569336" width="90" height="89.3023" filterUnits="userSpaceOnUse" color-interpolation-filters="sRGB">
<feFlood flood-opacity="0" result="BackgroundImageFix"/>
<feColorMatrix in="SourceAlpha" type="matrix" values="0 0 0 0 0 0 0 0 0 0 0 0 0 0 0 0 0 0 127 0"/>
<feOffset dy="5"/>
<feGaussianBlur stdDeviation="7.5"/>
<feColorMatrix type="matrix" values="0 0 0 0 0 0 0 0 0 0.00166667 0 0 0 0 0.141667 0 0 0 0.07 0"/>
<feBlend mode="normal" in2="BackgroundImageFix" result="effect1_dropShadow"/>
<feBlend mode="normal" in="SourceGraphic" in2="effect1_dropShadow" result="shape"/>
</filter>
</defs>
</svg>
