<svg width="90" height="91" viewBox="0 0 90 91" fill="none" xmlns="http://www.w3.org/2000/svg">
<g filter="url(#filter0_d)">
<rect x="15" y="10.9766" width="60" height="59.3023" rx="10" fill="#F8F9FA"/>
<rect x="17" y="12.9766" width="56" height="55.3023" rx="8" stroke="white" stroke-width="4"/>
</g>
<path d="M37.9999 40.6278C39.4727 40.6278 40.6666 39.4477 40.6666 37.9921C40.6666 36.5365 39.4727 35.3564 37.9999 35.3564C36.5272 35.3564 35.3333 36.5365 35.3333 37.9921C35.3333 39.4477 36.5272 40.6278 37.9999 40.6278Z" stroke="#34A853" stroke-width="2" stroke-linecap="round" stroke-linejoin="round"/>
<path d="M38 30.085V35.3563" stroke="#34A853" stroke-width="2" stroke-linecap="round" stroke-linejoin="round"/>
<path d="M38 40.627V51.1696" stroke="#34A853" stroke-width="2" stroke-linecap="round" stroke-linejoin="round"/>
<path d="M45.9999 48.534C47.4727 48.534 48.6666 47.354 48.6666 45.8984C48.6666 44.4427 47.4727 43.2627 45.9999 43.2627C44.5272 43.2627 43.3333 44.4427 43.3333 45.8984C43.3333 47.354 44.5272 48.534 45.9999 48.534Z" stroke="#34A853" stroke-width="2" stroke-linecap="round" stroke-linejoin="round"/>
<path d="M46 30.085V43.2633" stroke="#34A853" stroke-width="2" stroke-linecap="round" stroke-linejoin="round"/>
<path d="M46 48.5342V51.1698" stroke="#34A853" stroke-width="2" stroke-linecap="round" stroke-linejoin="round"/>
<path d="M53.9999 36.6737C55.4727 36.6737 56.6666 35.4936 56.6666 34.038C56.6666 32.5824 55.4727 31.4023 53.9999 31.4023C52.5272 31.4023 51.3333 32.5824 51.3333 34.038C51.3333 35.4936 52.5272 36.6737 53.9999 36.6737Z" stroke="#34A853" stroke-width="2" stroke-linecap="round" stroke-linejoin="round"/>
<path d="M54 30.085V31.4028" stroke="#34A853" stroke-width="2" stroke-linecap="round" stroke-linejoin="round"/>
<path d="M54 36.6738V51.17" stroke="#34A853" stroke-width="2" stroke-linecap="round" stroke-linejoin="round"/>
<defs>
<filter id="filter0_d" x="0" y="0.976562" width="90" height="89.3023" filterUnits="userSpaceOnUse" color-interpolation-filters="sRGB">
<feFlood flood-opacity="0" result="BackgroundImageFix"/>
<feColorMatrix in="SourceAlpha" type="matrix" values="0 0 0 0 0 0 0 0 0 0 0 0 0 0 0 0 0 0 127 0"/>
<feOffset dy="5"/>
<feGaussianBlur stdDeviation="7.5"/>
<feColorMatrix type="matrix" values="0 0 0 0 0 0 0 0 0 0.00166667 0 0 0 0 0.141667 0 0 0 0.07 0"/>
<feBlend mode="normal" in2="BackgroundImageFix" result="effect1_dropShadow"/>
<feBlend mode="normal" in="SourceGraphic" in2="effect1_dropShadow" result="shape"/>
</filter>
</defs>
</svg>
