<svg width="90" height="90" viewBox="0 0 90 90" fill="none" xmlns="http://www.w3.org/2000/svg">
<g filter="url(#filter0_d)">
<rect x="15" y="10.5693" width="60" height="59.3023" rx="10" fill="#F8F9FA"/>
<rect x="17" y="12.5693" width="56" height="55.3023" rx="8" stroke="white" stroke-width="4"/>
</g>
<path d="M57.5841 31.1136C57.3863 31.0109 57.1656 30.959 56.9422 30.9624C56.7189 30.9659 56.4999 31.0246 56.3055 31.1333C55.3935 31.646 54.4988 31.8937 53.5681 31.8937C50.8548 31.8937 48.2988 29.747 45.9388 27.4263C45.4388 26.9347 44.5215 26.9347 44.0215 27.4263C41.7895 29.6244 39.1308 31.87 36.3468 31.87C35.4268 31.87 34.5455 31.6275 33.6561 31.1307C33.2588 30.9119 32.7788 30.9053 32.3761 31.1149C31.9735 31.3244 31.7081 31.7224 31.6721 32.1705C31.6575 32.3405 30.4135 49.1336 44.5828 53.3098C44.7065 53.3466 44.835 53.3652 44.9641 53.3651H45.0001C45.1295 53.3651 45.2561 53.3467 45.3801 53.3111C59.5895 49.1336 58.3068 32.3365 58.2921 32.1678C58.2731 31.9475 58.1983 31.7355 58.0745 31.5512C57.9508 31.367 57.7822 31.2165 57.5841 31.1136ZM44.9815 50.6728C35.6761 47.7011 34.4028 38.2694 34.2961 34.2302C34.9695 34.4147 35.6548 34.5057 36.3455 34.5057C39.6681 34.5057 42.5455 32.4406 44.9801 30.1792C47.5041 32.5355 50.2908 34.5294 53.5695 34.5294C54.2761 34.5294 54.9788 34.4319 55.6695 34.2395C55.5708 38.2786 54.3081 47.7037 44.9815 50.6728Z" fill="#34A853"/>
<defs>
<filter id="filter0_d" x="0" y="0.569336" width="90" height="89.3023" filterUnits="userSpaceOnUse" color-interpolation-filters="sRGB">
<feFlood flood-opacity="0" result="BackgroundImageFix"/>
<feColorMatrix in="SourceAlpha" type="matrix" values="0 0 0 0 0 0 0 0 0 0 0 0 0 0 0 0 0 0 127 0"/>
<feOffset dy="5"/>
<feGaussianBlur stdDeviation="7.5"/>
<feColorMatrix type="matrix" values="0 0 0 0 0 0 0 0 0 0.00166667 0 0 0 0 0.141667 0 0 0 0.07 0"/>
<feBlend mode="normal" in2="BackgroundImageFix" result="effect1_dropShadow"/>
<feBlend mode="normal" in="SourceGraphic" in2="effect1_dropShadow" result="shape"/>
</filter>
</defs>
</svg>
