<svg width="90" height="90" viewBox="0 0 90 90" fill="none" xmlns="http://www.w3.org/2000/svg">
<g filter="url(#filter0_d)">
<rect x="15" y="10.5693" width="60" height="59.3023" rx="10" fill="#F8F9FA"/>
<rect x="17" y="12.5693" width="56" height="55.3023" rx="8" stroke="white" stroke-width="4"/>
</g>
<path d="M45 52.0813C51.6274 52.0813 57 46.7712 57 40.2208C57 33.6705 51.6274 28.3604 45 28.3604C38.3726 28.3604 33 33.6705 33 40.2208C33 46.7712 38.3726 52.0813 45 52.0813Z" stroke="#34A853" stroke-width="2" stroke-linecap="round" stroke-linejoin="round"/>
<path d="M33.8 36.2676H56.2001" stroke="#34A853" stroke-width="2" stroke-linecap="round" stroke-linejoin="round"/>
<path d="M33.8 44.1748H56.2001" stroke="#34A853" stroke-width="2" stroke-linecap="round" stroke-linejoin="round"/>
<path d="M44.3333 28.3604C42.0871 31.918 40.8962 36.0273 40.8962 40.2208C40.8962 44.4143 42.0871 48.5237 44.3333 52.0813" stroke="#34A853" stroke-width="2" stroke-linecap="round" stroke-linejoin="round"/>
<path d="M45.6667 28.3604C47.913 31.918 49.1038 36.0273 49.1038 40.2208C49.1038 44.4143 47.913 48.5237 45.6667 52.0813" stroke="#34A853" stroke-width="2" stroke-linecap="round" stroke-linejoin="round"/>
<defs>
<filter id="filter0_d" x="0" y="0.569336" width="90" height="89.3023" filterUnits="userSpaceOnUse" color-interpolation-filters="sRGB">
<feFlood flood-opacity="0" result="BackgroundImageFix"/>
<feColorMatrix in="SourceAlpha" type="matrix" values="0 0 0 0 0 0 0 0 0 0 0 0 0 0 0 0 0 0 127 0"/>
<feOffset dy="5"/>
<feGaussianBlur stdDeviation="7.5"/>
<feColorMatrix type="matrix" values="0 0 0 0 0 0 0 0 0 0.00166667 0 0 0 0 0.141667 0 0 0 0.07 0"/>
<feBlend mode="normal" in2="BackgroundImageFix" result="effect1_dropShadow"/>
<feBlend mode="normal" in="SourceGraphic" in2="effect1_dropShadow" result="shape"/>
</filter>
</defs>
</svg>
