<svg width="21" height="12" viewBox="0 0 21 12" fill="none" xmlns="http://www.w3.org/2000/svg">
<path opacity="0.6" d="M20.8128 10.7032C20.7564 10.6086 20.4073 9.84873 18.7271 8.28705C16.9682 6.65178 17.2045 6.91731 19.323 4.0897C20.6133 2.36766 21.1291 1.31602 20.9677 0.866413C20.8141 0.437826 19.8651 0.55092 19.8651 0.55092L16.7096 0.569319C16.7096 0.569319 16.476 0.537755 16.3014 0.641571C16.1321 0.744117 16.0231 0.980776 16.0231 0.980776C16.0231 0.980776 15.5231 2.31373 14.8562 3.4469C13.4505 5.83807 12.8874 5.96425 12.6576 5.8157C12.1234 5.46999 12.2573 4.42494 12.2573 3.68347C12.2573 1.3659 12.6077 0.399757 11.5735 0.149933C11.2295 0.0671344 10.9775 0.011935 10.0994 0.00273516C8.97316 -0.00908191 8.01892 0.00670096 7.47945 0.27088C7.11979 0.447025 6.84284 0.840081 7.01216 0.862446C7.22091 0.890046 7.69343 0.989975 7.94413 1.33172C8.26834 1.77212 8.25653 2.76333 8.25653 2.76333C8.25653 2.76333 8.4429 5.49101 7.82207 5.83014C7.39547 6.06283 6.81135 5.58832 5.55779 3.41795C4.91594 2.30714 4.43033 1.07801 4.43033 1.07801C4.43033 1.07801 4.33714 0.849281 4.17043 0.727065C3.96828 0.578519 3.68475 0.531172 3.68475 0.531172L0.68416 0.549573C0.68416 0.549573 0.233922 0.562737 0.0685618 0.758631C-0.0784775 0.933428 0.0567446 1.29365 0.0567446 1.29365C0.0567446 1.29365 2.40628 6.79771 5.0656 9.57273C7.50571 12.1163 10.2753 11.9494 10.2753 11.9494H11.5301C11.5301 11.9494 11.9095 11.9074 12.1024 11.6984C12.2809 11.5064 12.2744 11.1462 12.2744 11.1462C12.2744 11.1462 12.2494 9.45964 13.0317 9.21124C13.8022 8.96673 14.7919 10.8413 15.8407 11.5629C16.6335 12.1085 17.236 11.9889 17.236 11.9889L20.041 11.9494C20.041 11.9494 21.5085 11.8587 20.8128 10.7032Z" fill="white"/>
</svg>
