<svg width="100" height="99" viewBox="0 0 100 99" fill="none" xmlns="http://www.w3.org/2000/svg">
<g filter="url(#filter0_d)">
<rect x="15" y="10.6465" width="70" height="67.7918" rx="10" fill="#F8F9FA"/>
<rect x="17" y="12.6465" width="66" height="63.7918" rx="8" stroke="white" stroke-width="4"/>
</g>
<path d="M43.3333 38.0859H56.6666V45.8336C56.6666 46.861 56.2452 47.8463 55.495 48.5728C54.7449 49.2993 53.7275 49.7074 52.6666 49.7074H47.3333C46.2724 49.7074 45.255 49.2993 44.5048 48.5728C43.7547 47.8463 43.3333 46.861 43.3333 45.8336V38.0859Z" stroke="#34A853" stroke-width="2" stroke-linecap="round" stroke-linejoin="round"/>
<path d="M46 32.9209V38.086" stroke="#34A853" stroke-width="2" stroke-linecap="round" stroke-linejoin="round"/>
<path d="M54 32.9209V38.086" stroke="#34A853" stroke-width="2" stroke-linecap="round" stroke-linejoin="round"/>
<path d="M50 49.707V52.2896C50 52.9745 50.281 53.6314 50.781 54.1157C51.2811 54.6 51.9594 54.8721 52.6667 54.8721H56.6667" stroke="#34A853" stroke-width="2" stroke-linecap="round" stroke-linejoin="round"/>
<defs>
<filter id="filter0_d" x="0" y="0.646484" width="100" height="97.7918" filterUnits="userSpaceOnUse" color-interpolation-filters="sRGB">
<feFlood flood-opacity="0" result="BackgroundImageFix"/>
<feColorMatrix in="SourceAlpha" type="matrix" values="0 0 0 0 0 0 0 0 0 0 0 0 0 0 0 0 0 0 127 0"/>
<feOffset dy="5"/>
<feGaussianBlur stdDeviation="7.5"/>
<feColorMatrix type="matrix" values="0 0 0 0 0 0 0 0 0 0.00166667 0 0 0 0 0.141667 0 0 0 0.07 0"/>
<feBlend mode="normal" in2="BackgroundImageFix" result="effect1_dropShadow"/>
<feBlend mode="normal" in="SourceGraphic" in2="effect1_dropShadow" result="shape"/>
</filter>
</defs>
</svg>
