<svg width="100" height="99" viewBox="0 0 100 99" fill="none" xmlns="http://www.w3.org/2000/svg">
<g filter="url(#filter0_d)">
<rect x="15" y="10.6465" width="70" height="67.7918" rx="10" fill="#F8F9FA"/>
<rect x="17" y="12.6465" width="66" height="63.7918" rx="8" stroke="white" stroke-width="4"/>
</g>
<path d="M38 56.1639H43.3333L60.6667 39.3774C61.3739 38.6925 61.7712 37.7635 61.7712 36.7948C61.7712 35.8262 61.3739 34.8972 60.6667 34.2123C59.9594 33.5274 59.0002 33.1426 58 33.1426C56.9998 33.1426 56.0406 33.5274 55.3333 34.2123L38 50.9988V56.1639Z" stroke="#34A853" stroke-width="2" stroke-linecap="round" stroke-linejoin="round"/>
<path d="M53.3333 36.1494L58.6666 41.3145" stroke="#34A853" stroke-width="2" stroke-linecap="round" stroke-linejoin="round"/>
<path d="M50 39.3773L43.3333 32.9209L38 38.086L44.6667 44.5424" stroke="#34A853" stroke-width="2" stroke-linecap="round" stroke-linejoin="round"/>
<path d="M43.3333 39.377L41.3333 41.3139" stroke="#34A853" stroke-width="2" stroke-linecap="round" stroke-linejoin="round"/>
<path d="M55.3333 44.542L62 50.9984L56.6667 56.1634L50 49.7071" stroke="#34A853" stroke-width="2" stroke-linecap="round" stroke-linejoin="round"/>
<path d="M55.3333 50.998L53.3333 52.935" stroke="#34A853" stroke-width="2" stroke-linecap="round" stroke-linejoin="round"/>
<defs>
<filter id="filter0_d" x="0" y="0.646484" width="100" height="97.7918" filterUnits="userSpaceOnUse" color-interpolation-filters="sRGB">
<feFlood flood-opacity="0" result="BackgroundImageFix"/>
<feColorMatrix in="SourceAlpha" type="matrix" values="0 0 0 0 0 0 0 0 0 0 0 0 0 0 0 0 0 0 127 0"/>
<feOffset dy="5"/>
<feGaussianBlur stdDeviation="7.5"/>
<feColorMatrix type="matrix" values="0 0 0 0 0 0 0 0 0 0.00166667 0 0 0 0 0.141667 0 0 0 0.07 0"/>
<feBlend mode="normal" in2="BackgroundImageFix" result="effect1_dropShadow"/>
<feBlend mode="normal" in="SourceGraphic" in2="effect1_dropShadow" result="shape"/>
</filter>
</defs>
</svg>
