<svg width="100" height="99" viewBox="0 0 100 99" fill="none" xmlns="http://www.w3.org/2000/svg">
<g filter="url(#filter0_d)">
<rect x="15" y="10.6465" width="70" height="67.7918" rx="10" fill="#F8F9FA"/>
<rect x="17" y="12.6465" width="66" height="63.7918" rx="8" stroke="white" stroke-width="4"/>
</g>
<path d="M45.9999 34.2119H40.6666C39.9302 34.2119 39.3333 34.79 39.3333 35.5032V40.6683C39.3333 41.3814 39.9302 41.9595 40.6666 41.9595H45.9999C46.7363 41.9595 47.3333 41.3814 47.3333 40.6683V35.5032C47.3333 34.79 46.7363 34.2119 45.9999 34.2119Z" stroke="#34A853" stroke-width="2" stroke-linecap="round" stroke-linejoin="round"/>
<path d="M59.3334 34.2119H54.0001C53.2637 34.2119 52.6667 34.79 52.6667 35.5032V40.6683C52.6667 41.3814 53.2637 41.9595 54.0001 41.9595H59.3334C60.0698 41.9595 60.6667 41.3814 60.6667 40.6683V35.5032C60.6667 34.79 60.0698 34.2119 59.3334 34.2119Z" stroke="#34A853" stroke-width="2" stroke-linecap="round" stroke-linejoin="round"/>
<path d="M45.9999 47.125H40.6666C39.9302 47.125 39.3333 47.7031 39.3333 48.4163V53.5814C39.3333 54.2945 39.9302 54.8726 40.6666 54.8726H45.9999C46.7363 54.8726 47.3333 54.2945 47.3333 53.5814V48.4163C47.3333 47.7031 46.7363 47.125 45.9999 47.125Z" stroke="#34A853" stroke-width="2" stroke-linecap="round" stroke-linejoin="round"/>
<path d="M56.6667 47.125V54.8726M52.6667 50.9988H60.6667H52.6667Z" stroke="#34A853" stroke-width="2" stroke-linecap="round" stroke-linejoin="round"/>
<defs>
<filter id="filter0_d" x="0" y="0.646484" width="100" height="97.7918" filterUnits="userSpaceOnUse" color-interpolation-filters="sRGB">
<feFlood flood-opacity="0" result="BackgroundImageFix"/>
<feColorMatrix in="SourceAlpha" type="matrix" values="0 0 0 0 0 0 0 0 0 0 0 0 0 0 0 0 0 0 127 0"/>
<feOffset dy="5"/>
<feGaussianBlur stdDeviation="7.5"/>
<feColorMatrix type="matrix" values="0 0 0 0 0 0 0 0 0 0.00166667 0 0 0 0 0.141667 0 0 0 0.07 0"/>
<feBlend mode="normal" in2="BackgroundImageFix" result="effect1_dropShadow"/>
<feBlend mode="normal" in="SourceGraphic" in2="effect1_dropShadow" result="shape"/>
</filter>
</defs>
</svg>
