<svg width="100" height="99" viewBox="0 0 100 99" fill="none" xmlns="http://www.w3.org/2000/svg">
<g filter="url(#filter0_d)">
<rect x="15" y="10.6465" width="70" height="67.7918" rx="10" fill="#F8F9FA"/>
<rect x="17" y="12.6465" width="66" height="63.7918" rx="8" stroke="white" stroke-width="4"/>
</g>
<path d="M49.7267 56.1633H40.6667C39.9594 56.1633 39.2811 55.8912 38.781 55.4069C38.281 54.9226 38 54.2657 38 53.5807V38.0855C38 37.4005 38.281 36.7437 38.781 36.2593C39.2811 35.775 39.9594 35.5029 40.6667 35.5029H56.6667C57.3739 35.5029 58.0522 35.775 58.5523 36.2593C59.0524 36.7437 59.3333 37.4005 59.3333 38.0855V43.2506" stroke="#34A853" stroke-width="2" stroke-linecap="round" stroke-linejoin="round"/>
<path d="M58.0001 57.4552C60.9456 57.4552 63.3334 55.1427 63.3334 52.2901C63.3334 49.4375 60.9456 47.125 58.0001 47.125C55.0546 47.125 52.6667 49.4375 52.6667 52.2901C52.6667 55.1427 55.0546 57.4552 58.0001 57.4552Z" stroke="#34A853" stroke-width="2" stroke-linecap="round" stroke-linejoin="round"/>
<path d="M54 32.9209V38.086" stroke="#34A853" stroke-width="2" stroke-linecap="round" stroke-linejoin="round"/>
<path d="M43.3333 32.9209V38.086" stroke="#34A853" stroke-width="2" stroke-linecap="round" stroke-linejoin="round"/>
<path d="M38 43.251H59.3333" stroke="#34A853" stroke-width="2" stroke-linecap="round" stroke-linejoin="round"/>
<path d="M58 50.3477V52.2897L59.3333 53.581" stroke="#34A853" stroke-width="2" stroke-linecap="round" stroke-linejoin="round"/>
<defs>
<filter id="filter0_d" x="0" y="0.646484" width="100" height="97.7918" filterUnits="userSpaceOnUse" color-interpolation-filters="sRGB">
<feFlood flood-opacity="0" result="BackgroundImageFix"/>
<feColorMatrix in="SourceAlpha" type="matrix" values="0 0 0 0 0 0 0 0 0 0 0 0 0 0 0 0 0 0 127 0"/>
<feOffset dy="5"/>
<feGaussianBlur stdDeviation="7.5"/>
<feColorMatrix type="matrix" values="0 0 0 0 0 0 0 0 0 0.00166667 0 0 0 0 0.141667 0 0 0 0.07 0"/>
<feBlend mode="normal" in2="BackgroundImageFix" result="effect1_dropShadow"/>
<feBlend mode="normal" in="SourceGraphic" in2="effect1_dropShadow" result="shape"/>
</filter>
</defs>
</svg>
